<svg xmlns="http://www.w3.org/2000/svg" viewBox="0 0 895 815"><defs><style>.cls-1,.cls-10,.cls-11,.cls-12,.cls-13,.cls-15,.cls-18,.cls-20,.cls-39,.cls-42,.cls-43,.cls-45{isolation:isolate}.cls-2,.cls-9{fill:#161616}.cls-3{fill:#e8e8e8}.cls-5{fill:#383838}.cls-6{fill:#a9a9aa}.cls-7{fill:#444343}.cls-22,.cls-8{fill:#fff}.cls-8,.cls-9{stroke:#161616;stroke-miterlimit:10;stroke-width:1.29px}.cls-10,.cls-11,.cls-12,.cls-13,.cls-15,.cls-18,.cls-20{fill:#666}.cls-10{opacity:.21}.cls-11{opacity:.14}.cls-12{opacity:.2}.cls-13,.cls-42{opacity:.13}.cls-15{opacity:.16}.cls-18{opacity:.17}.cls-19{fill:#0a0a0a}.cls-20{opacity:.18}.cls-33{fill:#8c8c8c}.cls-34,.cls-39,.cls-42,.cls-43,.cls-45{fill:#353535}.cls-37{fill:#303030}.cls-38{fill:#777}.cls-39{opacity:.09}.cls-40{fill:#595959}.cls-43{opacity:.1}.cls-45{opacity:.08}</style></defs><g class="cls-1"><g id="Layer_1" data-name="Layer 1"><path class="cls-2" d="M130.5 259.7a22.1 22.1 0 01.2 21.1c-.6 1 1 2 1.6 1a24.2 24.2 0 00-.1-23c-.7-1.2-2.3-.2-1.7 1z"/><path class="cls-2" d="M132.9 260c2.2-1 4.7-2.4 7.3-1.8 3.7.8 3.9 3.8 4.1 6.9.3 4.1 0 8.5-2.6 11.9-.8 1 .5 2.3 1.3 1.3 3.8-4.5 4.2-11.7 2.8-17.3-1.8-6.8-9.2-5-13.8-2.6-1.2.5-.2 2.2.9 1.7z"/><path class="cls-2" d="M132.9 282.1a11 11 0 009.6-3.7c.8-1-.6-2.3-1.4-1.4a9.1 9.1 0 01-8.2 3.3c-1.3-.2-1.3 1.7 0 1.8zM132.3 174.6c.8-1.6 3.1-6 5.7-2 .5.7.5 2.5.6 3.2a7.5 7.5 0 001.7 3.8c3.2 3.4 5.5-2.1 8.8-.3 4.3 2.2-1.2 7 2.3 9.7a2.7 2.7 0 002.7.2c.7-.2 1.2-.8 1.8-1.1 2.4-1 3.3 1 3.5 3a1 1 0 001 1l2 .2c1.3 0 1.3-1.9 0-2l-2-.2 1 1c-.2-1.7-.5-4-2.2-5s-2.9-.1-4.5.7c-.8.3-1.4 1.6-2.5.1-.4-.6.5-2.4.6-3a5.1 5.1 0 000-3 5.6 5.6 0 00-3.5-3.5c-2-.7-3 .1-4.8.6-1.6.5-3.2.4-3.8-1.4a12.2 12.2 0 01-.3-2 10.3 10.3 0 00-.9-3.1c-2.6-4.9-7.2-.8-8.8 2.5-.7.8 1 1.7 1.6.6zM144.8 168.6c1.6-1.5 3-2.1 4.7-.7 1.3 1.2 1 1.6 1.5 3.1a4.4 4.4 0 001.3 2.4 4 4 0 003.2.7c1.2-.1 2.6-.9 3.5.3a5 5 0 01.4 2.6c0 2 0 4.3 2.3 5 .6.2 1.3-.1 2 0 .7-.2 1 0 1 .8a3 3 0 01.4 1.7 6.3 6.3 0 002 3.6c1 .8 2.3-.5 1.4-1.4-1.9-1.8-.5-4.3-2.2-6s-4.3.9-4.9-2.2c-.4-2.4.5-5.7-2.7-6.5-2.2-.6-4.6 1.7-5.9-1.4-.5-1.3-.3-2.7-1.2-4-2.1-2.8-6-1.3-8.2.7-.9.8.5 2.2 1.4 1.3zM382.9 288.7c-2-.1 1-4 1.6-4.3a3.8 3.8 0 014.5.9c2.5 2.7.4 6.7-3 7-1.3.2-1.3 2.1 0 2a6.8 6.8 0 006-5 6.2 6.2 0 00-3.6-6.8 5.6 5.6 0 00-6.8 2.1c-1.3 2-1.6 5.9 1.4 6.1 1.1.1 1.1-1.8-.1-2zM369.9 284.8c-1.4-1.2.2-3.7 1.8-2.3s-.6 3.2-2.1 2.1c-1-.8-2 1-1 1.7a3.6 3.6 0 004.6-.5 3.4 3.4 0 10-5.1-4.4 3.6 3.6 0 00.4 4.7c.9.9 2.3-.5 1.4-1.3zM594 201.8a33.7 33.7 0 01-15.5 30c-1 .7 0 2.3 1 1.7a35.6 35.6 0 0016.5-31.7c0-1.3-2-1.3-2 0z"/><path class="cls-2" d="M595.3 203.2c6.2 4.5 3.7 12.7.3 18-3.2 5.2-8.5 11.3-15.2 10.2-1.2-.2-1.7 1.7-.5 1.9 8 1.2 14.2-5.6 18-12s5.2-15-1.6-19.8c-1-.7-2 1-1 1.7z"/><path class="cls-3" d="M51.3 145.7a49.3 49.3 0 017.1 22c.2 1.2 2 1.2 2 0a51.6 51.6 0 00-7.4-23c-.7-1.1-2.4-.1-1.7 1zM59.2 143.5a46.4 46.4 0 015.7 19.6c0 1.2 2 1.2 2 0a49 49 0 00-6-20.5c-.6-1.1-2.3-.2-1.7 1z"/><path class="cls-3" d="M50.8 158a35 35 0 0118.7-5.7 1 1 0 000-2 37 37 0 00-19.7 6.2c-1 .6 0 2.3 1 1.6zM50.6 166a61.6 61.6 0 0122.9-8.2c1.2-.2.7-2-.5-1.9a62.4 62.4 0 00-23.4 8.4c-1 .6 0 2.3 1 1.7zM430 197.8c-3 1.5-4 5.4-1.5 7.9 1.3 1.4 2.5 1 4.1 1.5 1 .3 2.2 1 2 2-.1.7-.8 1.3-1.2 1.9a8.2 8.2 0 00-1.7 2.8 3.3 3.3 0 001 3.3c1.4 1.2 3.3.5 4.8 1.2 3.3 1.6-2.6 8.4 2.4 9.7a1 1 0 00.5-2c-2-.4.5-4.4.7-5.6a3.3 3.3 0 00-.9-3c-2.2-2.1-8.7.1-5.4-5.3 1-1.7 3-3.8 1.7-6a2.7 2.7 0 00-1.8-1.2c-.8-.2-2 0-2.8-.1-3.4-.2-3.8-4-.9-5.5 1.1-.4.2-2.1-1-1.6zM444.4 208.7c-2.1.8-2.2 3.1-.9 4.9.9 1.2 2.2 1.5 3.3 2.3 2.7 2 .3 3.7-.1 6-.8 4 3.5 2.7 4.7 5.2 1 2.2.7 4.6 3.3 5.5 1.2.5 1.7-1.4.5-1.8-1.9-.7-1.6-4.2-2.6-5.7a5.5 5.5 0 00-1.3-1.2c-.2-.2-.6-.1-.8-.2-.4-.1-.8-.4-.9-1-1-.6-1-1.2-.3-1.8.6-1.9 1.8-3 .6-4.8a6.4 6.4 0 00-2-1.7c-.6-.4-4.8-3-2.9-3.8 1.1-.5.6-2.4-.6-2zM569.3 339.1a7.6 7.6 0 011.2-13A8.3 8.3 0 01578 341c-4 2-9 .3-11.3-3.4-.6-1-2.3 0-1.6 1 2.9 4.8 9.6 7 14.6 3.7 4.7-3 6.2-10.3 2.7-14.8s-10.3-5.4-14.6-1.9a9.5 9.5 0 00.5 15.3c1 .6 2-1 .9-1.8zM123.2 357.8c.7-2.4 1.8-3 3-2l1 .5a4 4 0 001.4.2 3 3 0 002.2-1.5c1.6-2.5-.2-5-1.8-7-.8-1-2.4-2.3-2.2-3.8.3-2.9 2-1.7 3.4-1.9a3 3 0 002.4-1.5 4.3 4.3 0 00.3-2.8 13 13 0 01-.3-1.6c-.4-1.4.2-2.2 2-2.6a7.6 7.6 0 012.1 2.2c.7 1 2.4.1 1.7-1-1.8-2.4-7-5.8-7.8-.7-.4 2.6 2 5.3-1.8 6-1.9.3-3.1.3-3.7 2.5a5.6 5.6 0 001.3 5l1.6 1.8a6.2 6.2 0 011.4 2.2l-2.3 2.3c-.5.2-2-1-2.9-1.1-3.7-.3-5.7 4.7-2 6.4 1.2.5 2.2-1.2 1-1.6zM139 355c-1-1.7-2.6-4.3-2-6.4.6-1.6 2.8-2.3 3.7-3.6a5.7 5.7 0 000-6.7l-.9 1.5a7.5 7.5 0 008-5.5c.3-1.2-1.6-1.7-2-.5a5.7 5.7 0 01-6 4 1 1 0 00-.8 1.6 4 4 0 01.3 4.3c-.7 1.2-1.8 1.2-2.6 2a4.8 4.8 0 00-1.5 2.8c-.5 2.6.9 5.3 2.2 7.5.6 1 2.3 0 1.6-1zM336.4 21a27.8 27.8 0 016.4 13.7c.2 1.2 2.1.7 2-.5a30.2 30.2 0 00-7-14.5c-1-1-2.3.4-1.4 1.4z"/><path class="cls-3" d="M338 21.3c2.3-2 11-10 14.3-7.7 1.6 1.2 3 3.9 4 5.6a39 39 0 013.2 7c.4 1 2.3.6 1.9-.6a43 43 0 00-4.2-8.7c-1.1-1.8-2.8-4.8-4.8-5.6-2.3-1-5 1-7 2.1a50.8 50.8 0 00-8.7 6.5c-1 .8.4 2.2 1.4 1.4z"/><path class="cls-3" d="M344.9 36a67.3 67.3 0 0116.6-10.5c1.2-.5.1-2.2-1-1.6a68.6 68.6 0 00-17 10.7c-1 .8.4 2.1 1.4 1.3zM356.1 17.7c2.5-2 8-7.3 11-3.9 2.2 2.5 3.7 6.5 5 9.5.5 1.1 2.1 0 1.6-1a71 71 0 00-4-8c-.8-1.4-1.8-3.4-3.4-4-1.9-.7-3.9.7-5.4 1.6a45.4 45.4 0 00-6.1 4.4c-1 .9.4 2.3 1.3 1.4z"/><path class="cls-3" d="M351.4 29.5a27.3 27.3 0 018 5.5 1 1 0 001.5-.2 27.7 27.7 0 0111.1-9.3c1.2-.5.2-2.2-1-1.7a29.5 29.5 0 00-11.8 10l1.6-.2a27.9 27.9 0 00-8.4-5.8c-1.2-.4-2.2 1.2-1 1.7z"/><path class="cls-2" d="M365.4 101.4c0-.7-.3-1.4-.4-2.1a8.3 8.3 0 011.9-1.5 14.8 14.8 0 001.2-.9 5.5 5.5 0 001.7-2.2 7 7 0 00.2-3.5l-.2-1.2c-.1-.4.2-5.7 2.3-4 1 .8 2.3-.6 1.3-1.3a3 3 0 00-4.2.2c-2.2 2.1-1.2 4.7-1 7.3.2 3.8-4.8 4-5.3 7.6-.2 1.6.5 3 2.1 3.4 1.2.3 1.7-1.6.4-1.8zM372.6 96a2.5 2.5 0 004-1.7c.4-1.7-.8-3.3-.7-5a6.3 6.3 0 014-5.4c1.2-.4.7-2.3-.5-1.9a7.8 7.8 0 00-4.7 4.4 7.5 7.5 0 00-.7 3.1 11.5 11.5 0 00.1 1.5s1 4.5-.1 3.6c-1-.7-2.4.7-1.4 1.4zM205.8 309.3a2 2 0 01-.4-3.1 4.2 4.2 0 013.6-1.2 3.5 3.5 0 012.6 1.7c.6 1.2-.2 3.2-1.8 3-1.2-.2-1.7 1.7-.5 2a3.9 3.9 0 004.5-3.5c.4-2.4-1.6-4.3-3.8-5a6 6 0 00-6.4 2.2 3.9 3.9 0 001.3 5.6 1 1 0 001-1.7zM103.7 80.6l1.1-4 1.2.4c.5 0 1 .4 1.6.5a4.4 4.4 0 002.2 0c1.7-.5 2.2-2.1 2.2-3.7s-.6-3.4.7-4.7a4.6 4.6 0 014.1-1c4.5 1 4 6.6 2.1 9.6-.6 1 1 2 1.7 1 2.1-3.4 2.6-8.6-.8-11.4a6.6 6.6 0 00-9 1c-1.4 1.8-.5 3.5-.9 5.5-.6 3.5-5.5.3-7.7 1-4.1 1.5-2.9 6.8.8 7.7 1.4.3 1.9-1.6.7-2z"/><path d="M524 364a3.9 3.9 0 014.5-.3 1 1 0 001.4-1 2.4 2.4 0 01.5-3.2c.5-2 1.5-2 3-.4.5.9 1.7.4 1.8-.5a17.2 17.2 0 01.2-2.6c.2-2 1.6-2.6 4-1.6.5 1.1 2 .1 1.6-1a3.5 3.5 0 00-4.6-1.7c-2.7 1-3 4.3-3.1 6.8l1.8-.5a3.8 3.8 0 00-5.2-1.6c-2.5 1.2-2.6 4.3-2 6.7l1.5-1.1a6.1 6.1 0 00-6.4.2c-1 .8 0 2.5 1 1.8z" fill="#ec615b"/><path class="cls-2" d="M473.8 96.3a9 9 0 00-6.4 7.7c-.4 3.5 1.7 7.8 5.5 8.2 2.9.2 5.7-3 4-5.6-2-3-5.5-.8-7 1.3-4.2 6-.5 17.7 8.2 15 2.4-.8 5.3-3.7 4-6.5-1.7-3.4-5.5.3-6.4 2.2-2 4-2.5 9.8 1.6 12.6a5.7 5.7 0 008.7-3c.3-.8-1-1.7-1.6-1a8.2 8.2 0 006.2 13.6c1.2.1 1.2-1.8 0-1.9a6.2 6.2 0 01-4.8-10.3l-1.6-1c-1 3.7-5.5 3.1-7.3.4-1.5-2.5-1-6 .4-8.4.3-.7 2-3.7 3.1-1.8.5 1-1.4 2.5-2 3a5.2 5.2 0 01-6.3-1 8.6 8.6 0 01-2-6.5 10.1 10.1 0 011-3.7l1-1.2c1.6-1.5 1.5-1-.3 1.5-1.3 0-2.4-3.5-2.5-4.3a7.5 7.5 0 01.3-2.5 7 7 0 014.8-4.9 1 1 0 00-.6-2z"/><path class="cls-5" d="M126.2 135.8a4 4 0 01.9-4.3c1.3-1.4 2.8-1.2 4.4-.9a4.2 4.2 0 003.2-.3 5.3 5.3 0 001.8-2.3 11 11 0 00.6-2l.2-1.3c.2-1.5 1.3-2.2 3.3-2-.1 1.2 1.5 1.3 1.8.3a7.4 7.4 0 012.6-4c2-1.3 4.8-1 5.2 1.7.2 1.3 2 .7 1.9-.5a4.8 4.8 0 00-5.6-4c-3.2.5-5 3.5-5.9 6.3l1.9.2a3 3 0 00-3.6-2.9c-3 .4-3.1 3.9-3.8 6.1-.4 1.6-.8 2.9-3 2.8-.7 0-1.5-.5-2.2-.5a6 6 0 00-3.4 1.2 6.1 6.1 0 00-2.2 6.9c.4 1.2 2.2.7 1.9-.5z"/><path class="cls-6" d="M488 198.5c4.6 0 8.3-4 8.3-9s-3.7-9-8.4-9-8.4 4-8.4 9 3.8 9 8.4 9zM33.5 200.5a5.5 5.5 0 10-5.6-5.5 5.5 5.5 0 005.6 5.5zM115.7 434.4a5 5 0 10-4.6-5 4.9 4.9 0 004.6 5z"/><path class="cls-7" d="M478.2 209.6a9.3 9.3 0 10-9.8-9.2 9.5 9.5 0 009.8 9.2zM285 11.1c2.7 0 5-2.5 5-5.5S287.7 0 285 0a5.3 5.3 0 00-5 5.6 5.3 5.3 0 005 5.5zM558.1 307.4c3.9 0 7-3.5 7-7.8s-3.1-7.8-7-7.8-7 3.5-7 7.8 3.1 7.8 7 7.8zM14 267.3a14.3 14.3 0 000-28.6 14.3 14.3 0 000 28.6z"/><path class="cls-8" d="M162.3 410l3 193.4 245.4 55.4-.5-223.8-247.9-25zM590.8 393l-1 213.3-178.6 52.5-.6-226.2L590.8 393z"/><path class="cls-8" d="M408.6 434.4L163.4 409 325 367.9l264.2 25.5q-90.3 20.4-180.5 41z"/><path class="cls-9" d="M468.4 381.8l-63-4.3-124 45.4q-.5 102.9-1.2 205.7L336 642l-2.4-213q67.4-23.4 134.9-47.1z"/><path class="cls-9" d="M486.5 636l51.4-15.8-1.8-213-251.7-29.7-43.5 11 246.2 38q-.2 104.8-.6 209.4z"/><path class="cls-8" d="M490.8 285.5c6 2.5 7 17.8 3.7 29.9-12.4 46-92.7 64.7-96.5 57.7-1.7-3 12.2-8.8 41.3-37.6 32-31.8 43.7-53.1 51.5-50zM325.5 315.8c1.6 7.3 5.4 15.8 29.9 39.3 16.4 15.8 24.7 23.7 27 22.1 4.7-3.2-11-34.3-25.8-56.5-7.6-11.3-21-31.2-27.8-28.6-4.8 1.8-5.2 14.6-3.3 23.7z"/><path class="cls-9" d="M387.2 404.2c9.5 0 17.2-8.1 17.2-18.1s-7.7-18.2-17.2-18.2S370 376 370 386.1s7.7 18.1 17.2 18.1z"/><path class="cls-9" d="M387.5 378.7a961.5 961.5 0 0088-98.6c3.8-.4 11.2-.9 14.3 3.3 4.5 6-2.7 18-6 23.6-17.1 28.5-71.6 58.8-96.3 71.7zM329.5 291.1c2.3-2.2 9.8 2.3 14.2 5 36.4 21.8 40.9 73.7 41.6 83.1-29.7-38.4-61.9-82.4-55.8-88z"/><path class="cls-2" d="M175.8 445c29.5.5 59.1.3 88.5 1.7 29.7 1.4 59.2 5.5 88.5 10.6 16.6 2.9 33.1 6 49.7 9.3 1.2.3 1.7-1.6.5-1.9-29-5.6-58-11.2-87.2-15.1-29.6-4-59.2-5.2-89-5.8l-50.9-.8a1 1 0 000 2zM427 465.6A1160.3 1160.3 0 01578 431c1.2-.1.7-2-.5-1.8a1166 1166 0 00-151.1 34.6 1 1 0 00.5 1.8zM338 554.6v58.7a1 1 0 002 0v-58.7a1 1 0 00-2 0zM344.4 601.6v29.3a1 1 0 002 0v-29.3a1 1 0 00-2 0zM478.2 504.8v46.9a1 1 0 001.9 0v-47a1 1 0 00-2 0zM481.6 569.9v31.6a1 1 0 002 0V570a1 1 0 00-2 0zM245.4 502.3v25.4a1 1 0 002 0v-25.4a1 1 0 00-2 0zM240 534.5v20.6a1 1 0 002 0v-20.6a1 1 0 00-2 0z"/><path class="cls-10" d="M586.7 606l-175.3 53.4V437l176.2-40.3-1 209.4z"/><path class="cls-10" d="M590.5 606.9l-178.4 48.9-1.3-194.8 79 72.4L590 500.2q.4 53.3.6 106.7z"/><path class="cls-11" d="M493.7 288.9c-3.1-.7-6.5 21.1-17.5 39-10 16.2-30 35.2-74 46.2a128 128 0 0024.5-4.7c10.5-3 55-16 66.7-50.6 4.7-14.4 3-29.4.3-30z"/><path class="cls-12" d="M334.2 427.3l56 38-51.4-8.8a858 858 0 0010.1 115.2c4.3 27.6 9.7 53.2 15.6 76.7l-27.4-7.6-3-213.5z"/><path class="cls-13" d="M338.7 427.9q41.2-6 82.5-11.8l-36.3-4.8c-8.3 3-15.2 5.2-20 6.6a145 145 0 00-14 4.5 113.2 113.2 0 00-12.2 5.5z"/><path class="cls-8" d="M233.4 76.1c.2 5.3.7 12.9 1.5 22 2 22.7 3.3 42.3 8.5 57.8 4 11.7 13.3 33.6 36.6 55.6a70.1 70.1 0 01-20.8 32.4 157.3 157.3 0 01-34.5-49.3c-13-29.6-13.3-56.6-13.6-76.6a255.8 255.8 0 012.6-39.6l-10.3-9.7C195.2 61.4 192 59 192.7 58s3.8-.8 17.7 4.2c-12-15.5-17.4-23.7-16-25s7.6 3.6 19.4 14c-8.8-21.9-10.2-28.4-9-29s5.6 4.7 18.3 25.7c-2-17-1.4-20.8-.3-21 1.8-.4 5.8 10.1 7 13.3a105.6 105.6 0 015 17.6c10.9-8.6 13-7.8 13.6-7.3 1.9 1.7-3.1 10.2-4.3 12.4A55.7 55.7 0 01233.4 76z"/><path d="M205.3 23.1c-1 .6 3 11.5 8.3 20.7 1.5 2.5 2.4 3.8 10.2 15.5l7.5 11.3a192 192 0 00-5.4 37.4c-.4 10.8-1.1 32 6.4 57.5a163 163 0 0032.6 59.7l15-13.4a140.7 140.7 0 01-35.2-52.8c-6.2-16.7-7.9-32.7-9.3-46.7a286 286 0 01-1.7-35.8 43 43 0 0011.8-14.1c.8-1.6 5-9.8 3-11.6s-10.6 4.3-14 7C227 32.7 224 27 222.7 27.3c-.7 0-1 2.2-1.2 5.5a41.3 41.3 0 001.8 15.6l-18-25.4z" style="isolation:isolate" opacity=".1" fill="#666"/><path class="cls-12" d="M246.7 56.7a32 32 0 00-18.3 25.2 150.8 150.8 0 00.1 30.5c4 39.9 22.8 69 34.8 84.6a207 207 0 01-29.7-121.5 72.5 72.5 0 008.1-10.1 75.1 75.1 0 005-8.7z"/><path class="cls-8" d="M343.6 208.2c-4.5 2-8.3 3.5-10.5 7.6-4.3 8 1.5 18.5 2.9 21.2a35.6 35.6 0 0012.7 13.3 134.4 134.4 0 0047.9-34.8 141.9 141.9 0 0030.9-64.8 170.6 170.6 0 004-46.6A637 637 0 01445 81.6c5.1-8.3 8-12.7 6.9-13.8-.9-.9-4-.1-15.5 8 4.1-16 5.5-24.4 4-25s-5.4 6-12 19.7q1.4-28-1.4-28.3c-2-.3-5.5 9.8-10.6 30.3-3-14.1-5.3-21.1-6.7-21-1.7.2-2.2 10.2-1.7 30-9.7-5.3-15.3-7.3-16.7-5.7-1.8 2.3 4.4 11.2 18.9 27a109 109 0 01-2.1 27.1c-1.2 5.8-9.4 46.2-37.6 62.3-9.2 5.2-17.6 11.6-27 16z"/><path class="cls-15" d="M440.5 50.7c-1-.3-2.8 5.6-9.9 15.9-1.7 2.4-2.5 3.3-3.1 5.3-1.7 5.6 1.4 9.1 1.2 13.9-.1 3.3-1.8 8-9.9 13.7a93.4 93.4 0 013.3 20.1c1.8 33.3-15.7 57.7-21.7 67.8-5.8 9.6-23 34.6-64.8 49.9a17.6 17.6 0 005.5 9.6 16 16 0 006.6 3.6 130 130 0 0033-19.8 132.2 132.2 0 0033.7-42.5 160.2 160.2 0 0017-85.6l9.5-15c9-14.3 11.9-18.9 10.8-20-.6-.5-2.6-.3-8.8 4l-6.4 4c4.6-19.4 4.9-24.6 4-24.9z"/><path d="M443.1 84c-14.8 9.1-18.3 16.9-18.6 22.4-.2 2.2.2 2.8.7 8 0 0-.4 9.6-.3 21.5.2 17.1-6.8 32.5-15.4 51.3a233.4 233.4 0 01-21.2 36.9 146.1 146.1 0 0021.7-27.5 155.8 155.8 0 0020.9-91.7L443 84z" style="isolation:isolate" opacity=".3" fill="#666"/><path d="M391.2 76.9c14.5 7.4 18.5 8.6 19 8s-2-3.2-4.2-4.6a31 31 0 00-4.6-2.2c-4.4-2-5.6-2-6.4-2a7.8 7.8 0 00-3.8.8z" style="isolation:isolate" opacity=".1" fill="#666"/><path class="cls-9" d="M199 484.3c-.5 3.2 2.5 7 8.3 14.7a113 113 0 007.8 9.2c-3 5.3-8 16.5-5.5 30 .8 4.3 2.1 11.4 6 12.3 6.7 1.7 16.7-16.6 20.7-25.3a94.3 94.3 0 007.3-24.9l-20.2-27.1c-13.3 1.2-23.5 5.4-24.4 11.1z"/><path class="cls-5" d="M278.1 346.2c4.3 32.1-2.3 44.8-9.7 50.2-6.7 5-13.4 3.3-29.3 7.9a122.2 122.2 0 00-31.6 14.4 96.3 96.3 0 0026.6 54 34.4 34.4 0 01-17.3 16.7 34 34 0 01-20.5 1.8 115.2 115.2 0 01-33.4-53.5 65 65 0 01-1.2-39.8c3.3-9.6 8.4-15 18.7-25.9 3.3-3.5 18-18.7 44-32.6 15.2-8 22.8-12.1 32-10.2 11.5 2.4 18.7 12.2 21.8 17z"/><path class="cls-10" d="M263 344.3c-10.5 6.3-25 15.5-41.8 27.6-29 21-42.4 32.1-47.2 43.8-4.7 11.3-1.4 32 40.6 73a25.6 25.6 0 009.4-4 26.4 26.4 0 009.4-11.7 98 98 0 01-26.6-54 89.5 89.5 0 0133.1-14.8c12.5-2.6 22.7-1.6 30.4-9.6 4-4 5.5-8.7 7-13a52.6 52.6 0 001.3-28l-15.6-9.3z"/><path class="cls-15" d="M259.1 353.4a96.8 96.8 0 01-6.8 19.6 103 103 0 01-41 43.6 84.4 84.4 0 0121.3-10.3A634 634 0 01256 400c9-2.4 11.6-3 14.3-5.6 1.7-1.6 4.3-4.7 6.4-16.2A104.2 104.2 0 00278 353z"/><path class="cls-18" d="M206.9 417.3a85.8 85.8 0 0014.5 68.5 29 29 0 007.3-6 29.9 29.9 0 004.6-7 95.3 95.3 0 01-26.4-55.5z"/><path class="cls-9" d="M244 481l13 18c-2.4 6.2-8.3 24.4.4 38.7 1.5 2.5 4.1 6.9 7.8 7 7.8 0 13.6-19.3 14.7-23a75.5 75.5 0 002.8-29c-2.9-18.7-16.4-28.8-25.8-26.8-8.5 1.9-12.4 13.9-12.8 15.2z"/><path class="cls-5" d="M324 344c5.5 34.7-5.7 46.7-9.8 50.3-3.8 3.3-7.5 4.6-28 11.4l-32.9 10.9a96.3 96.3 0 0026.6 54 33.6 33.6 0 01-37.8 18.5 115.2 115.2 0 01-33.4-53.5 65 65 0 01-1.2-39.8c3.3-9.6 8.4-15 18.7-26 3.3-3.5 18-18.7 44-32.5 15.1-8 22.8-12.1 32-10.3 11.7 2.5 18.8 12.2 21.8 17z"/><path class="cls-10" d="M281.5 342.6a102.5 102.5 0 01-13.9 27.7c-19.3 27-41 28.6-47.2 43.8-4.6 11.3-1.3 32 40.7 73a40.9 40.9 0 009.1-5.1 39.7 39.7 0 009.7-10.5 103.7 103.7 0 01-15.4-20.8 105.2 105.2 0 01-12-34.1c14.7-5 26.5-8.7 34.4-11.1 15.8-4.8 23.8-6.9 30.1-14.8a40 40 0 006.6-13.7 54 54 0 001.4-25c-14.5-3-29-6.2-43.5-9.4z"/><path class="cls-15" d="M305.6 351.7a90.2 90.2 0 01-6.9 19.6 101.1 101.1 0 01-48.1 45.7 7016 7016 0 0030.2-9.6l15.8-5.5c14.4-5.2 16.8-6.5 19.3-9 4.3-4.3 5.5-9.2 7.2-16.4a70.6 70.6 0 001.4-25.1l-19 .3z"/><path class="cls-18" d="M253.3 415.7a85.8 85.8 0 0014.5 68.5 29 29 0 007.3-6 30.1 30.1 0 004.6-7 94.8 94.8 0 01-15.4-20.8 96 96 0 01-11-34.7z"/><path class="cls-8" d="M278.3 207.3a65 65 0 00-19.9 26.9 68.7 68.7 0 00-4.3 17 75.6 75.6 0 00.8 23.8 86.3 86.3 0 01-18.2 58.3 116 116 0 0046 21.4A114 114 0 00325 356a464 464 0 0015.5-53.5 477.6 477.6 0 008.7-52 31 31 0 01-15-15c-.3-.7-6.2-14.7.3-23 4-5 9.5-4.5 9.5-6 0-4.1-39.4-18.7-65.7.8z"/><path class="cls-13" d="M295.5 200.5a34.1 34.1 0 00-1.7 12 45 45 0 00.8 9c0 5.7 6.2 34.2 1.9 61.2-5 31-21.7 54.9-29.9 65.3a98.7 98.7 0 0028.7 8.3 100 100 0 0029.6-.7c4.7-13.4 9-28 13-44a480 480 0 0010.6-60.3 37 37 0 01-16.6-22.7c-.7-3.8-2-10.1 1.8-15.8a18 18 0 0110.9-7.2c-25.2-9.5-45.6-11.5-49-5.1z"/><path class="cls-18" d="M332 233a151.4 151.4 0 01-2.5 40.8c-8 40.9-31 68.2-43.4 80.9a82.3 82.3 0 0038.7.6 393.8 393.8 0 0021.4-83.2c1-7.2 1.9-14.3 2.5-21.2a43.4 43.4 0 01-10.5-8.7 43.9 43.9 0 01-6.2-9.3z"/><path class="cls-11" d="M288 209.8a18.7 18.7 0 0016 10c10.6.2 19-8.8 17.8-12-.9-2.1-7.3-3.4-33.8 2z"/><path class="cls-19" d="M270.1 125.7c-2-.2-4 11-8.4 28.1-7 27-11.2 34-6.8 43.4.8 1.6 3.9 8 10.6 10.6 7.2 2.8 17.4 1 22.4-5.1 11.3-13.9-11-42.7-15.8-72-.3-1.3-.8-4.9-2-5z"/><path class="cls-8" d="M288.6 193.3a28.1 28.1 0 01.7 10.5 30.1 30.1 0 01-1.7 6.7 38.5 38.5 0 0012.1 1.4 36.8 36.8 0 0013.5-3.4 62.6 62.6 0 01-2.7-7 67.2 67.2 0 01-2.7-12.6 16.5 16.5 0 01-9.1 5.4 16.8 16.8 0 01-10-1z"/><path class="cls-8" d="M270.7 133.1a59 59 0 006.9 56 43.6 43.6 0 005.2 5.6 52.3 52.3 0 0019.9-1.9 29.7 29.7 0 009-3.8c7.1-4.8 10-11.9 11.1-15.3a6.8 6.8 0 004.8 1.8c5.8-.4 11.8-11.2 8.3-18.4-2-4-6.1-5.6-7.8-6-1.3-5.2-6-21-20.9-29.8-3.8-2.3-15.2-9-25-4.4-6.4 3-9 9.6-11.5 16.2z"/><path class="cls-2" d="M290.4 197.2a3.1 3.1 0 00-.7.2 1 1 0 00.3 1.9c5.3.5 12-3 16.3-6 1-.7 0-2.3-1-1.6-4 2.7-10.3 6.1-15.4 5.7l.3 1.8a3.1 3.1 0 00.7-.2c1.1-.4.6-2.3-.5-1.8z"/><path class="cls-2" d="M290.6 198a51.7 51.7 0 0012-3.2c1.2-.4.7-2.3-.5-1.8a53 53 0 01-12.1 3.2c-1.2.2-.7 2 .6 1.9z"/><path class="cls-2" d="M290.8 197a12.2 12.2 0 004.3-.3 1 1 0 00-.5-1.9 10.6 10.6 0 01-3.8.3c-1.2-.1-1.2 1.8 0 1.9zM302.8 164a1 1 0 000-2 1 1 0 000 2zM308.8 163v-.1a1 1 0 00-2 0v.1a1 1 0 001 1 1 1 0 001-1zM305.7 167.7a1 1 0 000-2 1 1 0 000 2zM272.6 159.6a1 1 0 000-2 1 1 0 000 2zM277.2 158.1a1 1 0 000-1.9 1 1 0 000 2zM276 162.7a1 1 0 000-2 1 1 0 000 2z"/><path class="cls-19" d="M267.4 145.3a21.6 21.6 0 01-4.3-13 22 22 0 012.4-9.6c3-6 7.4-9.2 11-11.7 3.3-2.4 9.6-6.8 18.5-7.6a40.9 40.9 0 0127 8.7 55.4 55.4 0 0118.6 20.2c2 3.9 3 7.2 4.6 12.3 1.8 5.5 1.8 7 4.7 19.9 2.8 12.6 3.2 13 3 15.8-.8 9.5-7 15.9-8 17-8.6 8.7-19.8 8.3-23.6 8.1-5.2-.1-7.4-1.6-8.2-2.2-5.1-3.6-5.5-10.5-5.5-12a28.5 28.5 0 007.1-5.7 28.9 28.9 0 006.8-14.2c5 1.5 10-.4 12-4 3-5.3-1.1-13-5.7-13.7-.7-.1-2.7-.2-5.2 2a63.3 63.3 0 00-12.3-18.6 64.6 64.6 0 00-21.8-15 37.8 37.8 0 00-11.4 7.6 35.7 35.7 0 00-9.7 15.7z"/><path class="cls-11" d="M305.6 132a42.4 42.4 0 016.5 23c-.4 25-24.3 39-25.8 39.7 1.5.2 16.7 2.6 27.2-8.1a29.3 29.3 0 007.7-15.3 10.6 10.6 0 006.4.1c.8-.2 4.9-1.4 6.2-5.3a8.6 8.6 0 00.4-4.2 10 10 0 00-2.3-6 6.9 6.9 0 00-3.6-2.5c-3-.5-5.2 1.6-5.5 1.9a63 63 0 00-7.1-12.6 75 75 0 00-10.1-10.7z"/><path class="cls-20" d="M303.5 211l-5.7-16.5 9.6-3.2 5.1 17.2-9 2.6z"/><path class="cls-10" d="M322 168.4a44.9 44.9 0 01-31.9 26c2 .1 13.2 1 21.6-6a30.1 30.1 0 007-8.7 39 39 0 002.3-6.2 47.6 47.6 0 001-5z"/><path class="cls-20" d="M307.8 210.3l-5.6-17.1 4.9-1.6 5.3 17-4.6 1.7z"/><path class="cls-2" d="M288.6 145.5c-1.7 7-3.2 14-4.3 21-.2 1.1-.6 2.5.6 3.1 1.5.8 4.9-.3 6.4-.6 1.2-.3.7-2.1-.6-1.9a14 14 0 01-3.8.7c-1.3-.2-1 .1-.6-1.4.5-2.2.8-4.6 1.2-6.8l3-13.5a1 1 0 00-1.9-.6zM272.4 152.1a6.4 6.4 0 019.5-.2c.6.7 1.7-.3 1-1a7.8 7.8 0 00-11.6.2c-.5.7.5 1.7 1 1zM299 152.8a7.4 7.4 0 0110.2 2.3c.5.8 1.8 0 1.2-.7a8.8 8.8 0 00-12.2-2.8c-.8.5 0 1.8.8 1.2zM276.4 141a7.3 7.3 0 017.2.1c.8.5 1.5-.7.7-1.2a8.8 8.8 0 00-8.7-.1c-.8.3 0 1.6.8 1.2zM299.7 141.3a11.4 11.4 0 018.8 2.2c.7.6 1.4-.7.7-1.2a13.1 13.1 0 00-9.9-2.4c-.9.2-.5 1.6.4 1.4zM279.1 177.2a21.1 21.1 0 0020.2-4.3c.8-.6-.3-1.6-1-1a19.5 19.5 0 01-18.8 4c-.9-.4-1.3 1-.4 1.3z"/><rect class="cls-22" x="441" y="225" width="441.4" height="573.8" rx="11.8"/><path d="M715 319.6a53.3 53.3 0 11-53.3-53.3 53.3 53.3 0 0153.3 53.3zm-59.5 28.2l39.6-39.6a3.4 3.4 0 000-4.8l-4.9-4.9a3.4 3.4 0 00-4.8 0L653 330.8l-15-15.1a3.4 3.4 0 00-5 0l-4.8 4.9a3.4 3.4 0 000 4.8l22.4 22.4a3.4 3.4 0 004.8 0z" fill="#21b186"/><text transform="translate(579.9 410.7)" style="isolation:isolate" font-family="Lato-Bold,Lato" font-weight="700" font-size="23.1">Cong<tspan x="53.6" y="0" letter-spacing="0em">r</tspan><tspan x="62.7" y="0">atulations</tspan></text><text transform="translate(522.2 456.3)" style="isolation:isolate" font-size="29.7" font-family="Lato-Bold,Lato" font-weight="700"><tspan letter-spacing="-.1em">Y</tspan><tspan x="17" y="0">ou H</tspan><tspan x="78.9" y="0" letter-spacing="0em">a</tspan><tspan x="93.9" y="0" letter-spacing="0em">v</tspan><tspan x="109.3" y="0">e </tspan><tspan x="130.8" y="0" letter-spacing="0em">W</tspan><tspan x="161.3" y="0" letter-spacing="0">on 500</tspan><tspan x="252.3" y="0" letter-spacing="-.1em">/</tspan><tspan x="262.1" y="0">-</tspan></text><path class="cls-2" d="M571.5 721.4c13 0 25.1 5.5 38 7.3 12.3 1.7 24.6-1.2 36.8-3a91.2 91.2 0 0118.6-1.5A51 51 0 01683 729c5.3 2.4 10.5 5.1 16.1 6.7a36 36 0 0016.3.7c12.9-2.3 24.7-9.3 38-9.2a.3.3 0 000-.7c-11.7 0-22.3 5.2-33.3 8.1-5.7 1.5-11.6 2.3-17.5 1.3s-11.4-3.8-16.8-6.4-10.8-4.6-16.7-5.4a68.2 68.2 0 00-18.3.3c-12.3 1.6-24.5 5-37 4.2-14.4-.9-27.8-7.7-42.4-7.7a.3.3 0 100 .6zM553.5 724a39.3 39.3 0 018.2-2c.5-.1.3-.8-.2-.7a37.1 37.1 0 00-8.1 2.1c-.4.2-.3.8.1.7zM548.8 729.9c15-6.6 31 .8 45.7 4.6a66.1 66.1 0 0013.1 2.2c.5 0 .5-.6 0-.7-16.1-.8-30.8-9.8-47.1-9.3a32.5 32.5 0 00-12 2.6c-.5.2-.1.8.3.6zM618 742.2a58 58 0 0010-2.8 86 86 0 0110-2.7 77.3 77.3 0 0133.2.5c.4 0 .6-.6.2-.7a78.7 78.7 0 00-42 1.8c-3.8 1.2-7.5 2.7-11.5 3.3-.4 0-.3.7.2.6zM698.2 743.1c4.6 2.4 10 2.5 15 1.8a113.3 113.3 0 0017.3-4c11.4-3.4 22.7-7.5 34.6-8.2a46 46 0 0119.3 2.6c.4.1.5-.5.1-.7-22.5-8.6-45.3 4.6-67.1 9-6.2 1.1-13 2-18.9-1-.4-.3-.7.3-.3.5zM766.8 727.3a33.5 33.5 0 0114.7 3c.4.2.7-.4.3-.6a34.4 34.4 0 00-15-3 .3.3 0 100 .6z"/><path class="cls-3" d="M580.4 504.7a108.8 108.8 0 01-20.6 62.4c-.3.3.3.7.6.3a110.2 110.2 0 0019.5-48.1 111.3 111.3 0 001.2-14.6c0-.4-.7-.4-.7 0zM583.2 505.5a50.1 50.1 0 0036.9 6 47.8 47.8 0 0010.2-3.6c.3-.1 0-.7-.4-.5a49.6 49.6 0 01-36.6 2 47.1 47.1 0 01-9.7-4.4c-.4-.4-.8.2-.4.5zM635.8 507.7a37.4 37.4 0 0020.9 15.7c10.3 3.1 21.4 1 31.5-1.6a56.7 56.7 0 0016.1-6.8c.4-.2 0-.8-.3-.6a54.5 54.5 0 01-14 6.2 99.9 99.9 0 01-15.8 3.3 43.5 43.5 0 01-15.3-.6 37.2 37.2 0 01-12-5.2 36.2 36.2 0 01-10.5-10.7c-.2-.4-.8 0-.6.3zM707 515.4a116 116 0 00-2.4 26.2c.4 7.2 2.3 14.6 8.1 19.2 3.5 2.8 7.7 4.3 11.9 5.8.4.2.6-.5.2-.6-3.7-1.4-7.4-2.7-10.6-5a19 19 0 01-6.8-8.5 47.6 47.6 0 01-1.8-21.6c.4-5.1 1.1-10.2 2-15.3 0-.4-.6-.6-.6-.2zM561.5 571.2a64.2 64.2 0 0141.9 26 58.9 58.9 0 016.7 12.4c.2.4.8.3.7-.1a64 64 0 00-35-35 62.6 62.6 0 00-14.1-4c-.5 0-.6.7-.2.7zM614.5 610.2a36.7 36.7 0 0128-6.2 66.5 66.5 0 0128.1 12.4c5 3.6 9.9 7.6 14.7 11.5.3.3.8-.2.5-.4a137.2 137.2 0 00-27.7-19.3 49.4 49.4 0 00-29.5-4.8 33 33 0 00-14.6 6.3c-.4.3.1.8.5.5zM685 623.8a69.3 69.3 0 0128.4-41 68.6 68.6 0 0112.8-7c.4 0 .2-.7-.2-.6a71.1 71.1 0 00-36.8 34.7 67 67 0 00-4.8 13.7c-.1.4.6.6.6.2z"/><path class="cls-2" d="M584.2 584c3.4 1.4 5.9 4.3 8.3 7a83 83 0 016.9 8.7A79.8 79.8 0 01609 619c.1.4.8.2.7-.2a82 82 0 00-10-19.8 83.4 83.4 0 00-6.7-8.6c-2.5-2.7-5-5.6-8.4-7-.4-.2-.8.4-.4.6zM635 511.3a29 29 0 0016.2 12.4c.4.1.6-.5.2-.7a28.2 28.2 0 01-15.7-12c-.3-.4-.8 0-.6.3zM580.8 500a31 31 0 0024.6 4.4c.4-.1.3-.7-.2-.6a30.4 30.4 0 01-24-4.4c-.4-.3-.7.3-.4.6zM557.1 562.7a69.3 69.3 0 009.3-13c.2-.4-.4-.7-.6-.4a68.7 68.7 0 01-9.1 12.9c-.3.3.1.8.4.5zM578.8 536.4c-.3 3.2-2 6.2-3.3 9l-4 8.8c-.3.3.3.7.5.3l4.5-9.5c1.3-2.8 2.7-5.6 3-8.6 0-.4-.6-.4-.7 0zM682.9 612a61.7 61.7 0 0116.4-23.7c.3-.2-.1-.7-.5-.4a62.4 62.4 0 00-16.6 24c-.1.3.5.5.7.1z"/><path class="cls-33" d="M577.7 509.5l-1.1 7.2c0 .4.6.6.6.1l1.2-7.2c0-.4-.6-.6-.7-.1zM635 501.8a53.7 53.7 0 0017.5 13.8c.4.2.7-.4.3-.6a53.3 53.3 0 01-17.4-13.6c-.3-.4-.8.1-.5.4zM674.5 528a34.4 34.4 0 0016.3-3.3c.4-.2 0-.8-.3-.6a33.8 33.8 0 01-16 3.1c-.5 0-.4.7 0 .7zM694.5 517.7a44.6 44.6 0 0012.7-9.4c.3-.3-.2-.7-.5-.4a44.2 44.2 0 01-12.6 9.2c-.4.2 0 .7.4.6zM615.8 605.9a25 25 0 0122.3-7.2c.4 0 .6-.6.2-.7a25.7 25.7 0 00-23 7.4c-.3.3.2.8.5.5z"/><path class="cls-34" d="M566 568.4a53.8 53.8 0 0113.6 4.8c.4.2.7-.4.3-.6a55.3 55.3 0 00-13.7-4.8c-.4-.1-.6.5-.2.6zM583.6 513.9a49.4 49.4 0 01.2 7.9c0 .4.6.4.6 0a51.8 51.8 0 00-.1-8c0-.3-.8-.3-.7 0zM670.9 604a26.7 26.7 0 0112.1-11.8c.4-.2 0-.7-.3-.6a27.2 27.2 0 00-12.4 12c-.2.4.4.8.6.4z"/><path class="cls-33" d="M656.9 555.7a10.4 10.4 0 016.6-1.8c.5 0 .5-.7 0-.7a11 11 0 00-7 2c-.3.2 0 .8.4.5zM662.3 549.7a34.2 34.2 0 015.7 1.7c.4.2.6-.5.2-.7a34.2 34.2 0 00-5.7-1.7c-.4 0-.6.6-.2.7zM613.6 532.4a16.5 16.5 0 014.6-8.2.3.3 0 00-.5-.4 17 17 0 00-4.7 8.4.3.3 0 00.6.2zM618.5 533.1a34.8 34.8 0 0111.2-5.8c.4 0 .2-.7-.2-.6a35.4 35.4 0 00-11.4 6c-.4.3 0 .7.4.4z"/><path class="cls-34" d="M611.8 577.4a10.3 10.3 0 01.3 6.6.3.3 0 00.6.2 11 11 0 00-.3-7c-.1-.4-.8-.2-.6.2zM617.5 578.2a13.4 13.4 0 004.3 3.4c.4.2.7-.4.4-.6a12.3 12.3 0 01-4.2-3.3c-.3-.3-.8.1-.5.5zM690.4 573.8a4.8 4.8 0 011.2 4c0 .5.6.6.7.2a5.5 5.5 0 00-1.4-4.7c-.3-.3-.8.1-.5.5zM696 572.7l2.5 2.8c.3.4.7-.1.4-.5l-2.4-2.7c-.3-.4-.8 0-.5.4zM663.5 580.7a22.8 22.8 0 016.1-6.9c.3-.3 0-.8-.3-.6a24 24 0 00-6.3 7.2c-.2.4.3.7.5.3z"/><path d="M744.6 532.3a3.2 3.2 0 10-3.2-3.1 3.2 3.2 0 003.2 3.1z" fill="#444"/><path d="M750.6 539.5a2.7 2.7 0 10-2.7-2.6 2.7 2.7 0 002.7 2.6z" fill="#191919"/><path class="cls-22" d="M585.7 554.6l1.2 5.2a61 61 0 006.3 14.6 24.1 24.1 0 002.8.5 17.5 17.5 0 007.2-.3l3.6-1.5c3.2-1.3 3.3-1.2 4.5-1.8 2-.9 4-2.1 7.6-4.7l4.2-3a18 18 0 00.2-3 20.6 20.6 0 00-1-5.6l-2.1-6.9a26.3 26.3 0 00-2.8-1.6 28 28 0 00-9.3-2.6 32 32 0 00-6 1 36.5 36.5 0 00-12.9 6.8 35.7 35.7 0 00-3.5 3zM680.2 546.4a56.4 56.4 0 00-5.5 7l-2.4 3.9 4.1 6 9.2 3.6 8.8-9.1-2.3-7.4a43.3 43.3 0 00-5.2-2.2 47.4 47.4 0 00-6.7-1.8z"/><path class="cls-2" d="M585.5 554.8c.8 7.3 4 13.8 7.4 20.1.2.4.8 0 .6-.3a53 53 0 01-7.3-19.8c0-.4-.7-.4-.7 0z"/><path class="cls-2" d="M586.1 555a34.7 34.7 0 0121-10.9c.5 0 .5-.7 0-.7a35.5 35.5 0 00-21.5 11.1c-.2.4.3.8.5.5z"/><path class="cls-2" d="M607.2 544a59.1 59.1 0 017 18.1.3.3 0 00.6-.1 59.5 59.5 0 00-7-18.3c-.3-.4-.8 0-.6.3z"/><path class="cls-2" d="M593.7 574.9a62 62 0 0011.8-4.9 58 58 0 005.3-3.3c1.6-1.1 3.2-2.2 4-4 .2-.4-.3-.7-.5-.3-1 1.8-2.8 3-4.5 4.1l-5 3.1a62.5 62.5 0 01-11.3 4.7c-.4 0-.2.7.2.6zM607.5 544a22 22 0 0112.3 4.4c.4.2.7-.4.3-.6a22.6 22.6 0 00-12.6-4.4c-.4 0-.4.6 0 .7z"/><path class="cls-2" d="M619.8 548a37.5 37.5 0 013 14.9.3.3 0 00.8 0 38.4 38.4 0 00-3.3-15.2c-.1-.4-.7 0-.5.4z"/><path class="cls-2" d="M614.5 562.8c2.7 1.8 6 1.3 9 .5a.3.3 0 00-.1-.7c-2.9.8-6 1.3-8.6-.4a.3.3 0 00-.3.6zM593.3 575a20.3 20.3 0 0012-.9c.3-.1.1-.8-.3-.7a19.5 19.5 0 01-11.5 1c-.4-.1-.6.5-.2.6z"/><path class="cls-2" d="M605.4 574a61.7 61.7 0 0018.2-10.7c.4-.3-.1-.7-.5-.4a60.6 60.6 0 01-17.9 10.5c-.4.2-.2.8.2.6zM679.7 546.4a92.6 92.6 0 00-7.8 10.6c-.2.4.4.7.6.3a95.2 95.2 0 017.7-10.5c.2-.3-.2-.8-.5-.4z"/><path class="cls-2" d="M680 547a38.3 38.3 0 0111.5 3.7c.4.2.7-.4.3-.6a39 39 0 00-11.6-3.8c-.5 0-.6.6-.2.6zM672 557.7c3.4 1.6 6.9 3.2 10.3 5 .4.2.7-.4.3-.6l-10.3-5c-.4-.1-.8.4-.4.6z"/><path class="cls-2" d="M691.7 550.4q-4.5 6-8.8 12.2a4 4 0 01.5 0l-.8-.5a.3.3 0 00-.3.6l.8.4a.4.4 0 00.4-.1c2.8-4.1 5.7-8.2 8.8-12.2.2-.4-.4-.7-.6-.4z"/><path class="cls-2" d="M691.6 550.8a36.3 36.3 0 012.2 7.3c.1.4.8.2.7-.2a36 36 0 00-2.3-7.4c-.2-.4-.8 0-.6.3zM683.2 563.1a24.9 24.9 0 012.3 3.7c.2.4.7 0 .5-.3a25.7 25.7 0 00-2.3-3.7c-.2-.3-.8 0-.5.4z"/><path class="cls-2" d="M686 566.8a107.8 107.8 0 008.3-8.5c.3-.3-.2-.8-.5-.5a104.5 104.5 0 01-8.2 8.5c-.3.3.1.8.4.5zM672 557.9l4.3 5.6c.3.3.8 0 .6-.3l-4.3-5.7c-.3-.3-.9 0-.6.4z"/><path class="cls-2" d="M676.4 563.7l9 3.4c.4.2.6-.4.2-.6l-9-3.4c-.4-.2-.6.5-.2.6z"/><path class="cls-37" d="M592.6 548.8l8.5 22.6 6.4 1.8 4.8-2.2-5.5-2.4-8.7-22.8-2.5 1.2a28.2 28.2 0 00-3 1.8z"/><path class="cls-37" d="M613 544.4a40.3 40.3 0 014.7 13.7 39 39 0 01.3 5.3 86.4 86.4 0 01-13 8.3 90.8 90.8 0 01-8.4 3.7h4.4a92.2 92.2 0 0010.2-5 87.7 87.7 0 0010.2-6.8l-1.8-8.2-2-9a7.4 7.4 0 00-2-1.4 7.6 7.6 0 00-2.6-.6zM595.3 547.1c-.5-.4.1-2.8 2-3.6a4 4 0 014.3 1.2 27.1 27.1 0 00-3 1c-2.3 1-3 1.7-3.3 1.4z"/><path class="cls-37" d="M598.4 544.8a14.2 14.2 0 003.9-3.7 13.4 13.4 0 002.4-7.9c.4-.1 2.6-.8 3.9.3 1.7 1.5.1 5-.2 5.8a9.3 9.3 0 01-3.1 3.7 10.3 10.3 0 01-7 1.8zM587 538.8c1-.2 1.7 1.8 4 3.8a14.5 14.5 0 006.2 3 8.6 8.6 0 01-4.2 1.7c-2.9.4-6.8-.7-7.8-3.5-.6-2 .5-4.8 1.7-5z"/><path class="cls-38" d="M684.3 547.3l-8.7 11.5 3.1 5.7 2.7 1-2-4.7 7.8-12.6-2.9-1z"/><path class="cls-38" d="M693 553.5l-8.8 9.8-10.3-3 1.7 2.3 9.7 3.2 8.4-9.5-.6-2.8zM687.2 548c.1-.4 1.8-.9 2.9 0 .7.5 1.1 1.6.8 1.9-.6.6-3.9-1.1-3.7-1.8z"/><path class="cls-38" d="M685.4 540.9c.5-.3 1.5.5 1.8.8a6.4 6.4 0 011.8 3.5c.4 1.2.9 3 .4 3.3s-2.4-1.6-3.3-3.5c-.8-1.6-1.3-3.8-.7-4.1zM698.4 548.8c0-.5-1.2-1-1.5-1a7.2 7.2 0 00-4 0c-1.3.3-3.1.7-3.2 1.2s2.5 1.3 4.7 1.2c1.7-.1 4-.7 4-1.4z"/><path class="cls-39" d="M593.5 574.8l5.6-2.2a51.8 51.8 0 009.8-4.9 35.3 35.3 0 005.9-5 29.5 29.5 0 003-9.6 30 30 0 000-6.6l2.5 1.4a45.5 45.5 0 012.2 7.6 46.9 46.9 0 01.9 7.8 67.6 67.6 0 01-6.2 4.7 42 42 0 01-14.3 6.9 21.6 21.6 0 01-3.9.5 20.5 20.5 0 01-5.5-.6zM672.4 557.4l4.3 6 8.9 3.5 8.5-9.2-2-7.2-8.8 11.9-11-5z"/><path d="M635.7 729.6c.9-1.1 1.4-1.6 1.6-1.5q.8.5-5.5 13.6c-10.3.5-15.5.2-15.7-.8s3.7-2.3 11.5-4.3l5.1-10.8 3 3.8z"/><path class="cls-40" d="M641 658.2a636 636 0 01-14.3 70.2 10.4 10.4 0 004.9 3 11.3 11.3 0 007-.4l15.1-53c6.7-7.3 5.4-16.7.3-20-3.4-2.3-8.5-2-13 .2z"/><path d="M641.2 658.6c.6 0 .2 10.1-.3 19.2a229.7 229.7 0 01-9.5 53.5 10 10 0 01-1.7-.6 9.4 9.4 0 01-3-2.3 422 422 0 005.4-21.2c6.4-28.2 8.2-48.7 9-48.6z" style="isolation:isolate" fill="#353535" opacity=".1"/><path class="cls-42" d="M637.4 682c-.5 6-1.2 12.2-2.2 18.7a270.1 270.1 0 01-6.2 29.4 3 3 0 01-1.1-.5 3 3 0 01-1-1.1l5.3-22.6 5.2-23.8z"/><path d="M678.5 729c-1-1.2-1.6-1.7-1.8-1.6q-.9.5 6 13.6c11.4.5 17 .2 17.2-.8s-4-2.3-12.6-4.3l-5.6-10.8-3.2 3.8z"/><path class="cls-40" d="M649.5 663.6a11.6 11.6 0 001.8 8.3l22 59.3a14.8 14.8 0 006.9-.7 13.8 13.8 0 006-4.3 186.2 186.2 0 01-8.8-22.6c-4.4-14-10.4-27.5-14.7-41.6-.7-2.3-1.9-6.4-4.6-7-3.2-.5-7.6 3.9-8.6 8.6z"/><path class="cls-43" d="M656.4 655.2c-1.5 1.1 1.3 7 2.7 10 3.3 7.3 5 15 8.1 22.3 3.4 7.8 8.4 20.5 15.5 41.7a8.7 8.7 0 003.5-3c-1.8-3.8-4.4-9.6-7-16.9-1-2.5-1.1-3-2.2-6.2-1-3.4-2.8-8.6-3.2-9.7-1.7-4.8-1.7-4.2-4.8-12.7a273.8 273.8 0 01-4-11.4c0-.2-1.4-4.7-3.5-10.2-.6-1.4-1.1-2.8-2.6-3.6 0 0-1.7-.9-2.5-.3z"/><path d="M667.3 676s2.9 9.4 17.2 52l1.8-1.7c-.9-2-2.3-5-3.8-8.9-3.6-8.8-5.2-14-9.2-25.2-2.2-6.3-5.8-16.2-6-16.2z" style="isolation:isolate" opacity=".1" fill="#353535"/><path class="cls-22" d="M673.7 592.7c-.6 0-1-1.5-1.5-1.5s-.7 1-.8 1.2c-.2.9 0 1.8.8 4.3l1.1 2.7a53.5 53.5 0 01-1.5 7 44 44 0 01-7.2 15.2 41 41 0 01-6.5 6.8 13.5 13.5 0 00-1 5.7c0 .7 0 4 1.3 4.4.8.2 1.8-1 2.3-1.6 5-6.4 7.5-9.5 8.5-11.3a61.8 61.8 0 005.9-12.8 54.2 54.2 0 002-9.5c.6-.8 1.3-2 2.1-3.5 2.3-4 3-5.9 3.6-7.9s.6-3.9 0-4-.8.5-1.2.3c-.7-.3 0-2.1-.7-2.5-.2-.2-.7-.2-1.7.5-.7-1.4-1.1-1.7-1.4-1.7-.6.1-1 1.8-1 3.6-.2-.9-.7-2.8-1.2-2.8s-1 1.4-1.1 2.5c-.2 1.6.2 2.7-.3 4.3l-.5.6z"/><path class="cls-2" d="M672.9 599.1a30.3 30.3 0 01-2 8.6 64 64 0 01-3 7.8 36.5 36.5 0 01-9.2 12.2c-.3.3.2.8.5.5a37.1 37.1 0 009.5-12.8 63.4 63.4 0 003-7.7 29.3 29.3 0 001.8-8.6c0-.4-.6-.4-.6 0zM676.9 603c-.6 7-3.7 13.7-6.9 20a41.9 41.9 0 01-11.5 15.2c-.3.3 0 .9.4.6 5.3-4 8.8-9.6 11.7-15.5a57.5 57.5 0 007-20.3c0-.4-.7-.4-.7 0z"/><path class="cls-2" d="M673.4 598.7a15.8 15.8 0 01-1.5-5.3V592c.6-.4.8.2 1 .5a2.2 2.2 0 00.8 1 .3.3 0 00.3-.5c-.8-.5-.7-1.7-1.6-2s-1 .3-1.2 1c-.5 2.3.6 5 1.6 7.1a.3.3 0 00.6-.4z"/><path class="cls-2" d="M674.2 593.4c.8-1.8.6-3.6.7-5.4 0-.4-.1-1.4.1-1.8.5-.5.8.6 1 1a11.2 11.2 0 01.2 3.7c0 .4.6.4.7 0 0-.9 0-6.8-2-5.8-.7.3-.7 2-.7 2.6 0 1.8.2 3.6-.6 5.3-.1.4.4.8.6.4z"/><path class="cls-2" d="M677 591l.3-2.5a12 12 0 01.2-2.8c.3-.8.4-1 .7-.3a4.7 4.7 0 01.4 1.6 7.8 7.8 0 010 3.2c-.2.4.5.6.6.2a9 9 0 000-3.9c0-.6-.4-2.3-1.3-2.3s-1 1.2-1.1 1.8l-.4 4.7c-.2.5.5.6.6.2z"/><path class="cls-2" d="M679.4 590.3a16.4 16.4 0 000-2c0-.7 0-2.3.8-2.2.6 0 .5.5.6 1v1a12.8 12.8 0 01-.2 2.5c-.1.4.5.6.6.1.2-1 1-5.6-1-5.6-1.8 0-1.3 4.2-1.5 5.2 0 .5.6.5.7 0z"/><path class="cls-2" d="M681.8 588.4h.8a5.7 5.7 0 010 .5 9.6 9.6 0 01.1 1.2 8.7 8.7 0 01-.3 2.2 17.9 17.9 0 01-1.6 3.9l-3.8 7c-.3.3.3.6.5.3l3.3-5.9a20.9 20.9 0 002.4-5.8c.2-1 .7-3.6-.5-4.4a1 1 0 00-1.6 1c0 .4.7.4.7 0z"/><path class="cls-45" d="M680.6 585.8c-.3 0-.4 1.5-.6 3.1-.4 3-.8 6.2-2.2 9a13.5 13.5 0 01-2.7 3.6 57.4 57.4 0 01-1.3 6.5c-1.3 4.7-3.1 11.4-8.3 17.6a35.5 35.5 0 01-6.8 6.3l-.3 6.6a36.3 36.3 0 005.5-5.2c2.8-3.1 4.5-6.7 8-13.7a55 55 0 003.8-9.4 44.2 44.2 0 001.5-7.1 54.3 54.3 0 003.5-6.2c1.3-3 3.5-7.6 2.2-8.8a1.7 1.7 0 00-1.4-.2c-.2-1-.5-2-.9-2z"/><path class="cls-43" d="M679.8 599l-3.6 3.8a32.6 32.6 0 01-.8 4.6 34 34 0 01-2.6 7 69 69 0 00-4.7 12.8 108.3 108.3 0 006.8-14 30.8 30.8 0 001.6-5.1 39 39 0 011-5 12.9 12.9 0 012.3-4.1z"/><path class="cls-22" d="M617.7 587.8c-.7.2-.7 2.1-.6 3.2a10.3 10.3 0 001.3 4 237 237 0 004.2 7.5 48.9 48.9 0 001 6.4 57.6 57.6 0 004.5 11.7c3.1 6.6 5 10.4 8.9 14.4a36.7 36.7 0 003.7 3.4 8.1 8.1 0 002-6.2 8 8 0 00-2.5-4.9 32.2 32.2 0 01-4.4-4.4c-3.6-4.3-5-8.7-7.2-15.3l-2.1-7.4 1-3.2c.7-2.1 1.2-3.2.8-4.6 0-.3-.2-1-.7-1.2s-1.3.5-1.9 1.7a37 37 0 01-.5-4.5c-.1-1.7 0-2.9-.4-3s-1 1.2-1 1.4a6 6 0 00-.5 3.2c.2-4.2-.3-5.3-.8-5.4s-1 .5-1.1.6a3 3 0 00-.5 2.9c-.5-2.5-1-2.6-1.1-2.6-.4 0-.8.8-1 1.3a2.9 2.9 0 000 1.5c-.3-.3-.8-.6-1.1-.5z"/><path class="cls-2" d="M626.3 599.1a30.9 30.9 0 001.7 8.4 65.5 65.5 0 003 8 37.3 37.3 0 009.2 12.7c.3.3.8-.2.5-.4a36.6 36.6 0 01-9-12.3 61.1 61.1 0 01-3-7.7 30.8 30.8 0 01-1.8-8.6.3.3 0 00-.6 0zM622.4 603c.6 7.1 3.5 13.8 6.6 20.1a42.8 42.8 0 0011.5 15.7c.3.3.8-.2.4-.5-5-4-8.4-9.5-11.2-15.2-3-6.3-6-13-6.6-20-.1-.5-.7-.5-.7 0z"/><path class="cls-2" d="M627 599.1c1-2 2.1-4.9 1.5-7.3-.2-.5-.5-1-1.1-.7-1 .3-.8 1.5-1.6 2a.3.3 0 00.3.5 2 2 0 00.8-.8 3 3 0 01.3-.7c.9-.7.7.8.7 1.2a15 15 0 01-1.5 5.5c-.2.4.4.7.6.3z"/><path class="cls-2" d="M626.2 593c-.7-1.5-.5-3.3-.5-5 0-.7 0-2.4-.8-2.9-1.9-1-2 5-2 5.9 0 .4.8.4.8 0a11.2 11.2 0 01.2-3.5c0-.3.3-1.7.9-1.4.2.1.2 1.7.2 2 0 1.8-.1 3.6.6 5.3.2.4.8 0 .6-.3z"/><path class="cls-2" d="M623.6 590.8c-.3-1.6-.2-3.2-.4-4.7 0-.6-.4-1.8-1.2-1.9s-1.1 1.6-1.2 2.2a9 9 0 000 4 .3.3 0 00.6-.2 8.1 8.1 0 01-.1-2.8 6.1 6.1 0 01.3-1.7c.4-.9.5-1 .8 0a13 13 0 01.2 2.6 23.4 23.4 0 00.4 2.7c0 .4.7.2.6-.2z"/><path class="cls-2" d="M621.3 590.4c-.2-1 .3-5.3-1.5-5.2s-1.2 4.5-1 5.6c0 .4.7.2.6-.2a12.6 12.6 0 01-.2-2.5c0-.6-.2-2 .6-2s.7 1.6.7 2.2a21 21 0 000 2.1c.1.4.8.4.8 0z"/><path class="cls-2" d="M619 588.4a1 1 0 00-1.6-1c-1 .8-.7 3.2-.5 4.3a19.3 19.3 0 002.3 5.6c1 2.1 2.2 4.1 3.3 6.2.2.4.8 0 .6-.3l-3.8-7.1a16.6 16.6 0 01-1.5-3.8 9.5 9.5 0 01-.3-2.1v-.9a3.4 3.4 0 010-.8c0-.3.4-.4.8 0 0 .3.6.3.7 0z"/><path class="cls-39" d="M620 585.7c.6.2.2 3 0 4-.2 2.2.3 5.7 4 10.7a68 68 0 006.5 18.4 66.9 66.9 0 009.8 13.8l.6 6a27.3 27.3 0 01-5.2-4.7 32 32 0 01-4-6.4c-3.7-7-5.6-10.5-6.9-14.8a56.5 56.5 0 01-2-9.8 36.4 36.4 0 01-3.8-6c-1.5-3.1-2-5.1-1.9-6.9 0-2 .4-2.3.6-2.3.3-.2.8.1 1 .3a2.2 2.2 0 01.5-1.8c0-.1.4-.6.8-.5z"/><path class="cls-39" d="M618.2 593.7c.2-.1 1.5 1.8 2.5 3.4a32.5 32.5 0 013.5 8c1.5 5.1 3.4 9.5 7.2 18.2 1.2 2.6 3 6.4 5.4 10.9a32.4 32.4 0 01-2.8-3c-1-1.2-4.1-5-7.4-14a85.4 85.4 0 01-3.8-13.8c-.8-1.3-1.9-3.2-3-5.5-.5-1-1.9-4-1.6-4.2z"/><path class="cls-22" d="M650 625.4a21.2 21.2 0 00-4 0c-2.2.2-4 .4-5.5 1.7-1 .9-1.3 2-2 4.3a19.2 19.2 0 00-.7 5.5c.1 4.5 1.8 5 2.7 10.5a36.7 36.7 0 01.4 7 52.4 52.4 0 01-.7 8.2 17.7 17.7 0 004.4 2.6 16.6 16.6 0 009.2 1 15.9 15.9 0 008.5-4.4 24.1 24.1 0 01-1.6-10c.2-2.7.8-3.3 1.6-9.4a38.2 38.2 0 00.6-7.3c-.2-4-.3-6-1.6-7.4s-4.7-1.7-11.4-2.3z"/><path class="cls-2" d="M648.8 625.3a20 20 0 00-5 .2c-1.3.3-2.8.5-3.7 1.7a13 13 0 00-2.5 7.5c-.3 6.6 3 12.6 4 19 .1.5.8.3.7-.1-1-5.8-3.8-11.2-4-17.1a14.3 14.3 0 011.7-7.9 3.9 3.9 0 011.9-1.9 13.4 13.4 0 012-.5 20.2 20.2 0 015-.3c.3.1.3-.6-.1-.6z"/><path class="cls-2" d="M640.1 647.3a50.6 50.6 0 01-.2 14.8c0 .4.6.6.6.2a50.1 50.1 0 00.3-15c0-.4-.8-.4-.7 0zM651.5 625.9c3-.2 6.7.2 9.3 2 1.5 1 1.6 2.9 1.7 4.6a26.7 26.7 0 01.1 4.7c-.4 6-2.9 11.9-2.8 18a.3.3 0 00.6 0c0-7 3.2-13.5 3-20.4-.1-2.7 0-6.1-2.6-7.7a16.4 16.4 0 00-9.3-1.9.3.3 0 100 .7z"/><path class="cls-2" d="M660.5 648.5a50.7 50.7 0 001.5 13 .3.3 0 00.7-.2 50.3 50.3 0 01-1.6-12.7.3.3 0 00-.6 0z"/><path class="cls-2" d="M640 662.7a17.3 17.3 0 0010.8 4c4.5 0 8.3-2 11.7-4.7.4-.3 0-.9-.3-.6a18.9 18.9 0 01-11 4.7 16.6 16.6 0 01-10.8-3.9c-.3-.2-.8.2-.5.5z"/><path d="M656.9 625.7a30.8 30.8 0 012 7.4 36 36 0 01-2.4 16.8 76.1 76.1 0 01-7.4 16.4 16.6 16.6 0 004.4-.2 17.4 17.4 0 008.7-4.4l-.8-5c-.6-3.3-.8-3.6-.9-4.8 0-1.4.2-1.2 1.5-7.4a52.5 52.5 0 001.1-7.5v-.7c.2-3.7.2-6-1.3-7.9a8.4 8.4 0 00-5-2.7z" style="isolation:isolate" fill="#353535" opacity=".1"/><path class="cls-45" d="M663.3 636.4c-.1 0-1 1.2-2.8 6.1a143 143 0 00-6.4 23.2 14.3 14.3 0 003.9-1 13 13 0 004-3 36.2 36.2 0 01-1.3-10.2c0-8.3 3-15 2.6-15z"/><path class="cls-22" d="M641.8 609.1a6.8 6.8 0 00-.4 4.5 2.1 2.1 0 00-1.7.7 2 2 0 000 2.2 1.4 1.4 0 00.9.8 1.5 1.5 0 001.3-.5 12.3 12.3 0 001.8 3 13 13 0 003.8 3.3l.1 3.2a3 3 0 001.6.8 3.4 3.4 0 002.7-.9v-4a11 11 0 001.9-1.9 10.3 10.3 0 002-4.4 3.4 3.4 0 001.1.2c.5 0 1.1 0 1.4-.5s0-1-.3-1.8-.6-.7-.7-.7a1 1 0 00-.8.2 7.6 7.6 0 00-.5-3.6 7.7 7.7 0 00-3.2-4c-3.6-1.9-9.2-.2-11 3.4z"/><path class="cls-2" d="M641.4 609.2c-1.3 5.8.9 13.2 7.4 14.5.5 0 .6-.6.2-.7-6.2-1.1-8.2-8.2-7-13.7.2-.4-.5-.5-.6-.1z"/><path class="cls-2" d="M649 623.7c.8.2 2-.6 2.8-1.1a10 10 0 002.6-2.5 11.6 11.6 0 002-8c0-.4-.6-.4-.6 0a11 11 0 01-1.5 7 10.4 10.4 0 01-2 2.4c-.7.5-2.3 1.8-3.2 1.6a.3.3 0 00-.2.6zM647 623.1a5.6 5.6 0 01.3 2.9c-.1.4.5.6.6.2a6.2 6.2 0 00-.3-3.2c-.1-.4-.8-.3-.6.1z"/><path class="cls-2" d="M651.6 622.4a9.7 9.7 0 00.3 3.4.3.3 0 00.6-.2 9.6 9.6 0 01-.3-3.2c.1-.4-.6-.4-.6 0z"/><path class="cls-2" d="M647.3 626.4c1.5 1.7 4.7 1.7 5.3-1 0-.4-.6-.5-.7-.1-.4 2.1-3 2-4.2.6-.3-.3-.7.2-.5.5zM647.4 623.6a2.6 2.6 0 004.1-.7c.2-.4-.3-.7-.5-.3a2 2 0 01-3.2.5c-.3-.3-.7.2-.4.5z"/><path class="cls-2" d="M648.7 624a2.5 2.5 0 011 .2.3.3 0 000-.7 3.5 3.5 0 00-1 0c-.4 0-.4.6 0 .6zM641.5 616.9c-1 .7-1.7-.3-1.8-1.2s.6-1.9 1.6-1.3c.3.2.7-.4.3-.6-1.4-.9-2.7.6-2.6 2s1.7 2.6 3 1.6c.3-.3-.2-.8-.5-.5zM656.6 613.6c.7-.7 1.4.6 1.4 1.2a1 1 0 01-.5 1c-.3 0-.8.3-1 0s-.8 0-.6.3a1.3 1.3 0 001.7.3 1.8 1.8 0 001-1.5c.1-1.3-1.3-2.9-2.5-1.8-.3.4.2.8.5.5zM647.6 609.1a21.6 21.6 0 010 4.6c-.1 1 .4 1.5 1.2 2.2.4.3.8-.2.5-.5-.6-.5-1-.8-1-1.7a12.2 12.2 0 010-1.3 16.2 16.2 0 000-3.3c0-.4-.7-.4-.7 0zM643.9 612.3c0-.5.7-.8 1-.8s.8.4 1 .7.9 0 .7-.3c-.5-.7-1-1.2-1.9-1s-1.5.7-1.5 1.4a.3.3 0 00.7 0zM651.5 611.7a1.3 1.3 0 012.6.3c0 .4.7.2.6-.2a2 2 0 00-3.7-.5c-.2.4.3.8.5.4zM643.2 610a2.4 2.4 0 011.7-1c.5-.1.5-.8 0-.8a3.1 3.1 0 00-2.3 1.4c-.2.3.4.7.6.3zM651.5 608.7a2.8 2.8 0 012.2.7c.3.3.8-.2.4-.5a3.7 3.7 0 00-2.6-1 .3.3 0 000 .8zM644 614a.3.3 0 00-.6 0 .3.3 0 00.3.3.3.3 0 00.3-.3zM645 613.9a.3.3 0 00.4-.4.3.3 0 00-.3-.3.3.3 0 00-.4.3.4.4 0 00.4.4zM645 615.3a.3.3 0 00.4-.3.3.3 0 00-.3-.3h-.1a.3.3 0 00-.3.3.3.3 0 00.3.3zM652.3 613.4a.3.3 0 00.3-.4.3.3 0 00-.3-.3.3.3 0 00-.4.3.4.4 0 00.4.4zM654.2 613.3a.3.3 0 000-.7.3.3 0 000 .7zM653.5 614.4a.3.3 0 000-.7.3.3 0 100 .7zM646.1 617.3a3.2 3.2 0 005.8-.5c.1-.4-.5-.6-.6-.2a2.5 2.5 0 01-4.6.4c-.2-.4-.8 0-.6.3z"/><path d="M638.1 611.8a15.7 15.7 0 00-2.5 6.2c-.3 2-.9 5.6 1.4 8.5.6.7 2.8 3.2 5.8 2.8a5.4 5.4 0 004.6-4 4 4 0 00-.2-2.2 10.5 10.5 0 01-4-3.4 9.4 9.4 0 01-1.3-2.6 1.5 1.5 0 01-1 .3 1.4 1.4 0 01-1-.5 2 2 0 01.3-3 1.8 1.8 0 011.3 0 7.3 7.3 0 01.7-4.5c.6-1.3 1.5-2.2 3.8-3.6 1.8-1.1 2.6-1 2.9-1a3.3 3.3 0 011.9 1.4l5.4 7a1.6 1.6 0 011.3-.1 1.7 1.7 0 01.8.9 1.6 1.6 0 01.2 1 1.6 1.6 0 01-1.1 1.2 1.6 1.6 0 01-1.4-.2 10.8 10.8 0 01-1.4 3.5 11.2 11.2 0 01-2.6 2.8 5 5 0 00.3 2.7 5.6 5.6 0 004 3.3c3 .7 5.4-1.6 6-2.2a8 8 0 00-1-12.8 34 34 0 00-2.4-4.7c-2-3.2-3.4-5.3-6-6a7.3 7.3 0 00-3.9-.2 7.5 7.5 0 00-3.5 0c-3.7 1-6.5 4.6-7.4 9.4z" fill="#1e1e1e"/><path class="cls-45" d="M653.5 609.4c-.2 0 .1 1.2.3 2.3a13 13 0 01-.6 5.8 11 11 0 01-4.9 5.4l2.1.5.6 3.7 1.4-1.7a5.5 5.5 0 001.1 1.5 5.9 5.9 0 003.4 1.5 6.7 6.7 0 004.6-1.6 8.4 8.4 0 003-10.1 11.9 11.9 0 01-2.2 4.4c-.3.4-3 3.9-4.8 3.3-1.5-.5-2-4-1.3-8.7a1.3 1.3 0 001 .5 1.3 1.3 0 001-.8 1.7 1.7 0 00-.5-1.8 2 2 0 00-1.4-.6 15.7 15.7 0 01-1.2-1.3c-1.1-1.4-1.5-2.4-1.6-2.4z"/><path class="cls-39" d="M648 614.3a1 1 0 011.5.3.9.9 0 01-.4 1.1c-.5.2-1.3-1-1-1.4zM642.9 623.8a2.7 2.7 0 01-2.4 1.4c-.5 0-1.1-.3-3.3-3.8l-1.7-2.8a9.2 9.2 0 00-.2 3.7 9 9 0 001 2.8 7.7 7.7 0 003 3.4 5.2 5.2 0 006.9-1 4 4 0 001.3-2.5 3.6 3.6 0 00-.5-2.3c-.7-1-1.4-.9-2.6-1.9-1.4-1.2-1.8-2.8-2-2.7s1.8 3.5.5 5.7z"/><path class="cls-42" d="M656 614.4s-.5 1.3-1.6 3.2a19.3 19.3 0 01-5.2 5.6 9.4 9.4 0 004.4-2.6c2.4-2.6 2.7-6.2 2.5-6.2z"/></g></g></svg>