<svg xmlns="http://www.w3.org/2000/svg" width="1600" height="1200"><path d="M407 1031c58 0 112 25 169 33 56 7 111-5 166-14 27-4 55-8 83-6 29 1 55 9 81 21 24 10 47 23 72 30 24 6 49 7 73 2 58-10 111-41 170-41 2 0 2-3 0-3-52 0-99 24-149 37-25 6-52 10-78 5-27-5-51-17-75-28s-48-21-75-24c-27-4-55-3-82 1-55 7-109 22-165 19-65-4-125-35-190-35-2 0-2 3 0 3zM327 1043c11-4 24-8 36-10 2 0 1-3-1-2-12 1-24 5-36 9-2 1-1 4 1 3zM305 1069c67-29 139 4 205 21 19 5 39 8 59 10 2 0 2-3 0-3-73-4-138-45-211-42-19 0-37 4-54 12-2 0-1 3 1 2zM615 1124c16-2 30-7 45-12a382 382 0 01139-19c18 2 36 4 54 8 2 1 3-2 1-2-62-15-128-12-188 7-17 6-34 12-52 15-1 1-1 3 1 3zM974 1128c20 11 44 11 67 8 26-3 52-10 78-18 50-15 101-34 154-37 29-2 59 2 86 12 2 1 3-2 1-3-101-39-203 21-300 40-28 5-59 9-85-5-2 0-3 2-1 3zM1281 1058c22-1 45 3 66 13 1 1 3-2 1-3-21-9-44-14-67-13-2 0-2 3 0 3z" fill="#161616"/><g><path d="M574 1060a83 83 0 01-22-44c0-3-2-11 4-9 3 1 6 5 8 7 1 2 3 0 2-1a80 80 0 01-14-45v-4c0-2 1-4 3-5l3-1a70 70 0 01-4-20s0-9 2-7c1 1 3 0 2-2-5-16-6-33-2-50 0-3 1-8 3-10 3-4 7-2 10 1l3 7 5 24a1230 1230 0 0122 161c0-41-5-81-12-121l-11-59c-1-6-4-16-10-18s-9 2-11 6c-7 19-6 41 0 60l3-2c-4-4-7 1-7 5-1 9 1 18 4 26 1 2 4 1 3-1-1-3-4-4-7-2-4 4-2 13-2 17 1 15 7 29 15 41l2-2c-2-3-8-11-14-9-5 2-3 11-3 15 3 16 11 31 23 44 1 1 3-1 2-2z" fill="#e8e8e8"/><path d="M595 986c0-10 1-19 3-29 1-3 5-27 10-27l1-1c2-10 5-21 9-31 4-9 8-22 16-28h-2c5 5 4 16 4 23a390 390 0 01-7 75c-5 32-13 64-21 96 0 2 3 3 3 1a1090 1090 0 0027-154v-27c0-6 0-12-4-16h-2c-8 6-12 17-16 26-4 11-7 23-9 35l1-1c-3-1-4 1-6 4l-6 17c-3 13-4 25-4 38 0 1 3 1 3-1zM1045 1096a144 144 0 01-18-45l-1-4c-1-2 0-4 3-5h3a105 105 0 01-6-35v-12c1 1 3 0 3-1a149 149 0 014-41l2-6 1-4c1-2 2-4 5-3h3c0-10 2-20 5-29 1-3 4-12 7-12 5 0 5 12 5 14a1172 1172 0 012 180c0 2 3 2 3 0a1247 1247 0 00-2-184c-1-5-2-10-6-13h-2c-6 3-9 11-11 17-3 9-4 18-4 27l3-1c-1-2-4-4-6-2-5 2-6 10-7 13-4 15-6 29-5 44l2-1v-1h-2c-2 1-3 2-3 4v17l6 30c1 1 3 1 3-1 0-3-3-5-6-3-5 3-2 10-2 14 4 16 10 31 18 44 1 2 4 1 3-1z" fill="#e8e8e8"/><path d="M1069 1021a72 72 0 014-23c0-1 3-10 5-7 1 1 3 0 3-1l2-13c0-2 5-14 7-13 1 1 2 0 2-1a74 74 0 0113-37c1-3 4-8 7-10 8-5 7 7 7 11l-1 14-3 29c-5 39-15 77-24 115 0 2 3 3 3 1a1214 1214 0 0028-161c0-4 1-11-4-13-5-3-9 3-11 6a78 78 0 00-18 45l2-2c-8-5-13 25-13 29l3-1c-4-5-8 0-10 4-3 9-5 18-5 28 0 2 3 2 3 0zM351 1030c-4-2-8-4-10-7l-3-6s-2-6 0-5 3-1 2-3c-5-7-9-14-11-23 0-2-2-6-1-8 1-5 5-5 8-2l9 10c9 14 15 29 17 46 0 2 3 2 3 0a102 102 0 00-28-60c-2-2-6-3-9-1-4 2-3 7-3 11 2 11 6 21 13 30l2-3c-2-1-4-1-5 1-2 2-1 5 0 8 3 7 8 12 15 15 2 1 3-2 1-3z" fill="#e8e8e8"/><path d="M354 998c-4-16-8-31-10-47l-1-12v-13-2c3-3 5-4 7 0l2 4 5 10c14 28 20 59 19 90-1 2 2 2 3 0 1-36-7-74-26-105-2-3-8-9-12-3-2 2-1 5-1 8v15l4 28 8 28c0 1 3 0 2-1zM292 763c66-1 131 15 194 35 62 19 124 41 189 52 33 5 66 8 99 5 37-3 72-10 107-19l108-30c36-9 72-18 108-25a1259 1259 0 01252-28c2 0 2-3 0-3-74 0-148 8-220 22-74 13-145 33-217 53-36 10-72 19-108 24-35 5-70 5-105 1-66-7-129-29-192-49a731 731 0 00-215-41c-2 0-2 3 0 3z" fill="#e8e8e8"/><path d="M943 779c69-19 135-43 203-64 67-22 136-40 207-47 39-4 79-5 118 0 2 0 2-3 0-3-70-8-140-1-209 15-69 15-136 38-203 60-39 13-77 25-116 36-2 0-1 3 0 3zM724 937c25 6 52 4 77-1 27-5 53-12 80-19 53-15 105-30 160-34 31-3 63-2 94 1 2 0 2-3 0-3-54-6-108-3-161 8s-104 29-157 41c-30 6-62 12-93 5-2-1-2 2 0 2zM1221 957c67-4 129 26 193 40 18 3 36 6 54 6 2 0 2-3 0-3-66-1-128-32-193-43-18-3-36-4-54-3-2 0-2 3 0 3zM245 648a540 540 0 01257 62 539 539 0 00-257-65c-2 0-2 3 0 3zM315 531c54 14 104 40 156 62a638 638 0 00258 51c2 0 2-3 0-3a634 634 0 01-250-48c-26-10-52-23-77-34-28-12-57-24-87-31-1 0-2 2 0 3zM687 704c52 20 109 9 160-9 27-9 54-21 81-31a888 888 0 01178-44c2 0 1-3-1-3-56 8-111 21-165 40-53 18-104 44-160 52-31 5-63 3-92-8-2-1-3 2-1 3z" fill="#e8e8e8"/></g><g><ellipse cx="497.8" cy="515.9" rx="10.2" ry="10" fill="#191919"/><ellipse cx="887.7" cy="650.2" rx="7.8" ry="7.6" fill="#191919"/><ellipse cx="1064.8" cy="105.2" rx="5.2" ry="5.1" fill="#191919"/><ellipse cx="505.3" cy="795.8" rx="7.5" ry="7.3" fill="#191919"/><circle cx="1152.2" cy="456.3" fill="#5222d0" r="1.8"/><ellipse cx="477.6" cy="500.8" rx="9.9" ry="9.7" fill="#444"/><ellipse cx="516.2" cy="767.6" rx="3.4" ry="3.3" fill="#444"/><ellipse cx="333.8" cy="222.8" rx="7.4" ry="7.2" fill="#444"/><ellipse cx="1089.6" cy="386.3" rx="7.4" ry="7.2" fill="#444"/><ellipse cx="1119.5" cy="360.6" rx="6.2" ry="6" fill="#444"/><path d="M445 657c-10 0-14 13-11 20 2 4 5 5 8 4l4-1c5 0 5 3 3 6l-2 6c-1 3 0 6 2 7h5c5 1 1 8 1 11s0 7 4 9c3 1 6 0 8-3 1-1-2-3-3-1-3 3-5 2-6-3v-4l2-7-1-4c-2-3-8 1-10-3 0-3 3-7 4-9 1-4 0-8-5-8s-10 4-11-3c-1-6 1-15 8-15 1 0 2-3 0-2zM1002 558c-10 0-20 7-22 17-2 8 3 19 13 13 4-1 7-5 8-9 0-3-2-6-5-6-5 1-10 6-12 10-3 4-7 10-6 15 1 9 14 11 19 4 0-1-1-3-2-2-7 5-15 14-12 23 2 7 10 13 18 10 2 0 1-3-1-3-7 3-14-3-14-10-1-7 5-14 10-18l-2-2c-2 3-7 4-10 2-5-2-3-8-1-12l6-9c1-1 3-4 5-4l4 1-1 3c-3 5-10 8-14 3-2-3-1-9 1-13 4-6 10-10 18-10 2-1 2-4 0-3zM216 406c4-4 9-3 11 2 1 3 1 5 3 7 5 3 11 1 15 0 13-3 9 10 16 14 3 3 8 2 9-2 1-1-1-3-2-1-3 6-8-2-9-4l-1-4-4-6c-6-3-12 1-17 1-7 1-6-4-8-8l-4-4c-4-1-8 0-11 3-1 1 1 4 2 2zM227 434c6-6 15-3 19 4 2 5 4 10 9 12 8 4 18 0 20-8 1-2-2-3-3-1-2 6-9 8-14 7-7-2-8-10-11-15-6-7-16-7-22-1-1 2 1 4 2 2z" fill="#8c8c8c"/><path d="M937 873c3-4 8-4 13-1 2 1 3 2 5 1 2 0 3-4 4-5 4-4 10-4 13-1 2 2 4 0 2-2-5-4-14-4-18 2l-2 3c-2 1-3-1-4-2l-5-1c-4 0-8 1-10 4-1 2 1 4 2 2zM966 879c7-11 32 3 34-13 0-2-3-3-3-1-1 9-13 7-19 6-6 0-11 1-14 6-2 2 1 3 2 2zM436 921c4-7 9-13 16-17 1-1 0-4-2-3-7 5-12 11-16 18-1 2 1 3 2 2zM450 916l16-11c2-1 0-4-1-3l-16 11c-2 1 0 4 1 3z" fill="#a5a5a5"/></g><g><path d="M447 63a485 485 0 01-93 279c-1 1 2 3 3 1a491 491 0 0093-280c0-2-3-2-3 0zM459 67a225 225 0 00211 10c2-1 0-3-2-2a222 222 0 01-207-11c-2-1-3 2-2 3zM695 77c21 33 55 58 93 70 46 14 96 5 141-8 26-6 50-16 72-30 2-1 0-4-1-3-20 13-41 22-63 28-23 7-47 12-71 15-23 3-46 3-68-3a167 167 0 01-101-71c-1-1-3 0-2 2zM1013 111c-7 38-12 78-10 117 1 32 10 65 36 86 15 12 34 19 53 26 1 0 2-3 0-3-16-6-33-12-47-22s-24-23-30-38c-12-31-11-65-8-97 2-23 5-46 9-68 0-2-3-3-3-1zM362 360a287 287 0 01218 172c1 2 3 1 3-1a286 286 0 00-220-174c-2 0-3 3-1 3zM599 534c35-27 82-34 126-27 46 6 88 29 125 55 23 16 45 34 66 52 2 1 4-1 2-3-39-32-78-64-124-86-40-19-86-29-131-21-24 4-47 13-66 28-1 2 1 4 2 2zM915 595a309 309 0 01184-214c2-1 1-4-1-3a318 318 0 00-186 216c0 2 3 3 3 1z" fill="#e8e8e8"/><path d="M464 417c15 7 26 19 37 31a375 375 0 0174 126c0 2 3 1 3-1a366 366 0 00-75-127c-11-12-22-25-38-31-1-1-3 2-1 2zM691 93c17 26 43 46 73 55 2 0 2-2 0-3-29-9-54-28-70-54-1-2-4 0-3 2zM449 42c32 22 72 29 110 20 2-1 1-4-1-3-37 9-77 1-108-20-1-1-3 2-1 3zM343 322c16-18 30-37 41-58 1-2-2-3-3-1-11 20-25 40-41 57-1 1 1 4 3 2zM440 205c-2 14-9 28-15 40l-18 39c-1 2 1 3 2 2l20-43c6-12 13-25 14-38 0-2-3-2-3 0zM905 543c16-41 41-77 74-106 1-1-1-4-2-2-33 29-59 66-75 107 0 2 3 2 3 1z" fill="#161616"/><path d="M435 84l-5 33c-1 1 2 2 3 0l5-32c0-2-3-2-3-1zM691 50c21 26 48 47 78 62 2 1 3-2 2-3-30-14-57-35-78-61-1-1-4 1-2 2zM868 167c25 1 50-4 73-15 2 0 0-3-2-2-22 10-47 15-71 14-2 0-2 3 0 3zM957 121c21-10 41-24 57-42 1-1-1-3-2-2-16 17-35 31-57 41-1 1 0 4 2 3zM605 515c25-26 64-38 100-32 2 0 3-3 1-3-37-7-77 6-103 33-1 1 1 4 2 2z" fill="#8c8c8c"/><path d="M382 348c22 4 42 11 61 21 2 1 3-2 2-2-20-10-41-18-62-22-2 0-3 2-1 3zM461 104l1 35c0 2 3 2 3 0l-1-35c0-2-3-2-3 0zM852 507c11-23 31-42 54-53 1-1 0-3-2-3-23 12-43 31-55 54-1 2 2 4 3 2z" fill="#353535"/><path d="M789 291c9-6 19-9 30-8 2 0 2-3 0-3-11-1-22 2-31 9-2 1-1 3 1 2zM813 264c9 2 17 4 26 8 1 0 2-2 0-3l-25-8c-2 0-3 3-1 3zM595 187c3-14 10-26 21-37 1-1-1-3-2-2a76 76 0 00-22 38c0 2 3 3 3 1zM617 190c15-11 32-20 50-26 2 0 1-3-1-3-18 6-36 15-51 27-1 1 1 3 2 2z" fill="#8c8c8c"/><path d="M587 388c4 10 4 20 2 30-1 1 2 2 2 0 3-10 3-21-1-31-1-2-3-1-3 1zM613 391c5 7 12 12 19 16 2 1 3-2 2-3-8-4-14-9-19-15-1-1-3 1-2 2zM939 372c4 5 6 11 5 18 0 2 3 3 3 1 1-8-1-16-6-21-1-2-3 0-2 2zM964 367l11 13c1 1 3-1 2-3l-11-12c-1-2-3 1-2 2zM819 403c7-12 16-23 27-31 1-1 0-4-2-3-11 9-21 20-28 32-1 2 2 4 3 2z" fill="#353535"/><ellipse cx="1181.5" cy="172.4" rx="14.6" ry="14.2" fill="#444"/><ellipse cx="1208.4" cy="206.8" rx="12.3" ry="11.9" fill="#191919"/><g><path d="M471 286a298 298 0 0033 89l13 2c7 1 19 2 32-2 3 0 2 0 16-6l20-8a722 722 0 0053-35l1-14a3753 3753 0 00-14-56l-13-6c-15-8-30-11-41-12a143 143 0 00-85 35l-15 13zM893 250a249 249 0 00-35 48l18 27 41 16 40-41-10-33a192 192 0 00-54-17z" fill="#fff"/><path d="M470 287c3 32 17 62 33 90 1 1 3 0 2-2-15-27-29-56-32-88-1-2-4-2-3 0z" fill="#161616"/><path d="M472 288c25-27 58-44 94-49 2 0 2-3 0-3-36 5-71 22-96 50-1 1 1 3 2 2z" fill="#161616"/><path d="M567 239c16 24 24 53 31 81 0 2 3 1 3-1-8-28-15-57-32-82-1-1-3 0-2 2z" fill="#161616"/><path d="M506 377a279 279 0 0077-37c7-5 14-10 18-18 1-1-2-3-3-1-4 8-12 13-19 18a273 273 0 01-74 35c-1 0-1 3 1 3zM568 239c20 1 39 7 55 19 2 1 3-1 2-2-17-13-36-19-57-20-2 0-2 3 0 3z" fill="#161616"/><path d="M623 257c9 21 14 43 14 66 0 2 3 2 3 0 0-23-5-46-15-68 0-1-3 0-2 2z" fill="#161616"/><path d="M599 323c13 8 27 5 41 2 2-1 1-4-1-3-13 3-27 5-38-2-2-1-3 2-2 3zM505 377c17 4 36 3 53-4 2-1 1-3-1-3-16 7-34 8-52 4-2 0-2 3 0 3z" fill="#161616"/><path d="M559 373c29-11 57-27 81-48 2-1-1-3-2-2-24 20-51 36-80 47-2 1-1 4 1 3zM891 249c-13 15-24 31-35 48-1 1 2 3 3 1 10-16 22-32 34-47 1-1-1-3-2-2z" fill="#161616"/><path d="M892 252c18 3 36 8 52 17 1 1 3-2 1-3-16-8-34-14-52-17-2 0-3 3-1 3zM856 300l47 22a1516 1516 0 00-45-25c-2 0-3 2-2 3z" fill="#161616"/><path d="M945 267a1501 1501 0 00-37 54l-4-1c-1-1-3 1-1 2l3 2h2l39-55c1-2-1-3-2-2z" fill="#161616"/><path d="M944 269c5 11 8 21 10 33 1 1 4 1 3-1-2-12-6-23-10-34-1-1-3 0-3 2zM907 324l10 17c1 1 3 0 2-2l-10-16c-1-2-4 0-2 1z" fill="#161616"/><path d="M919 340c13-12 26-24 37-38 1-1-1-3-2-2-12 14-24 26-37 38-1 2 1 4 2 2zM857 301l19 25c1 1 4 0 2-2l-19-25c-1-1-4 0-2 2z" fill="#161616"/><path d="M876 327l41 15c1 1 2-2 0-3l-40-15c-2-1-2 2-1 3z" fill="#161616"/><path d="M501 260l38 101 29 8 21-10-24-10-39-102a165 165 0 00-25 13z" fill="#303030"/><path d="M593 240a179 179 0 0122 85 388 388 0 01-96 54h20a412 412 0 0091-53 1523 1523 0 00-17-76 32 32 0 00-20-10zM513 253c-2-2 1-13 9-16 6-3 14-1 20 5l-14 5c-10 4-13 7-15 6z" fill="#303030"/><path d="M527 242c5-3 12-8 18-16 10-15 11-29 10-35 2-1 12-4 18 1 7 6 0 22-1 26-5 9-12 15-14 16-13 9-27 8-31 8zM476 215c5 0 8 9 18 17 9 8 20 12 28 13-3 3-10 7-19 8-13 2-30-3-34-15-3-9 1-22 7-23z" fill="#303030"/><path d="M912 253l-39 52 14 25 12 5-9-21 35-57-13-4z" fill="#777"/><path d="M951 281l-40 44-46-13 8 10 43 14 37-42-2-13zM925 257c0-2 7-4 12-1 4 3 5 8 4 9-2 3-17-5-16-8z" fill="#777"/><path d="M917 225c2-2 6 2 8 3 1 1 5 5 8 16 1 5 3 14 1 15s-10-7-15-16c-3-7-5-17-2-18zM975 260c0-2-5-4-7-5-1 0-7-2-18 1-6 1-14 3-14 5 0 3 11 6 21 5 8 0 17-3 18-6z" fill="#777"/><path d="M505 376l25-9c18-8 30-13 44-22 7-5 17-12 26-23a132 132 0 0014-72l11 6a206 206 0 0114 69l-28 21c-35 24-58 29-64 31a95 95 0 01-42-1zM858 298l19 28 40 15 38-41-9-32-39 53-49-23z" opacity=".1" fill="#353535"/></g></g><g><path d="M694 1068l7-7c3 1-6 22-24 61-46 2-70 1-70-4-1-4 16-10 51-19l23-48 13 17z"/><path d="M718 749a2719 2719 0 01-64 314c3 3 10 10 22 13 15 4 27 0 31-2l68-237c29-32 24-74 1-89-15-10-38-9-58 1z" fill="#595959"/><path d="M719 751a1026 1026 0 01-44 325 41 41 0 01-21-14c6-22 15-54 24-95 29-125 37-217 41-216z" opacity=".1" fill="#353535"/><path d="M702 856a1183 1183 0 01-38 214 13 13 0 01-9-7 10776 10776 0 0047-207z" opacity=".1" fill="#353535"/><path d="M886 1065c-5-5-7-8-8-7-3 1 6 22 27 61 50 2 76 1 77-4 0-4-19-10-57-19l-25-48-14 17z"/><path d="M756 773c-4 18 5 32 8 37l99 265c5 1 17 1 30-3 15-6 24-15 27-19-19-42-32-77-39-101-20-63-47-123-66-186-3-10-9-29-21-31-14-3-34 17-38 38z" fill="#595959"/><path d="M787 735c-7 5 6 32 12 45 15 32 22 67 36 100 15 35 38 91 69 186a40 40 0 0016-13c-8-18-19-43-31-76-5-11-5-13-10-28l-14-43-22-57-12-34-5-17-17-45c-2-7-5-13-11-16 0 0-8-4-11-2z" opacity=".1" fill="#353535"/><path d="M836 829l77 232 7-8-17-40c-16-39-23-62-41-112l-26-72z" opacity=".1" fill="#353535"/><g><path d="M864 456c-2 0-4-6-6-6s-4 4-4 5c-1 4 0 8 4 19l5 12a237 237 0 01-39 100c-7 8-16 19-29 30-5 11-6 20-5 25 0 3 0 18 6 20 3 1 8-5 10-7 22-29 34-43 38-51a278 278 0 0036-99 551 551 0 0025-51c2-10 2-18 0-19-2 0-4 3-6 2s1-9-2-11c-1-1-4-1-8 2-3-6-5-7-7-7s-4 7-4 16c-1-4-3-13-5-13-3 0-5 6-5 11-1 7 1 12-2 19l-2 3z" fill="#fff"/><path d="M861 485a287 287 0 01-22 73c-11 21-24 40-42 55-1 1 1 3 2 2 19-16 32-36 43-57l13-35c4-12 8-25 8-38 1-2-2-2-2 0zM878 502c-2 32-16 61-30 89-13 26-29 51-52 69-1 1 0 3 2 2 23-18 39-43 52-69 15-28 28-59 31-91 0-2-3-2-3 0z" fill="#161616"/><path d="M863 483c-3-7-7-16-7-24v-6c3-2 4 1 4 2l4 5c2 1 3-1 2-2-4-2-4-8-8-9-3-2-4 1-5 4-2 10 3 22 7 32 1 2 4 0 3-2z" fill="#161616"/><path d="M866 459c4-8 3-16 3-24l1-8c2-2 4 3 4 5 1 5 2 11 1 16 0 2 3 2 3 0 1-4 0-30-8-26-4 2-4 9-4 12 0 8 1 16-2 24-1 1 2 3 2 1z" fill="#161616"/><path d="M879 448l1-11 1-12c1-4 2-4 3-1l2 7v14c-1 2 2 3 3 1v-17c-1-3-2-11-6-11s-5 6-5 8l-2 21c0 2 2 3 3 1z" fill="#161616"/><path d="M890 446v-10c0-2 0-10 3-9 3 0 3 2 3 4v5l-1 11c0 2 3 3 3 1 1-5 4-25-5-26-8 0-6 19-6 24-1 2 2 2 3 0z" fill="#161616"/><path d="M900 437h4v2l1 6-2 9-7 18-17 31c-1 2 1 3 2 1l15-26c4-8 9-16 11-26 1-5 3-16-2-20-4-2-8 1-8 5 1 2 4 2 3 0z" fill="#161616"/><path d="M895 426l-3 13c-1 13-3 28-9 40-2 4-6 10-12 16a254 254 0 01-43 108c-7 8-16 18-31 28l-1 30c6-5 15-12 24-23 13-14 21-30 36-62a251 251 0 0024-73l15-28c6-13 16-34 10-39-1-2-4-2-6-1-1-4-2-9-4-9z" opacity=".1" fill="#353535"/><path d="M891 484l-16 17-3 20c-4 17-10 28-12 32-6 12-14 30-21 57 3-6 21-36 30-62l8-23c2-10 1-14 4-22 3-9 7-15 10-19z" opacity=".1" fill="#353535"/></g><g><path d="M614 434c-4 1-4 10-3 15 1 8 4 15 6 18l18 33a220 220 0 0025 81c14 30 22 46 40 64 6 7 12 12 17 15a35 35 0 00-2-49c-6-4-13-10-21-20-15-19-22-39-32-68l-9-33 4-15c4-9 6-14 4-20 0-2-1-5-3-5-2-1-6 2-8 7l-3-20c0-7 0-13-2-13-1-1-4 5-4 6-3 6-3 11-2 14 0-18-2-23-4-24-2 0-4 2-5 3-5 5-2 12-2 13-2-11-4-12-5-12-2 0-4 4-4 6v7l-5-3z" fill="#fff"/><path d="M652 485a297 297 0 0021 73c10 21 23 41 41 57 2 1 4-1 2-2-17-15-30-34-40-55a270 270 0 01-21-73c0-2-3-2-3 0zM635 503c2 31 16 61 29 89 13 26 28 52 51 70 2 1 4-1 2-2-22-18-37-42-50-68-13-28-27-58-29-89 0-2-3-2-3 0z" fill="#161616"/><path d="M655 485c4-9 10-22 7-33-1-2-2-4-5-3-4 1-4 7-7 9-2 1-1 3 1 2 2 0 3-2 4-3l1-3c4-3 3 3 3 5 0 8-3 17-7 25 0 1 2 3 3 1z" fill="#161616"/><path d="M652 458c-3-7-3-15-3-23 0-3 1-11-3-13-8-4-9 23-9 26 1 2 4 2 3 0l1-15c1-1 2-7 4-6l1 8c0 9 0 17 3 24 1 2 3 1 3-1z" fill="#161616"/><path d="M640 448l-2-21c0-3-1-9-5-9s-5 7-6 10v18c1 2 4 1 3-1v-13l1-7c2-4 2-5 4 0l1 12 1 11c0 2 3 2 3 0z" fill="#161616"/><path d="M630 446c-1-5 1-24-7-24-9 1-6 21-5 26 1 2 4 1 3-1l-1-11c0-3 0-9 3-9 3-1 3 7 3 9v10c1 2 4 2 4 0z" fill="#161616"/><path d="M619 437c1-4-3-7-7-4-5 3-3 14-2 19 2 9 6 17 10 25l15 27c1 2 3 1 2-1l-17-32c-2-5-5-11-6-17l-2-9v-4l1-4h3c0 2 3 2 3 0z" fill="#161616"/><path d="M624 425c3 1 1 13 0 18-1 10 1 25 18 48a301 301 0 0073 144l2 26a124 124 0 01-41-49c-17-32-25-47-31-66-3-11-7-26-9-44-8-10-13-20-17-27-7-14-9-23-8-31 0-9 1-10 2-10 2-1 4 0 5 1 0 0-1-5 2-8l4-2z" opacity=".1" fill="#353535"/><path d="M616 461c1-1 7 8 11 15 11 17 15 32 16 36a630 630 0 0056 130l-12-14c-5-5-19-22-34-62-5-15-12-36-17-62l-13-25-7-18z" opacity=".1" fill="#353535"/></g><g><path d="M758 602h-18c-9 1-18 2-24 8-5 4-6 9-9 19-1 6-3 14-3 25 0 20 8 22 12 46a238 238 0 01-2 68 80 80 0 0061 17c21-4 34-16 38-20-7-19-7-34-7-44 1-13 4-16 7-43 3-20 3-28 3-32-1-18-1-27-7-34-6-5-21-7-51-10z" fill="#fff"/><path d="M753 602c-8-1-15 0-22 1s-13 2-17 7c-8 9-11 22-11 34-2 29 13 56 18 85 0 2 3 1 3-1-5-26-17-50-18-76-1-12 1-25 7-35 2-4 5-7 9-9l8-2c8-1 15-2 23-1 2 0 2-3 0-3z" fill="#161616"/><path d="M714 700c3 22 2 44-1 66 0 2 2 3 3 1 3-22 4-45 1-67 0-2-3-2-3 0zM765 604c13 0 30 1 41 9 7 5 7 13 8 21l1 21c-2 27-13 53-13 81h3c0-32 14-61 13-92-1-12 0-27-12-34-11-8-27-9-41-9-2 1-2 4 0 3z" fill="#161616"/><path d="M805 706c0 19 2 39 7 58 0 2 3 1 3-1-5-19-7-38-7-57 0-2-3-2-3 0z" fill="#161616"/><path d="M713 769c14 11 31 18 49 18 20 0 37-9 52-21 2-2 0-4-1-3a84 84 0 01-50 21c-17 0-34-6-48-17-1-1-3 1-2 2z" fill="#161616"/><path d="M789 604c3 7 7 19 9 33 4 28-3 50-11 75-6 18-16 44-33 73a78 78 0 0059-21l-4-22-4-21c0-6 1-6 7-33l5-34v-3c1-16 1-26-6-35-7-8-16-11-22-12z" opacity=".1" fill="#353535"/><path d="M818 652a639 639 0 00-41 131l17-5c9-4 15-10 18-14-3-10-6-26-6-45 0-37 13-67 12-67z" opacity=".1" fill="#353535"/></g><g><path d="M722 530c-4 8-3 16-2 20-1 0-5-1-8 3s0 9 0 10l4 3c3 1 6-2 6-2a57 57 0 0025 28l1 14 6 4c7 1 12-3 13-4l-1-18 9-8c6-8 8-16 9-20h5l6-1c2-2 0-5-1-8l-3-4-4 1a34 34 0 00-16-33c-16-9-41-2-49 15z" fill="#fff"/><path d="M720 530c-6 26 3 59 33 65 2 0 3-3 1-3-28-6-37-37-31-61 0-2-3-3-3-1z" fill="#161616"/><path d="M753 595c4 1 10-3 13-5 5-3 9-7 12-11 7-10 10-23 9-36 0-2-3-2-3 0a46 46 0 01-16 42c-3 2-10 8-14 7-2-1-3 2-1 3zM745 592l1 13c-1 2 2 3 3 1 0-5 0-10-2-15 0-1-3-1-2 1z" fill="#161616"/><path d="M765 589l1 15c1 2 4 1 3-1l-1-14c0-2-3-2-3 0z" fill="#161616"/><path d="M746 607c7 7 21 7 24-4 0-2-3-3-3-1-2 9-14 9-19 3-1-2-3 0-2 2zM746 594c6 6 15 4 19-3 1-1-2-3-3-1-2 5-9 6-14 2-1-1-3 1-2 2z" fill="#161616"/><path d="M752 596l4 1c2 0 3-3 1-3l-5-1v3zM720 564c-4 4-8-1-8-5s3-8 7-6c2 1 3-1 2-2-7-4-13 2-12 8 1 7 7 12 13 7 2-1 0-3-2-2zM788 550c3-3 6 2 6 5l-2 4c-1 1-4 2-5 0-1-1-4 0-3 2 2 2 5 2 8 1s5-3 5-7c0-5-6-12-12-7-1 1 1 3 3 2zM747 530v20c0 5 2 7 6 10 1 1 3-1 2-2-3-2-5-4-5-8l1-6v-14c-1-2-4-2-4 0zM731 544c0-2 3-4 5-4s3 2 4 4c1 1 4 0 2-2-1-3-4-5-8-5-3 1-7 3-6 7 0 2 3 2 3 0zM765 541c3-5 10-4 11 1 1 2 4 1 3 0-2-9-13-10-17-3 0 2 2 4 3 2zM728 533c1-2 4-4 7-5 2 0 2-3 1-3-5 1-8 3-11 7-1 1 2 3 3 1zM765 528c4-1 7 0 10 3 1 1 3-1 2-2-4-3-8-5-12-5-2 1-2 4 0 4zM732 551l-2-1-1 1 1 2 2-2zM736 551l2-2-2-1-1 1 1 2zM736 557l2-1-2-2-2 2 2 1zM768 549l2-2-1-1h-1l-1 1 1 2zM777 548c2 0 2-3 0-3s-2 3 0 3zM774 553c2 0 2-3 0-3s-2 3 0 3zM741 566c6 11 22 10 26-2 0-2-3-3-3-1-3 10-16 10-21 2-1-2-3 0-2 1z" fill="#161616"/><path d="M705 542c-4 5-9 15-11 27-2 10-4 25 6 38 2 3 12 15 26 13 9-1 19-8 21-18 1-4 0-8-1-10a47 47 0 01-24-27l-4 2c-3 0-5-2-5-3-3-3-3-10 1-13h6c-1-4-1-12 3-20 3-6 7-10 17-16 8-5 12-5 13-5 5 1 7 5 9 7l24 31c0-1 3-2 6-1l3 4 1 5c0 2-2 4-5 5s-6-1-6-1a48 48 0 01-18 28c0 3-1 7 1 12 3 8 11 14 18 15 14 3 25-7 27-10 10-9 16-24 11-38-4-11-12-17-15-19l-11-21c-9-14-16-24-27-27-7-2-13-1-17 0-7-2-12-1-16 0-16 4-29 20-33 42z" fill="#1e1e1e"/><path d="M774 531l1 10c0 1 2 14-3 26-5 14-16 21-21 24l9 2 3 17 6-7c1 1 2 4 5 6 1 1 6 6 15 7 10 1 17-5 21-7 2-2 10-8 14-20s0-23-1-26c-1 5-4 13-10 20-1 2-14 18-22 15-6-3-9-18-5-39l4 2c3 0 4-3 4-3 2-3 0-7-2-8-2-3-5-3-6-3l-5-6-7-10zM749 553c1-2 6-2 7 1 1 2 0 5-2 5-2 1-6-4-5-6zM726 595c-2 4-6 7-10 7-3-1-6-2-15-18l-8-12a41 41 0 003 29c2 3 6 11 15 15 2 2 7 4 12 4 10 0 17-7 18-8 2-2 6-6 6-11 1-6-2-10-2-11-3-4-7-4-12-8-6-6-8-13-9-12-1 0 8 15 2 25z" opacity=".1" fill="#353535"/><path d="M785 553l-7 15c-8 12-17 20-23 24 4-1 12-4 19-11 11-12 12-28 11-28z" opacity=".1" fill="#353535"/></g></g></svg>