<svg fill="none" xmlns="http://www.w3.org/2000/svg" viewBox="0 0 728 786"><path d="M3.3 389l3 193.4 245.4 55.4-.5-223.7A169897 169897 0 003.3 389zM431.8 372l-1 213.3-178.6 52.5-.6-226.2A90019 90019 0 00431.8 372z" fill="#fff" stroke="#161616" stroke-width="1.3" stroke-miterlimit="10"/><path d="M249.6 413.4L4.4 388 166 347c88 8.4 176.1 16.8 264.2 25.4l-180.5 41z" fill="#fff" stroke="#161616" stroke-width="1.3" stroke-miterlimit="10"/><path d="M309.4 360.8l-63-4.3-124 45.4c-.3 68.6-.7 137.1-1.2 205.7L177 621l-2.4-213c45-15.6 90-31.4 134.9-47.1z" fill="#161616" stroke="#161616" stroke-width="1.3" stroke-miterlimit="10"/><path d="M327.5 615l51.4-15.8-1.8-213-251.7-29.7-43.5 11 246.2 38-.6 209.4z" fill="#161616" stroke="#161616" stroke-width="1.3" stroke-miterlimit="10"/><path d="M331.8 264.5c6 2.5 7 17.8 3.7 29.9-12.4 46-92.7 64.7-96.5 57.7-1.7-3 12.2-8.8 41.3-37.6 32-31.8 43.7-53.2 51.5-50zM166.5 294.8c1.6 7.3 5.4 15.8 29.9 39.3 16.4 15.8 24.7 23.7 27 22.1 4.7-3.2-11-34.3-25.8-56.5-7.6-11.3-21-31.2-27.8-28.6-4.8 1.8-5.2 14.6-3.3 23.7z" fill="#fff" stroke="#161616" stroke-width="1.3" stroke-miterlimit="10"/><path d="M228.2 383.2c9.5 0 17.2-8.1 17.2-18.1 0-10-7.7-18.2-17.2-18.2S211 355 211 365.1c0 10 7.7 18.1 17.2 18.1z" fill="#161616" stroke="#161616" stroke-width="1.3" stroke-miterlimit="10"/><path d="M228.5 357.7a938.5 938.5 0 0088-98.6c3.8-.4 11.2-.9 14.3 3.3 4.5 6-2.7 18-6 23.6-17.1 28.5-71.6 58.8-96.3 71.7zM170.5 270.1c2.3-2.2 9.8 2.3 14.2 5 36.4 21.9 40.9 73.7 41.6 83.1-29.7-38.4-61.9-82.4-55.8-88z" fill="#161616" stroke="#161616" stroke-width="1.3" stroke-miterlimit="10"/><path d="M16.8 424c29.5.5 59.1.3 88.5 1.7 29.7 1.3 59.2 5.5 88.6 10.6 16.5 2.9 33 6 49.6 9.3 1.2.3 1.7-1.6.5-1.9-29-5.6-58-11.2-87.2-15.1-29.6-4-59.2-5.2-89.1-5.8l-50.9-.8c-1.2 0-1.2 2 0 2zM268 444.6c49.4-14.8 99.9-26.4 151-34.6 1.2-.1.7-2-.5-1.8-51 8.1-101.5 19.7-151.1 34.5-1.2.4-.6 2.2.5 2zM179 533.6v58.7c0 1.2 2 1.2 2 0v-58.7c0-1.2-2-1.2-2 0zM185.4 580.6v29.3c0 1.3 2 1.3 2 0v-29.3c0-1.3-2-1.3-2 0zM319.2 483.8v46.9c0 1.2 1.9 1.2 1.9 0v-47c0-1.1-2-1.1-2 0zM322.6 548.9v31.6c0 1.3 2 1.3 2 0V549c0-1.3-2-1.3-2 0zM86.4 481.3v25.4c0 1.2 2 1.2 2 0v-25.4c0-1.3-2-1.3-2 0zM81 513.5v20.6c0 1.2 1.9 1.2 1.9 0v-20.6c0-1.2-2-1.2-2 0z" fill="#161616"/><path opacity=".2" d="M427.7 585l-175.3 53.4V416c58.7-13.5 117.5-27 176.2-40.3-.2 69.8-.5 139.6-1 209.5z" fill="#666"/><path opacity=".2" d="M431.5 585.9L253 634.7 251.8 440l79 72.3 100.1-33.1c.3 35.5.5 71.1.6 106.7z" fill="#666"/><path opacity=".1" d="M334.7 267.9c-3.1-.7-6.5 21.1-17.5 39-10 16.2-30 35.2-74 46.2 5.6-.5 14.3-1.7 24.5-4.6 10.5-3 55-16 66.6-50.7 4.8-14.4 3-29.4.4-30z" fill="#666"/><path opacity=".2" d="M175.2 406.3l56 38-51.4-8.9a856.3 856.3 0 0025.8 192l-27.5-7.6-3-213.5z" fill="#666"/><path opacity=".1" d="M179.7 406.9l82.5-11.8-36.3-4.8c-8.3 3-15.2 5.2-20 6.6-4.9 1.5-8.6 2.4-14 4.5-5.3 2-9.5 4-12.2 5.5z" fill="#666"/><g><path d="M74.4 55.1c.2 5.3.7 12.9 1.5 22 2 22.7 3.3 42.3 8.5 57.8 4 11.7 13.3 33.6 36.6 55.6a71 71 0 01-20.9 32.3 157.3 157.3 0 01-34.4-49.3C52.7 144 52.4 117 52.1 97a255 255 0 012.6-39.6l-10.3-9.7c-8.2-7.4-11.3-9.8-10.8-10.8.5-.9 3.9-.8 17.8 4.1-12-15.4-17.4-23.7-16-25 1-1 7.6 3.6 19.4 14C46 8.3 44.6 1.8 45.8 1.2 46.8.5 51.3 5.8 64 26.8c-2-17-1.4-20.8-.3-21 1.8-.4 5.8 10.1 7 13.3 2.7 7.2 4.1 13.4 5 17.6 10.8-8.6 13-7.8 13.6-7.3 1.8 1.7-3.1 10.2-4.4 12.4A55.7 55.7 0 0174.4 55z" fill="#fff" stroke="#161616" stroke-width="1.3" stroke-miterlimit="10"/><path opacity=".1" d="M46.3 2.1c-1 .6 3 11.5 8.3 20.7 1.5 2.5 2.4 3.8 10.2 15.5l7.5 11.3a192.2 192.2 0 001 94.9 163 163 0 0032.6 59.7l15-13.4A140.6 140.6 0 0185.6 138c-6.2-16.7-7.8-32.7-9.3-46.7a285.1 285.1 0 01-1.7-35.8 43 43 0 0011.8-14.1c.8-1.6 5-9.8 3-11.6-2.3-2-10.6 4.3-14 7C68 11.6 65 6 63.7 6.2c-.7.2-1 2.2-1.2 5.5-.5 6.8.7 12.2 1.8 15.7L46.3 2z" fill="#666"/><path opacity=".2" d="M87.7 35.7a31.7 31.7 0 00-18.3 25.2 151 151 0 00.1 30.5c4 39.9 22.8 69 34.8 84.6A207.5 207.5 0 0174.6 54.5a72.2 72.2 0 0013-18.8z" fill="#666"/><path d="M184.5 187.2c-4.4 2-8.2 3.5-10.4 7.6-4.3 8 1.5 18.5 2.9 21.2a35.7 35.7 0 0012.7 13.3 134.3 134.3 0 0047.9-34.8 142 142 0 0030.9-64.8c4.3-19.1 4.5-35.5 4-46.6A650 650 0 01286 60.6c5.1-8.3 8-12.6 6.9-13.8-.9-.8-4-.1-15.5 8 4.1-16 5.5-24.4 4-25-1.4-.5-5.4 6-12 19.7 1-18.6.5-28-1.4-28.3-2-.3-5.5 9.8-10.7 30.3-3-14.1-5.2-21.1-6.6-21-1.7.2-2.2 10.2-1.7 30-9.8-5.4-15.3-7.3-16.7-5.7-1.8 2.3 4.4 11.2 18.8 26.9.4 6 .3 15.8-2 27.2-1.2 5.7-9.5 46.2-37.6 62.2-9.2 5.3-17.6 11.7-27 16.1z" fill="#fff" stroke="#161616" stroke-width="1.3" stroke-miterlimit="10"/><path opacity=".2" d="M281.5 29.7c-1-.3-2.8 5.7-9.9 15.9-1.7 2.4-2.5 3.3-3.1 5.3-1.8 5.6 1.4 9.1 1.2 13.9-.1 3.3-1.9 8-9.9 13.7a93.8 93.8 0 013.3 20.1c1.8 33.3-15.7 57.7-21.7 67.8-5.8 9.6-23 34.6-64.8 49.9.3 1.6 1.5 6 5.5 9.6 2.4 2.2 5 3.2 6.6 3.6a129.8 129.8 0 0066.7-62.3 160 160 0 0017-85.6l9.5-15c9-14.3 11.9-18.9 10.8-20-.6-.6-2.6-.3-8.8 4-2.2 1.2-4.3 2.6-6.4 3.9 4.6-19.3 4.9-24.5 4-24.8z" fill="#666"/><path opacity=".3" d="M284.1 63c-14.8 9-18.3 16.8-18.6 22.4-.2 2.2.2 2.8.7 8 0 0-.4 9.6-.3 21.5.2 17-6.8 32.5-15.4 51.3a234.2 234.2 0 01-21.2 36.9c7.1-7.2 14.8-16.3 21.7-27.6A155.8 155.8 0 00272 84l12.2-21z" fill="#666"/><path opacity=".1" d="M232.2 55.9c14.5 7.4 18.5 8.6 19 8 .4-.7-2-3.2-4.2-4.6-1-.6-2.2-1.2-4.6-2.2-4.4-2-5.6-2-6.4-2-1.7-.1-3 .4-3.8.8z" fill="#666"/><g><path d="M40 463.3c-.5 3.2 2.5 7 8.3 14.7 3.1 4.1 6 7.2 7.8 9.2-2.9 5.2-8 16.5-5.5 30 .8 4.3 2.2 11.4 6 12.3 6.8 1.7 16.8-16.6 20.7-25.3a94.3 94.3 0 007.4-24.9l-20.2-27.1c-13.4 1.1-23.6 5.4-24.5 11.1z" fill="#161616" stroke="#161616" stroke-width="1.3" stroke-miterlimit="10"/><path d="M119.1 325.2c4.3 32.1-2.3 44.8-9.7 50.2-6.7 5-13.4 3.3-29.3 7.9-13.9 4-24.5 9.9-31.6 14.4a96.8 96.8 0 0026.6 54 34 34 0 01-37.8 18.5A115.3 115.3 0 014 416.7a65 65 0 01-1.2-39.8c3.3-9.6 8.4-15 18.7-26 3.3-3.5 18-18.7 44-32.5 15.2-8 22.9-12.1 32-10.3 11.5 2.6 18.7 12.2 21.7 17.1z" fill="#383838"/><path opacity=".2" d="M104 323.3c-10.4 6.3-25 15.5-41.8 27.6-29 21-42.4 32.1-47.2 43.8-4.6 11.3-1.3 32 40.7 73A25.7 25.7 0 0074.4 452a98.5 98.5 0 01-26.6-54A88.6 88.6 0 0181 383.3c12.5-2.7 22.6-1.6 30.4-9.6 4-4.1 5.5-8.8 7-13 4-12 2.4-22.6 1.2-28l-15.6-9.4z" fill="#666"/><path opacity=".2" d="M100.1 332.4c-1.3 6-3.5 12.6-6.8 19.6a102.8 102.8 0 01-41 43.5c8.5-5.6 16-8.6 21.3-10.3L97 379c9-2.4 11.6-3 14.4-5.7 1.6-1.5 4.2-4.7 6.3-16.2 1-5.9 2-14.5 1.3-25.1l-19 .4zM47.9 396.3a86.8 86.8 0 0014.5 68.6 29 29 0 0011.9-13 95.3 95.3 0 01-26.4-55.6z" fill="#666"/></g><g><path d="M85 460l13 18c-2.4 6.2-8.3 24.3.4 38.7 1.5 2.4 4.1 6.8 7.8 6.9 7.8.1 13.6-19.3 14.8-23 1.9-6.4 3.9-16.3 2.7-29-2.9-18.7-16.4-28.8-25.8-26.7-8.5 1.9-12.4 13.9-12.8 15.2z" fill="#161616" stroke="#161616" stroke-width="1.3" stroke-miterlimit="10"/><path d="M165 323c5.5 34.7-5.7 46.7-9.7 50.3-3.8 3.3-7.5 4.6-28.1 11.4l-32.9 10.9a96.8 96.8 0 0026.7 54A34 34 0 0183.2 468a115.3 115.3 0 01-33.5-53.5 65 65 0 01-1.2-39.8c3.3-9.7 8.4-15 18.7-26 3.3-3.5 18-18.7 44-32.5 15.2-8.1 22.9-12.2 32-10.3 11.7 2.5 18.8 12.2 21.8 17z" fill="#383838"/><path opacity=".2" d="M122.5 321.6c-2 6.4-6.1 16.8-13.9 27.7-19.2 27-41 28.6-47.2 43.8-4.6 11.3-1.3 32 40.7 73a40.7 40.7 0 0018.8-15.7 103.3 103.3 0 01-27.3-54.8c14.6-5 26.5-8.7 34.3-11.1 15.8-4.8 23.9-6.9 30.2-14.8 3.8-5 5.4-10.3 6.5-13.7a53.9 53.9 0 001.4-25c-14.5-3-29-6.2-43.5-9.4z" fill="#666"/><path opacity=".2" d="M146.5 330.7c-1.3 6-3.4 12.7-6.8 19.6A101.3 101.3 0 0191.6 396l30.2-9.6 15.8-5.5c14.4-5.2 16.8-6.5 19.3-9 4.3-4.3 5.5-9.2 7.2-16.4a70.6 70.6 0 001.4-25.1l-19 .3z" fill="#666"/><path opacity=".2" d="M94.3 394.7a86.8 86.8 0 0014.5 68.5 29 29 0 0011.9-13 95.3 95.3 0 01-26.4-55.5z" fill="#666"/></g><g><path d="M119.3 186.3a64.8 64.8 0 00-24.2 44c-1.3 10-.3 18.3.8 23.7a85.9 85.9 0 01-18.2 58.3A116 116 0 00166 335a465 465 0 0024.1-105.5 31 31 0 01-15-15c-.3-.6-6.2-14.6.4-23 4-5 9.5-4.4 9.5-6 0-4.1-39.5-18.7-65.8.9z" fill="#fff" stroke="#161616" stroke-width="1.3" stroke-miterlimit="10"/><path opacity=".1" d="M136.5 179.5a45.6 45.6 0 00-1 21c.1 5.7 6.3 34.2 2 61.2-5 31-21.7 54.9-29.9 65.3a98.2 98.2 0 0058.3 7.6 468.4 468.4 0 0023.6-104.3c-3.4-2.2-14-9.7-16.6-22.7-.7-3.8-2-10.1 1.8-15.8a18 18 0 0110.9-7.2c-25.2-9.5-45.6-11.5-49-5.1z" fill="#666"/><path opacity=".2" d="M173 212c.9 11.2.7 25.2-2.4 40.8-8 40.9-31.1 68.2-43.5 80.9a79.7 79.7 0 0038.8.6A393.5 393.5 0 00189.7 230a43.5 43.5 0 01-16.7-18z" fill="#666"/><path opacity=".1" d="M129 188.8c3.2 6 9.4 9.9 16 10 10.5.2 19-8.7 17.8-11.9-.9-2.2-7.3-3.5-33.8 1.9z" fill="#666"/></g><g><path d="M111.1 104.7c-2-.2-4 11-8.4 28.1-7 27-11.2 34-6.8 43.4.8 1.6 3.9 8 10.6 10.6 7.2 2.7 17.4 1 22.4-5.1 11.3-13.9-11-42.7-15.8-72-.3-1.3-.8-4.9-2-5z" fill="#0A0A0A"/><path d="M129.6 172.3a28.2 28.2 0 01-1 17.2 38.3 38.3 0 0025.6-2 63.2 63.2 0 01-5.4-19.6 16.5 16.5 0 01-19.2 4.4z" fill="#fff" stroke="#161616" stroke-width="1.3" stroke-miterlimit="10"/><path d="M111.7 112.1a58.9 58.9 0 006.9 56c2 2.5 4 4.4 5.2 5.6 9 .8 15.8-.6 19.9-1.9 3-.8 5.9-1.7 9-3.8 7-4.8 10-11.9 11.1-15.4 2 1.7 3.7 2 4.8 2 5.8-.5 11.8-11.3 8.3-18.5-2-4-6.1-5.6-7.8-6-1.3-5.2-6-21-20.9-29.8-3.8-2.3-15.2-9-25-4.4-6.4 3-9 9.6-11.5 16.2z" fill="#fff" stroke="#161616" stroke-width="1.3" stroke-miterlimit="10"/><path d="M131.4 176.2l-.7.2c-1 .4-.8 1.8.3 1.9 5.3.5 12-3 16.3-6 1-.7 0-2.3-1-1.6-4 2.7-10.3 6.1-15.3 5.7l.2 1.8c.2 0 .5 0 .7-.2 1.1-.4.6-2.3-.5-1.8z" fill="#161616"/><path d="M131.6 177c4-.5 8.2-1.6 12-3.2 1.2-.4.7-2.3-.5-1.8a53 53 0 01-12 3.2c-1.3.2-.8 2 .5 1.9z" fill="#161616"/><path d="M131.8 176c1.4.2 3 .1 4.3-.3 1.3-.3.8-2.2-.5-1.9-1.2.4-2.5.4-3.8.3-1.2-.1-1.2 1.8 0 2zM143.8 143c1.2 0 1.2-2 0-2-1.3 0-1.3 2 0 2zM149.8 142v-.1c0-.6-.5-1-1-1a1 1 0 00-1 1c0 .6.5 1 1 1s1-.4 1-1zM146.7 146.7c1.3 0 1.3-2 0-2-1.2 0-1.2 2 0 2zM113.6 138.6c1.2 0 1.2-2 0-2s-1.2 2 0 2zM118.2 137.1c1.2 0 1.2-1.9 0-1.9-1.3 0-1.3 2 0 2zM117 141.7c1.3 0 1.3-2 0-2-1.2 0-1.2 2 0 2z" fill="#161616"/><path d="M108.4 124.3a21.6 21.6 0 01-4.3-13 22 22 0 012.4-9.6c3-6 7.3-9.2 11-11.7 3.3-2.4 9.6-6.8 18.5-7.6a41 41 0 0127 8.7c12 7.8 17.4 18 18.6 20.2 2 3.9 3 7.2 4.6 12.3 1.8 5.5 1.8 7 4.7 19.9 2.8 12.6 3.2 13 3 15.8-.8 9.5-7 15.9-8 17-8.6 8.7-19.8 8.3-23.6 8.1-5.2-.2-7.4-1.6-8.3-2.2-5-3.6-5.4-10.6-5.4-12a28.5 28.5 0 0014-19.9c4.9 1.5 9.9-.4 12-4 2.8-5.4-1.2-13-5.8-13.7-.7-.1-2.7-.2-5.2 2a63.3 63.3 0 00-34-33.6 37.7 37.7 0 00-21.2 23.3z" fill="#0A0A0A"/><path opacity=".1" d="M146.5 111a42.4 42.4 0 016.6 23c-.3 25-24.3 38.9-25.8 39.7 1.5.2 16.7 2.6 27.2-8.1a29.2 29.2 0 007.8-15.3c1 .3 3.5 1 6.3 0 .8-.1 4.9-1.3 6.3-5.2.6-1.8.4-3.4.3-4.3a10 10 0 00-2.3-6c-.7-.7-1.8-2-3.6-2.4-3-.6-5.2 1.6-5.5 1.8a63.5 63.5 0 00-17.3-23.2z" fill="#666"/><path opacity=".2" d="M144.5 190l-5.7-16.5 9.6-3.1 5.1 17-9 2.7z" fill="#666"/><path opacity=".2" d="M163 147.4a45.5 45.5 0 01-31.9 26c1.9.1 13.2.9 21.6-6 4.6-3.9 7-8.7 7-8.7a50.3 50.3 0 003.3-11.2z" fill="#666"/><path opacity=".2" d="M148.8 189.3l-5.5-17.1 4.8-1.7 5.3 17.1-4.6 1.7z" fill="#666"/><path d="M129.6 124.5c-1.7 7-3.2 14-4.3 21-.2 1.1-.6 2.5.6 3.1 1.5.8 4.9-.3 6.4-.6 1.2-.3.7-2.1-.6-1.9-1 .3-2.9.9-3.8.7-1.3-.2-1 0-.6-1.4.5-2.2.8-4.6 1.2-6.8l3-13.5c.3-1.2-1.6-1.7-1.9-.6zM113.4 131.1c2.5-2.9 7-3 9.5-.2.6.7 1.7-.3 1-1a7.8 7.8 0 00-11.5.2c-.6.7.4 1.7 1 1zM140 131.8c3.4-2.2 8-1.2 10.2 2.3.5.8 1.7 0 1.2-.7a8.8 8.8 0 00-12.2-2.8c-.8.5 0 1.8.8 1.2zM117.4 120c2.3-1.3 5-1.2 7.2 0 .8.5 1.5-.7.7-1.2a8.8 8.8 0 00-8.7 0c-.8.3 0 1.6.8 1.1zM140.7 120.3c3.2-.5 6.2.4 8.8 2.2.7.6 1.4-.7.7-1.2a13 13 0 00-9.9-2.4c-.9.2-.5 1.6.4 1.4zM120.1 156.2c7.1 2.2 14.6.6 20.2-4.3.8-.5-.3-1.6-1-1-5.2 4.5-12.2 6-18.8 3.9-.9-.3-1.3 1-.4 1.4z" fill="#161616"/></g></g><g filter="url(#filter0_d)"><rect x="282" y="204" width="441.4" height="573.8" rx="11.8" fill="#fff"/><path d="M556 298.6a53.3 53.3 0 11-106.6 0 53.3 53.3 0 01106.6 0zm-59.5 28.2l39.6-39.6a3.4 3.4 0 000-4.8l-4.9-4.9a3.4 3.4 0 00-4.9 0l-32.2 32.2-15-15a3.4 3.4 0 00-5 0l-4.8 4.9a3.4 3.4 0 000 4.8l22.4 22.4a3.4 3.4 0 004.8 0z" fill="#21B186"/><text fill="#000" style="white-space:pre" font-family="Lato" font-size="23.1" font-weight="bold" letter-spacing="0em"><tspan x="420.9" y="389.7">Congratulations</tspan></text><text fill="#000" style="white-space:pre" font-family="Lato" font-size="29.7" font-weight="bold" letter-spacing="0em"><tspan x="363.2" y="435.3">You Have Won 500/-</tspan></text><g><path d="M412.5 700.4c13 0 25.1 5.5 38 7.3 12.3 1.7 24.6-1.2 36.8-3 6.1-1 12.3-1.8 18.6-1.5 6.4.3 12.4 2 18.2 4.7 5.3 2.4 10.5 5.1 16.1 6.7a36.1 36.1 0 0016.3.6c12.9-2.2 24.7-9.2 38-9.2.3 0 .3-.6 0-.6-11.7-.1-22.3 5.2-33.3 8a40.5 40.5 0 01-17.5 1.3c-6-1-11.4-3.8-16.8-6.3a58.7 58.7 0 00-16.7-5.5c-6-.8-12.2-.4-18.3.4-12.3 1.6-24.5 5-37 4.2-14.4-1-27.8-7.8-42.4-7.8-.4 0-.4.7 0 .7zM394.5 703c2.7-1 5.4-1.6 8.2-2 .5-.1.3-.8-.1-.7-2.9.4-5.6 1.1-8.3 2.1-.4.2-.2.8.2.7zM389.7 708.9c15-6.6 31.2.8 45.8 4.6 4.3 1.1 8.7 2 13.1 2.2.5 0 .5-.6 0-.6-16.1-1-30.8-10-47.1-9.4-4.2.1-8.3 1-12 2.6-.5.2-.1.8.2.6zM459 721.2c3.5-.5 6.8-1.6 10-2.8 3.3-1 6.6-2 10-2.7a78.4 78.4 0 0133.2.4c.4.1.6-.5.2-.6a78.7 78.7 0 00-42 1.8c-3.8 1.2-7.5 2.7-11.5 3.3-.4 0-.2.7.2.6zM539.2 722.1c4.6 2.4 10 2.5 15 1.8 5.9-.8 11.6-2.4 17.3-4 11.4-3.5 22.7-7.6 34.6-8.3a46 46 0 0119.3 2.6c.4.2.6-.4.1-.6-22.5-8.6-45.3 4.6-67.1 8.9-6.2 1.2-13 2-18.9-1-.4-.2-.7.4-.3.6zM607.8 706.3c5-.1 10 .9 14.7 3 .4.2.7-.4.3-.6a34.3 34.3 0 00-15-3c-.5 0-.5.6 0 .6z" fill="#161616"/><g><path d="M421.4 483.7a108.8 108.8 0 01-20.6 62.4c-.3.3.3.7.5.3a110 110 0 0020.8-62.7c0-.4-.7-.4-.7 0zM424.2 484.5a50.1 50.1 0 0047 2.4c.4-.2.1-.8-.3-.6a49.6 49.6 0 01-46.4-2.4c-.3-.2-.6.3-.3.6zM476.8 486.7a37.4 37.4 0 0020.9 15.7c10.3 3.1 21.4 1 31.5-1.6a56.4 56.4 0 0016.1-6.8c.4-.3 0-.8-.3-.6a54.5 54.5 0 01-14 6.2 100 100 0 01-15.8 3.3 37.3 37.3 0 01-37.8-16.5c-.2-.4-.8 0-.6.3zM548 494.4a116 116 0 00-2.4 26.2c.4 7.2 2.3 14.6 8.1 19.2 3.5 2.8 7.7 4.3 11.8 5.8.4.2.6-.5.2-.7-3.6-1.3-7.4-2.6-10.6-4.8a19 19 0 01-6.7-8.6 47.6 47.6 0 01-1.8-21.6 154 154 0 012-15.3c0-.4-.6-.6-.6-.2zM402.5 550.2a64.2 64.2 0 0148.6 38.4c.2.4.8.3.7-.1a64 64 0 00-49.1-39c-.5 0-.6.7-.2.7zM455.5 589.2a36.8 36.8 0 0128-6.2 66.5 66.5 0 0128.1 12.4c5.1 3.6 10 7.6 14.7 11.5.4.3.8-.2.5-.4a137.3 137.3 0 00-27.7-19.3 49.5 49.5 0 00-29.4-4.8 33 33 0 00-14.7 6.3c-.3.3.1.8.5.5zM526 602.8a69.3 69.3 0 0141.3-48c.4-.1.2-.7-.2-.6a71 71 0 00-41.7 48.4c-.1.4.6.6.6.2z" fill="#E8E8E8"/><path d="M425.2 563c3.4 1.4 5.9 4.3 8.3 7a83.9 83.9 0 0116.5 28c.1.4.8.2.6-.2a82.1 82.1 0 00-16.6-28.3c-2.5-2.7-5-5.6-8.4-7-.4-.3-.8.3-.4.5zM476 490.3a29 29 0 0016.2 12.4c.4.1.6-.5.2-.7-6.5-2-12.2-6.2-15.7-12-.3-.4-.8 0-.6.3zM421.8 479a31.1 31.1 0 0024.6 4.4c.4-.1.3-.8-.2-.7-8.2 2-17 .4-24-4.3-.4-.3-.7.3-.4.6zM398.1 541.7c3.6-4 6.7-8.3 9.3-13 .2-.4-.4-.7-.6-.3-2.5 4.6-5.6 8.9-9.1 12.8-.3.3.1.8.4.5zM419.8 515.4c-.3 3.2-2 6.2-3.3 9a388 388 0 01-4 8.8c-.3.4.3.7.5.3 1.6-3.1 3-6.3 4.5-9.5 1.3-2.7 2.7-5.5 3-8.6 0-.4-.6-.4-.7 0zM523.9 591c3.5-9 9.2-17.2 16.4-23.6.3-.3-.2-.8-.5-.5a62.4 62.4 0 00-16.6 24c-.1.3.5.5.7.1z" fill="#161616"/><path d="M418.7 488.5l-1.1 7.2c0 .4.6.6.6.1l1.2-7.2c0-.4-.6-.6-.7-.1zM476 480.8a53.8 53.8 0 0017.5 13.8c.4.2.7-.4.3-.6-6.7-3.3-12.6-8-17.4-13.6-.3-.4-.8.1-.5.4zM515.5 507c5.6.2 11.2-1 16.3-3.3.4-.2 0-.8-.3-.6-5 2.3-10.5 3.4-16 3.1-.5 0-.4.7 0 .7zM535.5 496.7c4.7-2.4 9-5.5 12.7-9.4.3-.3-.2-.7-.5-.4a44 44 0 01-12.6 9.2c-.4.2 0 .7.4.6zM456.8 584.9a25 25 0 0122.3-7.2c.4 0 .6-.6.2-.7a25.6 25.6 0 00-23 7.4c-.3.3.2.8.5.5z" fill="#8C8C8C"/><path d="M407 547.4c4.7 1 9.3 2.6 13.6 4.8.4.2.7-.4.3-.6-4.3-2.2-9-3.8-13.7-4.8-.4-.1-.6.5-.2.6zM424.6 492.9c.3 2.6.3 5.2.1 7.9 0 .4.7.4.7 0 .2-2.7.1-5.3-.1-8 0-.3-.8-.3-.7 0zM511.9 583c2.6-5.1 6.9-9.2 12-11.8.5-.2.1-.7-.2-.6a27.2 27.2 0 00-12.4 12c-.2.4.4.8.6.4z" fill="#353535"/><path d="M497.9 534.7c2-1.3 4.2-2 6.6-1.8.5 0 .5-.7 0-.7a11 11 0 00-7 2c-.3.2 0 .8.4.5zM503.3 528.7c2 .4 3.9 1 5.7 1.7.4.2.6-.5.2-.7a33 33 0 00-5.7-1.7c-.4 0-.6.6-.2.7zM454.6 511.4c.7-3.1 2.3-5.9 4.6-8.2.3-.3-.2-.7-.5-.4a17 17 0 00-4.7 8.5c-.2.4.5.6.6.1zM459.5 512.1c3.4-2.5 7.1-4.5 11.2-5.7.4-.2.2-.8-.2-.7-4.2 1.3-8 3.3-11.4 6-.4.2 0 .7.4.4z" fill="#8C8C8C"/><path d="M452.8 556.4c.8 2.2 1 4.4.3 6.6-.1.5.5.6.6.2a11 11 0 00-.3-7c-.1-.4-.8-.2-.6.2zM458.5 557.2c1.2 1.4 2.7 2.6 4.3 3.4.4.2.7-.4.4-.6-1.7-.8-3-2-4.2-3.3-.3-.3-.7.1-.5.5zM531.4 552.8c1 1 1.5 2.5 1.2 4 0 .5.6.6.7.2.3-1.7-.2-3.4-1.4-4.7-.3-.3-.8.1-.5.5zM537 551.7l2.4 2.8c.3.4.8-.1.5-.4l-2.5-2.8c-.2-.4-.7 0-.4.4zM504.5 559.7c1.6-2.7 3.6-5 6.1-6.9.3-.3 0-.8-.3-.6a24 24 0 00-6.3 7.2c-.2.4.3.7.5.3z" fill="#353535"/><path d="M585.6 511.3c1.8 0 3.3-1.4 3.3-3.1 0-1.8-1.5-3.2-3.3-3.2a3.2 3.2 0 00-3.2 3.2c0 1.7 1.4 3.1 3.2 3.1z" fill="#444"/><path d="M591.6 518.5c1.6 0 2.8-1.2 2.8-2.6 0-1.5-1.2-2.7-2.8-2.7a2.7 2.7 0 00-2.7 2.7c0 1.4 1.2 2.6 2.7 2.6z" fill="#191919"/><g><path d="M426.7 533.6l1.2 5.2a61 61 0 006.3 14.6c.7.2 1.6.4 2.8.5 1.6.2 4.3.6 7.2-.3.8-.2.4-.2 3.6-1.5 3.1-1.3 3.3-1.2 4.5-1.8 2-.9 4-2.2 7.6-4.7l4.2-3 .2-3c0-2-.5-3.5-1-5.6l-2.1-7-2.8-1.6a28 28 0 00-9.3-2.6 32.1 32.1 0 00-18.9 8 37.9 37.9 0 00-3.5 2.8zM521.2 525.4a55.7 55.7 0 00-7.9 10.9l4.1 6 9.2 3.6 8.8-9.1-2.3-7.4a43 43 0 00-12-4z" fill="#fff"/><path d="M426.5 533.8c.8 7.2 4 13.8 7.4 20.1.2.4.8 0 .6-.3a53.1 53.1 0 01-7.3-19.8c0-.4-.7-.4-.7 0z" fill="#161616"/><path d="M427.1 534c5.5-6 13-9.8 21-10.9.5 0 .5-.7 0-.7-8.2 1.1-15.8 5-21.5 11.1-.2.4.2.8.5.5z" fill="#161616"/><path d="M448.2 523a58.6 58.6 0 017 18.2c0 .4.7.2.6-.2a59.4 59.4 0 00-7-18.3c-.3-.4-.9 0-.6.3z" fill="#161616"/><path d="M434.7 553.9a62.3 62.3 0 0017.1-8.3c1.6-1 3.2-2.2 4-3.9.3-.4-.3-.7-.5-.3-1 1.8-2.8 3-4.4 4.1a61.1 61.1 0 01-16.4 7.7c-.4.2-.2.8.2.7zM448.6 523a22 22 0 0112.2 4.4c.4.2.7-.4.3-.6-3.6-2.7-8-4.2-12.5-4.4-.5 0-.5.7 0 .7z" fill="#161616"/><path d="M460.8 527c2 4.8 3 9.8 3 14.9 0 .4.8.4.8 0 0-5.2-1.2-10.4-3.3-15.2-.1-.4-.7 0-.5.4z" fill="#161616"/><path d="M455.5 541.8c2.7 1.8 6 1.3 9 .5.5-.2.3-.8-.1-.7-2.9.8-6 1.3-8.6-.4-.4-.2-.7.3-.3.6zM434.3 554c4 .9 8.1.6 12-1 .3 0 .1-.7-.3-.6a19.4 19.4 0 01-11.5 1c-.4-.1-.6.5-.2.6z" fill="#161616"/><path d="M446.4 553a61.6 61.6 0 0018.2-10.7c.4-.3-.1-.7-.4-.4-5.4 4.5-11.4 8-18 10.5-.4.2-.2.8.2.6zM520.7 525.4c-2.9 3.3-5.5 6.9-7.8 10.6-.2.3.4.7.6.3 2.3-3.6 4.9-7.2 7.6-10.5.3-.3-.1-.8-.4-.4z" fill="#161616"/><path d="M521 526c4 .6 7.9 1.9 11.5 3.7.4.2.7-.4.3-.6a38.9 38.9 0 00-11.7-3.8c-.4 0-.5.6-.1.6zM513 536.7l10.3 5c.4.2.7-.4.3-.6l-10.3-5c-.4-.2-.8.4-.4.6z" fill="#161616"/><path d="M532.7 529.4c-3 4-6 8-8.8 12.2h.5l-.8-.5c-.3-.2-.7.4-.3.6l.8.4.4-.1c2.8-4.2 5.7-8.2 8.8-12.2.2-.4-.4-.7-.6-.4z" fill="#161616"/><path d="M532.6 529.8a36 36 0 012.2 7.3c.1.4.8.2.7-.2-.5-2.6-1.3-5-2.3-7.4-.2-.4-.8 0-.6.3zM524.2 542.1a26 26 0 012.3 3.7c.2.4.7 0 .5-.3a26 26 0 00-2.3-3.7c-.2-.3-.8 0-.5.3z" fill="#161616"/><path d="M527 545.8c3-2.7 5.7-5.5 8.3-8.5.3-.3-.2-.8-.5-.5-2.6 3-5.3 5.8-8.2 8.5-.3.3.1.8.4.5zM513 536.9l4.3 5.6c.3.3.9 0 .6-.4l-4.3-5.6c-.3-.3-.9 0-.6.4z" fill="#161616"/><path d="M517.4 542.7l9 3.5c.4.1.6-.5.2-.7l-9-3.4c-.4-.2-.6.5-.2.6z" fill="#161616"/><path d="M433.6 527.8l8.5 22.6 6.4 1.8 4.8-2.2-5.5-2.3-8.7-22.9a36.9 36.9 0 00-5.5 3z" fill="#303030"/><path d="M454 523.4a40 40 0 015 19 86.6 86.6 0 01-21.4 12h4.4a92 92 0 0020.4-11.8 342.8 342.8 0 00-3.9-17.2 7.2 7.2 0 00-4.5-2zM436.3 526.1c-.5-.4.1-2.8 2-3.6 1.3-.6 3-.1 4.3 1.2l-3 1c-2.2 1-3 1.7-3.3 1.4z" fill="#303030"/><path d="M439.4 523.7a13.3 13.3 0 006.3-11.5c.4-.1 2.6-.8 3.9.3 1.7 1.5.1 5-.2 5.8a9.3 9.3 0 01-3.1 3.7c-2.9 2-6 1.8-7 1.7zM428 517.8c1-.2 1.7 1.8 4 3.8 2 1.7 4.4 2.5 6.2 3-.7.5-2.2 1.5-4.2 1.7-2.8.4-6.8-.7-7.7-3.5-.7-2 .4-4.8 1.6-5z" fill="#303030"/><path d="M525.3 526.3l-8.7 11.5 3.1 5.7 2.7 1-2-4.7 7.8-12.6-2.9-1z" fill="#777"/><path d="M534 532.5l-8.8 9.8-10.3-3 1.7 2.2 9.7 3.3 8.4-9.5a63 63 0 00-.6-2.8zM528.2 527c.1-.4 1.8-.9 2.9 0 .7.5 1.1 1.6.8 1.9-.6.6-3.9-1.1-3.7-1.8z" fill="#777"/><path d="M526.4 519.9c.5-.3 1.5.5 1.8.8.3.2 1.2 1 1.8 3.5.4 1.2.9 3 .4 3.3-.6.3-2.4-1.6-3.4-3.5-.7-1.6-1.2-3.8-.6-4.1zM539.4 527.8c0-.5-1.2-1-1.5-1-.3-.2-1.5-.6-4 0-1.3.3-3.2.7-3.2 1.2 0 .7 2.4 1.3 4.7 1.2 1.7-.1 4-.7 4-1.4z" fill="#777"/><path opacity=".1" d="M434.5 553.8a98 98 0 005.6-2.2c4-1.6 6.7-2.8 9.8-4.9 1.6-1 3.7-2.7 5.9-5a29.6 29.6 0 003-16.2l2.4 1.4a46 46 0 013.1 15.4 65.3 65.3 0 01-6.2 4.7A42 42 0 01444 554a21.2 21.2 0 01-9.4-.1zM513.4 536.3l4.3 6.1 8.9 3.5 8.5-9.2-2-7.2-8.8 11.9-11-5z" fill="#353535"/></g></g><g><path d="M476.7 708.6c.9-1.1 1.4-1.7 1.6-1.5.5.3-1.3 4.8-5.5 13.6-10.3.5-15.5.2-15.7-.8 0-.9 3.7-2.3 11.5-4.3l5.1-10.8 3 3.8z" fill="#000"/><path d="M482 637.2a608.3 608.3 0 01-14.3 70.2c.6.7 2.2 2.3 4.9 3 3.4 1 6.2 0 7-.3l15.1-53.1c6.6-7.3 5.4-16.6.3-20-3.4-2.3-8.5-2-13 .2z" fill="#595959"/><path opacity=".1" d="M482.2 637.6a230 230 0 01-9.8 72.7 9.1 9.1 0 01-4.6-3c1.4-4.8 3.3-12.1 5.4-21.1 6.3-28.2 8-48.7 9-48.6z" fill="#353535"/><path opacity=".1" d="M478.4 661a265.4 265.4 0 01-8.4 48 3 3 0 01-2.1-1.5 2408.2 2408.2 0 0010.5-46.4z" fill="#353535"/><path d="M519.5 708c-1-1.2-1.6-1.7-1.8-1.6-.6.3 1.4 4.8 6 13.6 11.4.5 17 .2 17.3-.8 0-.8-4.1-2.3-12.7-4.3l-5.6-10.8-3.2 3.8z" fill="#000"/><path d="M490.5 642.6c-.8 4 1 7.2 1.7 8.3l22.2 59.3c1.2.2 3.8.4 6.8-.7 3.4-1.2 5.3-3.3 6-4.3-4.3-9.4-7-17.2-8.8-22.6-4.4-14-10.4-27.5-14.7-41.6-.7-2.3-1.9-6.4-4.6-7-3.2-.5-7.6 3.9-8.6 8.6z" fill="#595959"/><path opacity=".1" d="M497.4 634.2c-1.5 1.1 1.4 7 2.7 10 3.3 7.3 5 15 8.1 22.3 3.4 7.8 8.4 20.5 15.5 41.7a9 9 0 003.5-3c-1.8-3.8-4.4-9.6-7-16.9-1-2.5-1.1-3-2.2-6.2a1229 1229 0 00-3.2-9.7c-1.7-4.8-1.7-4.2-4.8-12.8l-2.7-7.5-1.2-3.8c0-.2-1.5-4.7-3.6-10.2-.6-1.4-1.1-2.8-2.6-3.6 0 0-1.7-.9-2.5-.3z" fill="#353535"/><path opacity=".1" d="M508.3 655s2.9 9.4 17.2 52l1.8-1.7c-.9-2-2.3-5-3.8-8.9-3.6-8.8-5.2-14-9.2-25.2-2.2-6.3-5.8-16.2-6-16.2z" fill="#353535"/><g><path d="M514.7 571.7c-.6 0-1-1.5-1.5-1.5-.4 0-.7 1-.7 1.2-.3.9-.2 1.8.7 4.3l1.1 2.7a53.3 53.3 0 01-8.7 22.2 40.5 40.5 0 01-6.4 6.8c-1 2.4-1.2 4.5-1.1 5.7 0 .7 0 4 1.3 4.4.8.2 1.8-1 2.3-1.6 5-6.4 7.5-9.5 8.5-11.3a62.2 62.2 0 008-22.3l2-3.5c2.3-4 3-5.9 3.6-7.9.5-2 .6-3.9 0-4-.3-.2-.8.5-1.2.3-.6-.3 0-2.1-.6-2.5-.3-.2-.8-.1-1.8.5-.7-1.4-1.1-1.7-1.4-1.7-.6.1-1 1.8-1 3.7-.2-1-.7-2.9-1.2-2.9s-1 1.4-1.1 2.5c-.2 1.6.2 2.7-.3 4.3l-.5.6z" fill="#fff"/><path d="M513.9 578.1c0 3-1 5.8-2 8.6-.8 2.6-1.8 5.3-3 7.8-2.2 4.6-5.2 8.9-9.2 12.2-.3.3.2.8.5.5a37 37 0 009.5-12.8c1.1-2.5 2.1-5 3-7.7.9-2.8 1.8-5.6 1.8-8.6 0-.4-.6-.4-.6 0zM517.9 582c-.6 7-3.7 13.7-6.9 20a42 42 0 01-11.4 15.2c-.4.3 0 .9.3.6 5.3-4 8.8-9.6 11.7-15.5a57.6 57.6 0 007-20.3c0-.4-.7-.4-.7 0z" fill="#161616"/><path d="M514.4 577.7c-.7-1.6-1.4-3.5-1.5-5.3V571c.6-.4.8.2 1 .5.2.5.3.8.8 1 .4.3.7-.3.3-.5-.7-.5-.7-1.7-1.6-2-.7-.3-1 .3-1.1 1-.6 2.3.6 5 1.5 7 .3.5.8.1.6-.3z" fill="#161616"/><path d="M515.2 572.4c.8-1.8.6-3.6.6-5.4 0-.5 0-1.4.2-1.8.5-.5.8.7 1 1 .2 1.2.3 2.4.2 3.7 0 .4.6.4.7 0 0-.9 0-6.8-2-5.8-.7.4-.7 2-.7 2.6 0 1.8.2 3.6-.6 5.3-.1.4.4.8.6.4z" fill="#161616"/><path d="M518 570c0-.9.2-1.7.3-2.5 0-1-.1-2 .2-2.8.2-.8.4-1 .7-.3l.4 1.6a8 8 0 01-.1 3.2c-.1.4.5.6.6.2a9 9 0 00.1-3.9c-.1-.6-.5-2.3-1.3-2.3s-1.1 1.2-1.2 1.8l-.4 4.7c0 .5.6.7.7.2z" fill="#161616"/><path d="M520.4 569.3v-2c.1-.7 0-2.3.8-2.2.6 0 .5.5.6 1a16 16 0 01-.2 3.5c-.1.4.6.6.6.2.3-1.1 1-5.6-1-5.7-1.8 0-1.4 4.2-1.5 5.3 0 .4.6.4.7 0z" fill="#161616"/><path d="M522.8 567.4h.8v.5l.1 1.2c0 .7-.1 1.5-.3 2.2-.4 1.3-1 2.6-1.6 3.9l-3.8 7c-.3.3.3.6.5.3l3.3-5.9c1-1.8 2-3.7 2.4-5.8.2-1 .7-3.6-.5-4.4-.7-.5-1.7.1-1.6 1 0 .4.7.4.7 0z" fill="#161616"/><path opacity=".1" d="M521.6 564.8c-.3 0-.4 1.5-.6 3.1-.4 3-.8 6.2-2.2 9-.4.8-1.2 2.1-2.7 3.6a57 57 0 01-9.6 24.1c-1.4 1.7-3.6 4-6.8 6.3l-.3 6.6c1.4-1 3.4-2.8 5.5-5.2 2.7-3.1 4.5-6.7 8-13.7a56.2 56.2 0 005.3-16.5 55 55 0 003.5-6.2c1.3-3 3.5-7.6 2.2-8.8-.4-.3-1-.3-1.4-.2-.2-1-.5-2-.9-2z" fill="#353535"/><path opacity=".1" d="M520.8 578l-3.6 3.7c0 1.1-.3 2.7-.7 4.6-1 3.6-2.2 6.1-2.8 7.2a69 69 0 00-4.6 12.6c.7-1.2 4.6-8 6.8-13.9.8-2.2 1.3-3.4 1.6-5.2.5-2.1.4-3.1 1-4.9a13 13 0 012.3-4.1z" fill="#353535"/></g><g><path d="M458.7 566.8c-.7.2-.7 2.1-.6 3.2.2 2 1 3.4 1.2 4l4.3 7.6a49.3 49.3 0 005.5 18c3.1 6.6 5 10.4 8.9 14.4 1.4 1.5 2.8 2.7 3.7 3.4a8 8 0 002-6.1 8 8 0 00-2.6-5c-1-.8-2.7-2.3-4.3-4.3a44 44 0 01-7.2-15.4c-.6-1.8-1.4-4.3-2.1-7.4a82 82 0 011-3.2c.7-2.1 1.2-3.2.9-4.6-.1-.3-.3-1-.8-1.1-.5-.2-1.3.5-1.9 1.6l-.5-4.5c-.1-1.7 0-2.9-.4-3-.4 0-1 1.3-1 1.4a6 6 0 00-.5 3.2c.2-4.2-.3-5.2-.8-5.3-.4-.2-1 .4-1.1.6-1 1.1-.5 2.7-.5 2.9-.5-2.5-1-2.7-1.1-2.7-.4 0-.8.9-1 1.4a3 3 0 000 1.5c-.3-.4-.8-.7-1.1-.6z" fill="#fff"/><path d="M467.3 578.1c0 3 .9 5.7 1.7 8.4.9 2.7 1.8 5.4 3 8 2.2 4.8 5.2 9.2 9.2 12.7.3.3.8-.2.5-.5a36.5 36.5 0 01-9-12.2A60.3 60.3 0 01468 578c0-.4-.7-.4-.6 0zM463.4 582c.6 7.1 3.5 13.8 6.6 20.1a42.8 42.8 0 0011.5 15.7c.3.3.8-.2.4-.5a42 42 0 01-11.2-15.2c-3-6.3-6-13-6.6-20 0-.5-.7-.5-.7 0z" fill="#161616"/><path d="M468 578.1c.9-2 2-4.9 1.4-7.3-.1-.5-.4-1-1-.7-1 .3-.9 1.5-1.7 2-.3.2 0 .8.4.6.3-.2.5-.5.7-.9.1-.1.2-.6.4-.7.8-.6.7.8.7 1.2 0 1.9-.8 3.8-1.6 5.5-.1.4.5.7.7.3z" fill="#161616"/><path d="M467.2 572c-.7-1.5-.5-3.3-.5-5 0-.7 0-2.4-.8-2.9-1.9-1-2 5-1.9 5.8 0 .5.7.5.7 0-.1-1.1 0-2.3.2-3.4 0-.3.3-1.7.9-1.4.2.1.2 1.6.2 2 0 1.8-.1 3.6.6 5.3.2.4.8 0 .6-.3z" fill="#161616"/><path d="M464.6 569.8l-.4-4.7c0-.6-.4-1.8-1.2-1.9-.8 0-1.1 1.6-1.2 2.2a9 9 0 000 4c0 .4.7.3.6-.1-.2-1-.2-2-.1-3l.3-1.6c.4-.8.5-1 .8 0 .3.8.1 1.8.2 2.7 0 .8.2 1.7.4 2.6 0 .4.7.2.6-.2z" fill="#161616"/><path d="M462.3 569.4c-.2-1 .3-5.3-1.5-5.2-2 0-1.2 4.5-1 5.6 0 .4.7.2.6-.2a13 13 0 01-.2-2.4c0-.7-.2-2 .6-2 .7-.2.6 1.5.7 2v2.2c.1.4.8.4.8 0z" fill="#161616"/><path d="M460 567.4c0-.8-.9-1.5-1.6-1-1.1.8-.7 3.2-.5 4.3.4 2 1.2 3.8 2.2 5.6l3.3 6.2c.2.4.8 0 .6-.4l-3.8-7c-.6-1.3-1.2-2.5-1.5-3.8-.2-.7-.3-1.4-.3-2.2v-.8l.1-.8c0-.4.3-.4.8-.1 0 .4.6.4.6 0z" fill="#161616"/><path opacity=".1" d="M461 564.7c.6.2.1 3 0 4-.2 2.2.3 5.7 4 10.7a67.5 67.5 0 0016.3 32.2l.6 6a27.6 27.6 0 01-9.3-11.1 56 56 0 01-8.9-24.6c-1.7-2.3-3-4.4-3.8-6a14 14 0 01-1.9-6.9c0-2 .4-2.3.6-2.3.3-.2.8.1 1 .3 0 0-.2-1 .5-1.8.1-.1.5-.6.9-.5z" fill="#353535"/><path opacity=".1" d="M459.2 572.7c.2-.1 1.6 1.8 2.5 3.4 2.3 3.8 3.3 7.2 3.5 8 1.5 5.1 3.4 9.5 7.2 18.2 1.2 2.6 3 6.4 5.4 10.9l-2.8-3a45 45 0 01-7.4-14 85.5 85.5 0 01-3.9-13.8 75 75 0 01-2.9-5.5c-.5-1-1.9-4-1.6-4.2z" fill="#353535"/></g><g><path d="M491 604.4c-.9 0-2.3-.2-4 0-2.2.2-4 .4-5.5 1.7-1 .9-1.3 2-1.9 4.3-.3 1.3-.8 3-.7 5.5 0 4.5 1.7 5 2.6 10.5.5 2.6.4 4.6.4 7 0 3.3-.4 6-.7 8.2a17.8 17.8 0 0013.6 3.6 16 16 0 008.6-4.4 24.2 24.2 0 01-1.6-10c.1-2.7.7-3.3 1.6-9.3.6-4.5.6-6.4.5-7.4-.1-4-.2-6-1.6-7.4-1.3-1.4-4.7-1.7-11.4-2.3z" fill="#fff"/><path d="M489.8 604.3c-1.7-.1-3.3 0-5 .2-1.3.3-2.8.5-3.7 1.7a13 13 0 00-2.5 7.5c-.3 6.6 3 12.6 4 19 .1.5.8.3.7-.1-1-5.8-3.8-11.2-4-17.1-.2-2.7.3-5.5 1.6-7.9.5-.8 1-1.6 2-1.9l1.9-.5c1.6-.3 3.3-.4 5-.3.4 0 .4-.6 0-.6z" fill="#161616"/><path d="M481.1 626.3c.7 5 .6 9.9-.2 14.8 0 .4.6.6.6.2.9-5 1-10 .3-15 0-.4-.8-.4-.7 0zM492.5 604.9c3-.2 6.7.1 9.3 2 1.5 1 1.6 2.9 1.7 4.6.2 1.5.3 3 .1 4.7-.4 6-2.9 11.9-2.8 18 0 .5.6.5.6 0 0-7 3.2-13.5 3-20.5-.1-2.6 0-6-2.6-7.6-2.6-1.7-6.2-2-9.3-1.9-.4 0-.4.7 0 .7z" fill="#161616"/><path d="M501.5 627.5c0 4.4.4 8.8 1.5 13 .1.4.8.3.7-.2-1-4.2-1.6-8.5-1.6-12.8 0-.4-.6-.4-.6 0z" fill="#161616"/><path d="M481 641.7c3 2.5 6.8 4 10.8 4 4.5.1 8.3-2 11.7-4.7.4-.3 0-.9-.3-.6a18.8 18.8 0 01-11 4.7c-4 0-7.8-1.4-10.8-3.9-.3-.2-.8.2-.5.5z" fill="#161616"/><path opacity=".1" d="M497.9 604.7c.7 1.7 1.5 4.2 2 7.4a36 36 0 01-2.4 16.8c-1.3 4.2-3.5 10-7.4 16.4a17.4 17.4 0 0013.1-4.7l-.8-4.9c-.6-3.3-.8-3.5-.8-4.7-.1-1.5.1-1.3 1.4-7.5.6-2.4 1-4.6 1.2-7.4v-.8c.1-3.7.2-6-1.4-7.9a8.4 8.4 0 00-5-2.7z" fill="#353535"/><path opacity=".1" d="M504.3 615.4c-.1 0-1 1.2-2.8 6.1-2 5.4-4.4 13.2-6.4 23.2 1-.1 2.4-.4 3.9-1 2-1 3.3-2.2 4-3a36 36 0 01-1.3-10.1c0-8.4 3-15 2.6-15.2z" fill="#353535"/></g><g><path d="M482.8 588.1a6.8 6.8 0 00-.4 4.5s-1.1 0-1.7.7c-.7.9 0 2 0 2.2.2.3.4.6.9.8.6.2 1.3-.4 1.3-.5.3.9.9 2 1.8 3 1.3 1.8 2.8 2.8 3.8 3.3l.1 3.2c.3.2.8.6 1.5.8 1.5.3 2.7-.7 2.8-.8v-4l1.9-2c1.3-1.7 1.7-3.4 2-4.4l1 .1c.6 0 1.2 0 1.5-.4.3-.4 0-1-.4-1.8-.3-.6-.6-.7-.6-.7-.4-.1-.8 0-.9.1a7.6 7.6 0 00-3.6-7.4c-3.6-2-9.2-.3-11 3.3z" fill="#fff"/><path d="M482.4 588.2c-1.3 5.8.9 13.2 7.4 14.5.5 0 .6-.6.2-.7-6.2-1.1-8.1-8.2-7-13.6.2-.5-.5-.7-.6-.2z" fill="#161616"/><path d="M490 602.7c.8.2 2-.6 2.8-1.1 1-.7 1.9-1.5 2.6-2.5 1.7-2.3 2.3-5.2 2-8 0-.4-.6-.4-.6 0a10.2 10.2 0 01-3.6 9.3c-.6.6-2.2 1.9-3.1 1.6-.4 0-.6.6-.2.7zM488 602.1c.3 1 .4 2 .2 2.9 0 .4.6.6.7.2.2-1.1 0-2.2-.3-3.2-.1-.4-.8-.3-.6.1z" fill="#161616"/><path d="M492.6 601.4c-.1 1.1 0 2.2.3 3.4 0 .4.7.2.6-.2-.3-1-.3-2.1-.2-3.2 0-.4-.7-.4-.7 0z" fill="#161616"/><path d="M488.2 605.4c1.6 1.7 4.8 1.7 5.4-1 0-.4-.6-.5-.7-.1-.5 2.1-3 2-4.2.6-.3-.3-.7.2-.5.5zM488.4 602.6c1.3 1.2 3.3.9 4.1-.7.2-.4-.3-.7-.5-.3a2 2 0 01-3.2.5c-.3-.3-.7.2-.4.5z" fill="#161616"/><path d="M489.7 603c.3 0 .6 0 1 .2.3 0 .5-.6 0-.7h-1c-.4 0-.4.6 0 .6zM482.5 595.9c-1 .7-1.7-.3-1.8-1.2-.1-.8.6-1.9 1.6-1.3.3.2.6-.3.3-.6-1.4-.8-2.7.6-2.6 2 .2 1.5 1.7 2.6 3 1.6.3-.3-.2-.8-.5-.5zM497.6 592.6c.7-.6 1.4.6 1.4 1.2 0 .4-.2.7-.5 1-.3 0-.8.3-1 0-.3-.4-.9 0-.6.3.3.6 1 .6 1.6.4.7-.3 1.1-.9 1.1-1.6 0-1.2-1.3-2.9-2.5-1.7-.3.2.2.7.5.4zM488.6 588.1c.2 1.6 0 3 0 4.6-.2 1 .4 1.5 1.2 2.2.4.3.8-.2.5-.5-.6-.5-1-.8-1-1.7v-1.3c.2-1.1.1-2.2 0-3.3 0-.4-.7-.4-.7 0zM484.9 591.3c0-.5.7-.8 1-.8.5 0 .8.4 1 .7.3.4.9 0 .6-.3-.4-.6-1-1.2-1.8-1-.7 0-1.5.6-1.5 1.4 0 .4.7.4.7 0zM492.5 590.7c.6-1.2 2.3-1 2.6.3 0 .4.7.2.6-.2-.4-1.8-2.9-2.1-3.7-.5-.2.4.3.8.5.4zM484.2 589c.4-.7 1-1 1.7-1.1.5 0 .5-.8 0-.7-1 .1-1.7.6-2.3 1.4-.2.3.4.7.6.3zM492.5 587.7c.8 0 1.6.2 2.2.7.3.3.8-.2.4-.5-.7-.6-1.6-1-2.6-1-.4.1-.4.8 0 .8zM485 593c0-.2-.1-.4-.3-.4-.2 0-.3.2-.3.4s.1.3.3.3c.2 0 .4 0 .4-.3zM486 592.8h.1c.2 0 .4-.1.4-.3 0-.2-.2-.3-.4-.3s-.4.1-.4.3c0 .2.2.3.4.3zM486 594.3c.3 0 .4-.1.4-.3 0-.2-.1-.3-.3-.3-.2 0-.4.1-.4.3 0 .2.2.3.3.3zM493.3 592.4c.2 0 .4-.2.4-.4s-.2-.3-.4-.3-.4.1-.4.3c0 .2.2.4.4.4zM495.2 592.3c.5 0 .5-.7 0-.7-.4 0-.4.7 0 .7zM494.5 593.4c.4 0 .4-.7 0-.7s-.4.7 0 .7zM487.1 596.3c1.4 2.5 5 2.1 5.8-.5.2-.4-.5-.6-.6-.2-.7 2.1-3.5 2.3-4.6.4-.2-.4-.8 0-.6.3z" fill="#161616"/><path d="M479.1 590.8c-.8 1.3-2 3.4-2.5 6.2-.3 2-.9 5.6 1.4 8.5.6.7 2.8 3.2 5.8 2.8 2-.3 4.2-1.8 4.6-4a4 4 0 00-.2-2.3 10.4 10.4 0 01-5.3-5.9c-.1 0-.5.4-1 .3-.6 0-1-.4-1-.5-.7-.8-.6-2.4.3-3 .5-.2 1-.1 1.3 0-.2-.9-.3-2.6.6-4.5.7-1.3 1.6-2.2 3.8-3.6 1.9-1.1 2.7-1 3-1 1 .2 1.6 1 1.9 1.4l5.4 7c.1-.1.7-.4 1.3-.1.4.2.6.5.8.8 0 .3.3.6.2 1-.1.6-.5 1.1-1.1 1.3-.7.2-1.3-.2-1.4-.2a10.7 10.7 0 01-4 6.3 5 5 0 00.3 2.6c.6 1.9 2.4 3 4 3.4 3 .6 5.4-1.6 6-2.2 2.2-2 3.5-5.4 2.4-8.7a8.4 8.4 0 00-3.4-4.2c-.8-2-1.7-3.6-2.5-4.7-2-3.1-3.4-5.3-5.9-6-1.5-.5-3-.3-3.9-.1a7.6 7.6 0 00-3.5 0c-3.7 1-6.5 4.6-7.4 9.4z" fill="#1E1E1E"/><path opacity=".1" d="M494.5 588.4c-.2 0 .1 1.2.3 2.3 0 .2.4 3-.7 5.8a11 11 0 01-4.8 5.4l2.1.5.6 3.7 1.4-1.7c.2.4.5 1 1.1 1.5.2.2 1.5 1.3 3.4 1.5 2.1.2 3.7-1 4.6-1.6a8.6 8.6 0 003-10.1 12 12 0 01-2.2 4.4c-.3.4-3.1 3.9-4.9 3.3-1.5-.5-2-4-1.2-8.7 0 0 .4.5.9.5.6 0 1-.7 1-.8.3-.7-.1-1.4-.5-1.8a2 2 0 00-1.3-.6l-1.2-1.3-1.6-2.4zM489 593.3c.2-.3 1.2-.3 1.5.3.2.4 0 1-.4 1.1-.5.2-1.3-1-1-1.4zM483.9 602.8c-.5.8-1.4 1.5-2.4 1.4-.5 0-1.1-.3-3.3-3.8l-1.7-2.8a9.1 9.1 0 00.7 6.5c.4.8 1.3 2.4 3.2 3.4.5.3 1.5.9 2.8.9 2.3 0 3.7-1.5 4-1.9a4 4 0 001.3-2.5c.1-1.2-.4-2-.5-2.3-.7-1-1.4-.9-2.6-1.9-1.4-1.2-1.8-2.8-2-2.7-.3.2 1.8 3.5.5 5.7z" fill="#353535"/><path opacity=".1" d="M497 593.4s-.5 1.3-1.6 3.2a19.4 19.4 0 01-5.2 5.6c1-.3 2.9-1 4.4-2.6 2.4-2.6 2.7-6.2 2.5-6.2z" fill="#353535"/></g></g></g></g><g><text fill="#000" style="white-space:pre" font-family="Lato" font-size="24" font-weight="bold" letter-spacing="0em"><tspan x="379.9" y="269.8">What’s On Your Screen</tspan></text><rect x="337.4" y="485.4" width="330.3" height="52.2" rx="11.9" fill="#fff" stroke="#000" stroke-width=".2"/><text fill="#000" style="white-space:pre" font-family="Lato" font-size="18" letter-spacing="0em"><tspan x="387.4" y="513.5">Rectangle</tspan></text><text fill="#000" style="white-space:pre" font-family="Lato" font-size="18" letter-spacing="0em"><tspan x="355.5" y="513.5">A.</tspan></text><rect x="337.4" y="551.5" width="330.3" height="52.2" rx="11.9" fill="#fff" stroke="#000" stroke-width=".2"/><text fill="#000" style="white-space:pre" font-family="Lato" font-size="18" letter-spacing="0em"><tspan x="387.4" y="583.1">Circle</tspan></text><text fill="#000" style="white-space:pre" font-family="Lato" font-size="18" letter-spacing="0em"><tspan x="355.5" y="583.1">B.</tspan></text><g><rect x="337.4" y="617.6" width="330.3" height="52.2" rx="11.9" fill="#fff" stroke="#000" stroke-width=".2"/><text fill="#000" style="white-space:pre" font-family="Lato" font-size="18" letter-spacing="0em"><tspan x="387.4" y="649.2">Triangle</tspan></text><text fill="#000" style="white-space:pre" font-family="Lato" font-size="18" letter-spacing="0em"><tspan x="355.5" y="649.2">C.</tspan></text></g><g><rect x="337.4" y="683.7" width="330.3" height="52.2" rx="11.9" fill="#fff" stroke="#000" stroke-width=".2"/><text fill="#000" style="white-space:pre" font-family="Lato" font-size="18" letter-spacing="0em"><tspan x="387.4" y="715.3">Hexagon</tspan></text><text fill="#000" style="white-space:pre" font-family="Lato" font-size="18" letter-spacing="0em"><tspan x="355.5" y="715.3">D.</tspan></text></g><g clip-path="url(#clip0)"><path d="M557.2 445.4H447.8V336h109.4v109.4z" fill="#000"/></g></g><defs><clipPath id="clip0"><path fill="#fff" transform="translate(447.8 336)" d="M0 0h109.4v109.4H0z"/></clipPath><filter id="filter0_d" x="278" y="204" width="449.4" height="581.8" filterUnits="userSpaceOnUse" color-interpolation-filters="sRGB"><feFlood flood-opacity="0" result="BackgroundImageFix"/><feColorMatrix in="SourceAlpha" values="0 0 0 0 0 0 0 0 0 0 0 0 0 0 0 0 0 0 127 0"/><feOffset dy="4"/><feGaussianBlur stdDeviation="2"/><feColorMatrix values="0 0 0 0 0 0 0 0 0 0 0 0 0 0 0 0 0 0 0.25 0"/><feBlend in2="BackgroundImageFix" result="effect1_dropShadow"/><feBlend in="SourceGraphic" in2="effect1_dropShadow" result="shape"/></filter></defs></svg>