<svg xmlns="http://www.w3.org/2000/svg" viewBox="0 0 1600 1200"><path d="M171 1016l-41-34c-6-6-11-12-15-19l-6-11c-1-4-2-9 3-9h5c2 1 3-2 1-3-6-1-14-1-13 7 1 9 7 19 12 26 14 18 34 31 52 45 1 2 3-1 2-2z" fill="#e8e8e8"/><path d="M119 941c-6-7-11-15-13-24l-3-11c-1-3-3-5 0-7l3-2c4-3 5-5 1-8l-8-4c-3-1-6-5-8-8-4-7-6-15-9-22a649 649 0 01-21-82l-1 2c18-7 37 9 50 21 14 11 27 24 38 39 22 30 38 64 48 101 6 22 9 44 11 67 1 2 4 2 3 0-7-79-36-158-98-210-14-12-33-28-53-21l-1 1a598 598 0 0023 86c2 7 4 15 9 21 1 3 3 5 6 7l9 4c4 2-2 4-4 5-1 1-3 3-3 5l3 9 3 13c3 7 7 14 13 20 1 2 3-1 2-2z" fill="#e8e8e8"/><path d="M76 789a496 496 0 01110 212c1 2 3 1 3-1A498 498 0 0078 787c-1-2-4 1-2 2zM83 855l14 4c1 1 2-2 0-2l-14-5c-1-1-2 2 0 3z" fill="#e8e8e8"/><path d="M118 921c6 0 12 3 17 7 5 2 9 5 14 9 10 6 18 14 24 24 1 2 3 0 2-1-6-11-15-19-24-26l-17-10c-5-3-10-6-16-6-2 0-2 3 0 3zM158 903c-3-16-3-32 0-49 0-2-3-2-3 0-3 16-3 33 0 50 0 2 3 1 3-1z" fill="#e8e8e8"/><path d="M152 835c3-20 7-40 14-59 6-15 14-31 30-39l-3-1c2 27 18 52 19 80l1-1-11 3c-2 0-2 1-1 2 4 5 5 11 6 17 0 3 1 19-2 20-1 0-2 1-1 2 11 18 6 39 3 58-4 20-4 40-2 59 0 2 3 2 3 0-2-22-1-44 3-66 3-18 5-37-5-53l-1 2c3 0 4-2 4-5l1-15c-1-8-1-15-7-21l-1 3 12-3 1-2c-1-28-17-52-19-80l-2-2c-15 9-24 23-30 39-8 20-13 41-15 62 0 2 3 2 3 0z" fill="#e8e8e8"/><path d="M189 751c-11 40-17 82-17 124 0 2 3 2 3 0 0-42 6-83 16-124 1-1-2-2-2 0zM1363 691a399 399 0 0117 95v9l1 6a338 338 0 0110 9v-3c-3 2-5 3-9 3l-1 1c-3 9-1 18 6 25l1-2c-11-1-11 11-10 19l6 30c6 20 16 39 32 52 1 1 3-1 2-2a97 97 0 01-28-43l-7-24c-1-7-8-30 5-29 1 0 2-2 1-3-6-6-8-14-5-22l-2 1c4 0 7-1 11-3v-3c-4-3-9-5-9-10l-1-16a374 374 0 00-17-91c-1-2-4-1-3 1z" fill="#e8e8e8"/><path d="M1368 695c-4-5 3-9 8-8 4 1 8 5 11 8 6 6 10 13 14 20a436 436 0 0150 203c0 1 3 1 3-1a442 442 0 00-36-174c-7-16-14-34-27-48-4-5-13-14-21-11-5 2-8 8-5 13 1 1 4 0 3-2z" fill="#e8e8e8"/><path d="M1440 805a555 555 0 0129-75l5-12c2-3 6-14 10-13 1 1 2 0 2-2-1-6 6-11 9-15l10-11 20-22-2-1c10 26 7 53 1 80l-10 40c-2 9-5 23-16 25l-1 2c3 12-5 23-11 33a367 367 0 00-33 88c0 2 2 3 3 1a369 369 0 0137-95c5-8 9-18 7-28l-1 2c10-2 14-11 16-20l12-44c6-28 10-58-1-85h-3l-25 28-12 13c-3 3-4 6-3 10l2-2c-8-2-11 10-14 15a468 468 0 00-31 88z" fill="#e8e8e8"/><path d="M1518 681c-31 58-63 118-71 184 0 2 3 2 3 0 8-66 40-125 71-183 1-2-2-3-3-1zM1388 721c24 64 39 132 43 200 0 2 3 2 3 0-4-69-19-137-43-201-1-2-4-1-3 1zM124 688a499 499 0 01273 28c30 12 58 26 87 40a1177 1177 0 00552 103c2 0 2-3 0-3a1177 1177 0 01-538-98c-30-12-58-27-87-39a518 518 0 00-288-33c-1 0-1 3 1 2z" fill="#e8e8e8"/><path d="M668 817c57 3 112-18 166-34l168-50c56-16 112-33 169-46s114-19 173-21c64-2 129 1 194 4v-3c-115-5-230-10-343 12-57 11-113 28-169 44l-169 49-93 29c-31 8-63 14-96 13-2 0-2 3 0 3zM425 714c40 12 81 4 120-4 42-8 85-13 128-15 85-3 170 9 255 12 47 2 94 1 140-7 2 0 2-3 0-3-84 14-169 6-252 0-42-3-84-6-126-5-42 0-84 4-125 12-46 8-93 21-139 7-2 0-2 3-1 3zM602 907c13-5 27-8 41-8 13 1 24 5 37 7 9 3 18 3 26-4 3-3 5-5 10-4l8 4c4 2 7 3 11 2 8-2 15-9 22-13 13-7 25 2 38 6 25 7 53 4 79 4 33 0 65 0 98-4 2 0 2-3 0-3-29 4-59 4-88 4-28 0-57 3-84-3l-19-6c-5-2-11-5-16-4-10 1-16 9-24 13-4 2-8 4-13 3-5-2-9-6-15-6-5-1-7 4-11 6-5 4-12 4-18 3-14-2-26-7-39-8-15 0-30 2-43 8-2 1-1 4 0 3z" fill="#e8e8e8"/><path d="M666 818l6 1c1 0 2-2 0-3l-3-1c-2-1-3 2-1 2 9 5 18 9 28 12 2 0 3-3 1-3l-28-11-1 2 3 2 1-3-5-1c-2-1-3 2-1 3zM532 956l-6-8-2-5-1-3 1-4c2-4 0-8-1-12l-4-20-3-11-1-4c0-3-1-4 1-7 1-2 3-2 5-1l2 3 3 4a292 292 0 0112 27c4 12 7 25 9 38l2-2v1c1-2-2-3-3-1 0 2 1 3 3 3l1-2c-2-16-7-32-13-48l-11-21c-3-4-7-7-12-5-4 3-2 10-1 14l6 27 3 13c0 4-3 5-3 9 1 6 6 13 10 18 2 1 4-1 3-3z" fill="#e8e8e8"/><path d="M541 913a69 69 0 013-34c1-3 3-3 5 0l6 12c6 17 4 36 1 54 0 2 3 2 3 0 3-22 7-47-7-67-1-2-3-6-6-5-4 0-5 5-6 7-3 11-4 23-2 34 1 2 3 1 3-1z" fill="#e8e8e8"/><path d="M546 890c3 16 4 32 4 47 0 2 3 2 3 0 1-16-1-32-4-48 0-1-3-1-3 1zM179 677c-3-6-10-11-14-16l-12-20-1 2c20-3 32 17 36 33 0 2 3 1 3-1-5-18-18-38-40-35l-1 3 12 19c5 6 11 10 14 17 1 1 3 0 3-2z" fill="#e8e8e8"/><path d="M187 661c2-16 17-25 23-39l-3 1c7 4 2 19 0 25-3 9-7 17-13 24-1 2 1 4 2 2 7-8 13-19 15-30 2-7 5-19-2-24-1-1-2 0-2 1-6 14-21 24-23 40 0 2 3 2 3 0zM1075 706l-2-7-2-3v-2c1 0 3 0 3-2l-2-15v-7c3-4 5 3 5 4 3 10 3 20 3 30 0 2 3 2 3 0l-2-24c-1-4-1-12-6-14-3-2-6 0-6 3v10l2 13 2-1c-2-1-4-1-5 1v5l4 10c1 2 4 1 3-1z" fill="#e8e8e8"/><path d="M1082 690c0-14 3-28 9-40h-3c7 5 2 20 1 27-1 9-3 19-6 28 0 2 3 3 3 1l7-34c1-8 4-19-3-24h-2c-6 13-10 27-9 42 0 2 3 2 3 0zM557 996c7-6 16 2 24 2l10-3c4-1 8-2 12-1 18 1 35 3 53 1 2 0 2-3 0-2h-29c-9-1-20-3-29-2l-12 3c-5 1-9 1-14-1-6-2-12-4-17 1-1 2 1 4 2 2zM368 1021c7-8 20-9 27-1v-3c-5 3-10 4-16 4-2-1-2 2 0 3 6 0 12-1 18-4v-3c-8-8-23-8-31 1-1 2 1 4 2 3zM90 1048c-6-1-11 1-15 4-2 2-5 6-2 9s12 1 16 1l22-4c2-1 1-3-1-3-9 2-18 4-27 4l-5 1c-5 0-3-4 0-6 3-3 7-4 12-3 2 0 2-3 0-3zM233 965l1-1 2-1 5 1c3 0 6 1 8 3l1-3c-4 1-8 2-12 1-1 0-2 3 0 3 4 1 8 0 13-1v-3c-5-3-12-5-18-3-3 1-6 6-1 7 2 0 2-3 1-3zM315 277c-23-8-40-31-43-56-3-26 12-51 34-64 23-14 56-14 76 7 10 11 16 26 19 40 4 15 5 31-4 44-8 13-23 20-37 26-15 6-33 10-48 1-1-1-3 2-1 3 13 8 29 6 43 1 14-4 28-10 39-21 23-22 14-60-1-85-8-13-20-23-35-27-14-3-29-2-42 3a73 73 0 00-46 62c-2 30 17 59 46 69 1 1 2-2 0-3zM1067 858a1412 1412 0 00261-41c1-1 1-4-1-3a1405 1405 0 01-260 41c-2 0-2 3 0 3zM911 930c9 2 18 1 26-1 6-1 10-3 15-1h11c4 0 7-2 11-5 3-2 7-6 12-6 5-1 10 3 15 4h10c2 0 2-3 0-3-7 1-12 0-17-3-3-1-5-2-8-1-8 0-13 8-21 11-5 1-9 1-13-1-4-1-6 0-10 1-10 3-20 4-30 2-2 0-3 3-1 3z" fill="#e8e8e8"/><path d="M415 1060h233c4 0 4-6 1-6H415c-3 0-3 6 0 6zM665 1058h28c3 0 3-6 0-6h-28c-4 0-4 6 0 6zM713 1057h9c3 0 3-6 0-6h-9c-4 0-4 6 0 6zM165 1082h172c4 0 4-6 0-6H165c-4 0-4 6 0 6zM354 1082h45c4 0 4-6 0-6h-45c-4 0-4 6 0 6zM424 1080h3c1 0 3-1 3-3 0-1-1-3-3-3h-3l-3 3c0 2 2 3 3 3zM133 1083h6c4 0 4-6 0-6h-6c-4 0-4 6 0 6zM926 973h241c4 0 4-6 0-6H926c-4 0-4 6 0 6zM1199 970h219c4 0 4-6 0-6h-219c-4 0-4 6 0 6zM1437 968h18c4 0 4-6 0-6h-18c-3 0-3 6 0 6zM1360 934h50c4 0 4-6 0-6h-50c-4 0-4 6 0 6zM1427 933h12c4 0 4-6 0-6h-12c-4 0-4 6 0 6zM877 991h64c4 0 4-6 0-6h-64c-4 0-4 6 0 6zM964 990h28c3 0 3-6 0-6h-28c-4 0-4 6 0 6zM1004 1005h18c4 0 4-6 0-6h-18c-4 0-4 6 0 6zM578 503c-4-4 10-7 12-8 4-2 7-5 8-10s0-10 2-14c2-7 9-7 15-6 4 0 4-6 0-6-6-1-14-1-19 5-4 5-3 11-3 17-1 5-3 8-8 9l-8 4c-5 3-7 9-3 13 2 4 6-1 4-4zM599 508c-2-3 4-6 6-7l7-6c4-5 7-14 14-14 4-1 4-7 0-6-12 0-13 13-22 19-3 2-8 4-10 8-2 3-2 7 1 10 2 4 7-1 4-4zM1068 185c-1 6-6 14 0 19s12 1 18 2c6 0 4 6 3 11v10c3 5 9 8 14 4 3-2 0-7-3-5-5 4-6-5-5-8l1-9c0-4-2-7-6-9-4-1-9 1-14 1-8-1-2-11-2-16 0-4-6-4-6 0zM1102 192c-2 5-5 11-1 17l6 3h5c3 1 4 4 3 6-2 4 3 7 5 3s1-9-3-13l-7-2c-7 0-5-7-3-11s-3-7-5-3zM1421 399c-2-6 3-14 10-12 5 2 7 9 4 14-3 3 2 7 4 4 6-8 3-21-7-24s-21 9-17 19c2 4 7 3 6-1zM254 636c-1-7 8-11 12-4 3 6-3 11-9 9-4-1-5 4-2 6 12 4 22-9 15-19-7-11-24-4-22 8 0 4 6 4 6 0z" fill="#161616"/><path d="M288 356c-2 4-2 9 1 12 1 2 3 3 6 3h8c2 2 2 4 2 6l1 5 1 5c1 2 3 2 5 2l3 1h3c2 0 3 2 3 4-2 1 0 3 1 2 3-2 2-5 0-8l-4-1c-6-1-9 1-10-6 0-4 1-11-3-14h-5c-2 1-5 2-7 1-4-3-4-7-2-11 1-1-2-3-3-1zM329 368c-2 3-5 9-2 12 2 3 6 2 8 4 4 2 6 7 6 11-1 2 2 3 2 1 1-4 0-9-3-12-1-1-3-3-5-3-2-1-5-2-6-5-1-2 1-5 2-7 1-1-1-3-2-1z" fill="#5e5e5e"/><path d="M892 684c-4-7 3-15 10-13 8 3 8 14 0 17-1 1-1 3 1 3 10-4 11-18 1-22-10-5-20 7-15 16 1 2 4 0 3-1z" fill="#494949"/><path d="M523 660c-6-1 4-8 5-9l4-4c3-6-2-18 9-19 2 0 2-3 0-3-4 0-8 3-9 6-4 6 0 14-6 18-3 2-7 4-7 8 0 3 1 5 3 6 2 0 3-3 1-3zM543 651c-3-4-2-9 3-11 3-1 6 0 7-3l4-11c2-5 7-8 11-9 2-1 1-4 0-3a23 23 0 00-15 14c-1 3-1 7-4 9l-7 2-3 4c-1 3-1 7 1 10 1 1 4 0 3-2z" fill="#7f7f7f"/><path d="M441 191c-2-3 6-2 6-2l3 2 5 2c3 0 5-1 7-3 4-5 3-20 13-16 4 2 7 4 11 2 2-1 3-4 3-7l-2-6c1-2 4-2 6-1l2 1c3 1 6 1 8-2 1-2-2-3-3-2-2 4-10-3-13-1s-3 5-2 7c0 4 2 8-4 8l-8-2c-3-1-5 0-7 2-5 6-4 21-15 15-4-2-6-4-10-2-3 1-4 4-3 7 1 2 4 0 3-2z" fill="#303030"/><path d="M560 273c-5-1-5-7-3-10 3-5 10-5 15-4 8 2 16 5 24 2s14-10 23-10c10 0 19 4 28 4 17-1 32-9 48-13 9-2 18-2 28 0l26 8c10 3 19 2 28 1 11 0 21-1 31 4l-1-2c-5 15-21 21-35 22-18 1-36-5-54-5-18 1-33 12-51 14-18 1-36-7-54-7-18 1-42 11-57-6-1-1-4 1-2 3 11 12 29 10 45 8 11-2 21-2 33 0 9 2 19 5 29 5 19 0 36-12 56-14 19-1 38 7 58 5 15-2 30-9 35-24l-1-2c-17-10-38 0-57-4l-31-10c-9-2-18-1-27 1-10 2-19 6-28 9-11 3-21 4-32 2-9-2-17-3-26 1-4 2-7 5-11 6-7 3-14 2-21 0s-18-3-22 5c-3 5-1 12 5 14 2 0 3-3 1-3zM144 427c13-2 26 5 40 4l15-6 8-2c5-1 9 0 14 1 13 3 28 0 42-2l19-3 23-4c8-1 17 3 14 12-3 8-13 11-21 11-13 2-26-2-39 0-12 2-23 9-35 12-7 2-14 3-20 2l-21-2c-14 1-29 9-43 6-9-2-13-10-9-18s14-10 22-10c2 0 2-3 0-3-12 0-25 5-27 18-1 12 11 17 22 17l22-5c9-2 18-3 28-1 7 1 13 2 20 1l22-7c7-3 14-6 21-7 9-2 18 0 27 0 11 1 30 1 34-13 1-5 0-11-4-14s-10-3-15-2l-54 8c-10 2-20 3-30 1-8-2-14-1-22 2l-12 4h-16c-8-2-17-4-25-3-2 0-2 3 0 3zM1362 546c-19 7-41-9-55-21v3c9-4 19-4 30-4l30 2a631 631 0 0098-5c5-1 11-2 17 1 7 3 6 11-1 14l-11 3-17 3-32 5-18 4-18 2c-10 0-17-8-27-7-2 0-2 3 0 3 5-1 10 2 15 4l12 3c11 0 23-3 35-5l36-7 18-3 11-4c6-4 6-11 1-16-7-7-20-3-29-2a656 656 0 01-115 2c-12 0-25-1-36 4-1 0-2 1-1 2 15 13 38 29 58 22 2-1 1-4-1-3zM903 1074c-1-5 8-5 11-3l7 2c6 0 13-2 18-4 6-1 12-4 18-3 7 1 13 7 12 14-1 8-10 12-17 10-5-2-9-5-14-6-11-1-22 8-32 3-2-1-4 2-2 3 6 3 12 1 19-1l12-2c5 0 9 3 13 4 6 3 13 3 18-1s7-10 5-15c-4-17-23-12-34-8-6 2-11 4-17 2-4 0-7-3-11-3-5 1-9 4-9 9 1 2 4 1 3-1zM788 1041c5-4 12-6 18-5 3 1 10 3 6 6-3 2-8 2-11 2-2 0-2 3 0 3 4 0 12 0 15-4 3-3-1-6-3-8-9-5-20-3-27 4-1 1 1 3 2 2zM733 1107l-3-1v3c6-5 13-1 19 0s11 1 16-1l21-2 9-1c3 0 11-2 8 4s-12 6-18 4c-4-1-9-4-14-2l-15 5c-7 2-14 1-21-2-2 0-2 3-1 3 7 3 14 4 21 2 9-1 16-7 24-5 6 2 11 4 17 2 5-1 10-4 11-9s-6-5-9-5l-24 2-13 2c-6 1-10 0-15-1-6-2-12-3-18 1v3c2 1 3 2 5 1 2 0 1-3 0-3zM1146 1050c5-2 11-4 18-4l18 4c9 3 16-3 23-7 12-7 24-3 36 0 8 2 18 2 25-3 2-2 0-4-1-3-10 7-21 4-32 1-9-2-19-4-28 1-4 3-8 6-12 7-6 3-12 1-18-1-10-3-21-2-30 2-2 1-1 4 1 3z" fill="#e8e8e8"/><g><path d="M450 558c9-4 25 15 32 27 12 18 14 33 20 70l11 65c8 9 12 17 13 22 2 7 2 16 0 16-2 1-7-7-9-6s6 14 1 21c-5 6-23 5-32-4s-5-20-7-47c0-9-2-33-9-57-9-30-19-31-24-58-4-18-5-46 4-49z" fill="#fff" stroke="#161616" stroke-width="2" stroke-miterlimit="10"/><path d="M463 583c6-1 15 24 16 25 9 24 5 33 9 67 3 28 5 44 13 63 9 19 19 29 15 34-4 6-18 1-30-4l-4-11c-3-12-3-21-3-26 0-2 0-31-6-57-3-13-5-11-8-25-8-30-8-64-2-66z" opacity=".1" fill="#6d6c6c"/><path d="M477 632a607 607 0 012 98c-1 0 0-18-4-41-2-16-6-29-9-37a39 39 0 0011-20z" opacity=".2" fill="#6d6c6c"/></g><g><path d="M470 987c-3 4-3 10 3 55l2 13c15 3 37 5 62 2 16-1 34-3 35-9 1-5-10-13-58-30l-7-48c-28 2-35 13-37 17z" fill="#161616"/><path d="M410 701a2690 2690 0 01101 152 273 273 0 018 145 116 116 0 01-61 6 404 404 0 01-3-112c-26-19-42-40-53-54-27-38-34-71-38-92-6-29-2-37 2-42 13-13 41-3 44-3z" fill="#fff" stroke="#161616" stroke-width="2" stroke-miterlimit="10"/><path d="M413 786a229 229 0 0168 100c18 47 19 91 19 116l-18 4c-10 1-18-1-24-3a434 434 0 01-3-112c-3-1-51-28-51-74 0-12 4-23 9-31z" opacity=".2" fill="#6d6c6c"/><path d="M426 862c2-3 29 6 40 26 8 15 2 27 2 49 0 16 4 40 23 68l-32-1a491 491 0 01-5-114c-4-2-9-5-14-10-6-5-16-15-14-18z" opacity=".1" fill="#6d6c6c"/></g><g><path d="M293 979c-7 5-9 11-15 26-5 11-12 25-24 40 7 8 17 17 33 25 21 10 50 15 55 6 5-10-21-32-29-39l10-21c11-24 13-27 12-31-5-11-28-15-42-6z" fill="#161616"/><path d="M325 679l-18 49c-10 29-5 49-2 58a512 512 0 0046 70 320 320 0 00-75 127 102 102 0 0059 20c14-11 33-27 51-52 14-19 32-45 38-81 10-61-23-111-35-128-21-33-47-52-64-63z" fill="#fff" stroke="#161616" stroke-width="2" stroke-miterlimit="10"/><path d="M368 715l22 32 3-1c-7-9-13-18-18-28l-2 2c4 3 7 7 9 11l9 15 17 28 3-2-26-41c-1-1-4 0-3 2l32 54c1 1 4 0 3-2l-24-40-2 2c11 12 13 30 26 42 1 1 3-1 2-2-13-12-15-30-26-42-1-2-3 0-2 1l23 41 3-2-33-54-2 2 26 41c1 1 4 0 3-2l-20-31c-4-8-9-18-16-24-2 0-3 1-2 3 5 9 10 18 17 27a814 814 0 00-20-34c-1-1-4 0-2 2z" fill="#fff"/><path d="M374 719c-5 8-13 20-16 36-9 50 31 72 22 115-5 23-17 21-43 68-14 24-22 45-27 60a178 178 0 01-34-14 349 349 0 0174-128l-16-22c-18-26-28-40-31-55-3-17-1-32 1-41 3-15 9-27 13-35l57 16z" opacity=".2" fill="#6d6c6c"/><path d="M350 713c-11 13-26 34-25 60 2 40 42 55 36 88-1 9-14 24-39 53l-34 37a288 288 0 0162-94l-16-24c-24-36-28-41-31-54-3-15-1-27 0-37 3-17 9-30 14-39l33 10z" opacity=".2" fill="#6d6c6c"/></g><g><path d="M402 539a178 178 0 00-87 163 531 531 0 00113 26 1022 1022 0 0123-66c16-9 22-20 24-25 8-18 0-36-8-57-4-11-6-17-12-23-17-20-45-18-53-18z" fill="#b5b5b5"/><path d="M436 563c-28 3-42 16-48 22-33 32-22 88-19 103 3 13 7 24 10 32l-63-18a173 173 0 0185-163l6 1a98 98 0 0029 23z" opacity=".3" fill="#6d6c6c"/><path d="M348 588a201 201 0 0019 128l-52-13a180 180 0 0133-115z" opacity=".2" fill="#6d6c6c"/></g><g><path d="M1194 918c-7 14-6 28-5 34 20 8 38 12 51 14 4 1 59 9 64-6 1-4-1-7-3-11-11-21-41-22-45-22-1-21-15-37-29-38-20-2-32 26-33 29z" fill="#161616"/><path d="M1220 574a335 335 0 0158 232c-2 27-8 65-23 108-4 3-22 14-45 9-13-3-23-10-27-14 8-18 18-45 22-78 4-37-1-65-8-102-15-83-36-114-18-137 9-11 24-16 41-18z" fill="#fff" stroke="#161616" stroke-width="2" stroke-miterlimit="10"/><path d="M1227 620a748 748 0 01-1 303c-4 1-15 1-27-4-7-4-12-9-14-12 12-29 17-53 19-70a993 993 0 00-11-139l34-78z" opacity=".2" fill="#6d6c6c"/><path d="M1205 670a273 273 0 01-17 231c19-57 20-91 17-113l-8-59-3-31 11-28z" opacity=".2" fill="#6d6c6c"/></g><g><path d="M1049 875c-8 4-11 11-22 33l-18 33c12 9 33 21 60 27 16 4 49 10 53 1 4-11-30-34-45-43 15-15 16-36 6-46-9-9-24-10-34-5z" fill="#161616"/><path d="M1194 572c33 29-6 126-37 204-14 33-35 82-67 139a65 65 0 01-67-37 512 512 0 0063-184c4-26 8-60 7-100 6-6 39-39 78-31 6 1 16 3 23 9z" fill="#fff" stroke="#161616" stroke-width="2" stroke-miterlimit="10"/><path d="M1205 612l-1 11h3l1-17h-3c1 12-2 24-4 36l-8 34 3 1 14-63c0-2-3-2-3 0l-14 62c-1 2 2 3 3 1l8-36c2-12 5-24 4-35 0-2-2-2-3-1l-1 18c1 2 3 2 3 0l1-11c0-2-3-2-3 0z" fill="#fff"/><path d="M1192 670v23c0 2 3 2 3 0v-23c0-2-3-2-3 0z" fill="#fff"/><path d="M1150 603c1 20-1 48-6 80-7 33-16 59-30 99-12 32-17 41-29 77l-15 52a61 61 0 01-47-33 517 517 0 0069-235l2-34 56-6z" opacity=".2" fill="#6d6c6c"/><path d="M1140 606c-8 35-17 62-24 80l-32 79-12 27c-10 22-25 53-50 89a566 566 0 0071-270l47-5z" opacity=".2" fill="#6d6c6c"/></g><g><path d="M1172 360c1 4 4 10 9 16 4 4 8 9 15 11 14 5 27-6 29-8l40 24c1 16 1 41-6 69-6 28-11 31-16 57-8 40-2 76-4 76l-1-5-155 11-1-76c1-30 3-66 13-108 8-30 13-40 22-48 18-18 43-19 55-19z" fill="#686868"/><path d="M1231 383a861 861 0 01-22 128c-5 16-24 63-120 100a2577 2577 0 01147-13 649 649 0 0024-198l-29-17z" opacity=".3" fill="#3f3f3f"/></g><g><path d="M1190 295c-4 18-6 36-18 59l-8 13a71 71 0 0076 22 182 182 0 016-53l37-4 7-16 10-1-11-33c-8-26-8-30-12-36-12-17-40-27-57-18-16 7-20 27-30 67z" fill="#fff" stroke="#161616" stroke-width="2" stroke-miterlimit="10"/><path d="M1299 314l-17-1c-2 0-3 2-1 3l18 1c2 0 2-3 0-3zM1303 266c-5-3-11-1-15 4-1 2 2 3 3 2 3-4 7-5 11-3 2 1 3-2 1-3zM1301 285l-1-7c-1-1-3-3-5-2-2 0-1 3-1 5s1 4 3 5c1 1 3 1 3-1l-2-7c-1-2-3 0-3 2l2 5 2-1-2-5v-1 1l1 1v4c-1 2 2 3 3 1zM1273 271c-6-2-12 0-16 5-1 2 2 3 3 2 3-4 8-6 12-5 2 1 3-2 1-2zM1275 288c0-3-1-7-4-9-4-1-4 4-3 6 0 3 2 7 5 5 1-1 2-2 1-3l-3-6-2 2 1 1c0 2 3 2 3 0l-2-3c-1-1-3 0-2 2l1 2 1 2c0 1 0 1 0 0v-1l-1-2v-2l1 1 1 4c0 3 3 3 3 1z" fill="#161616"/><path d="M1281 252c-1-5-3-14-9-23-2-4-6-10-14-15-13-9-34-8-49 3a50 50 0 00-19 48l91-13z" fill="#4c4c4c"/><path d="M1331 243l-141 17c-5 1-5 10 0 9l141-17c6-1 6-10 0-9z" fill="#161616"/><path d="M1220 264c8 3 13 9 19 16 11 14 8 19 16 28 13 14 27 6 39 20 10 12 8 28 8 31-1 4-2 18-14 28-10 8-24 10-24 8-1 0 0-2 8-7l-10 4c-5 1-10 0-10-1 0 0 3 0 5-2l2-5c-4 3-9 5-14 4-14-4-16-34-17-44-3-32 7-49-5-60 0-1-5-6-10-5-6 1-11 11-9 17s8 7 8 8c-1 2-12 0-20-7-4-3-6-5-8-9-2-7 1-14 5-19 7-9 22-8 31-5z" fill="#161616" stroke="#161616" stroke-width="2" stroke-miterlimit="10"/><path d="M1208 305h5l-1-1 5 4 4-1a213 213 0 00-22 80 62 62 0 01-35-21l14-26 6-20 7-23 4 3c2 2 7 5 13 5z" opacity=".2" fill="#6d6c6c"/><path d="M1241 208c-12 3-21 13-22 24-2 14 8 23 9 24l-39 5 1-12c2-15 11-25 13-27 3-3 14-13 29-14h9z" fill="#383838"/></g><g><path d="M1262 402c8-2 16 12 20 19 22 37 12 80 10 93a132 132 0 01-55 83 149 149 0 01-108 0l-43 3-9-3c-5-1-9-3-9-5 0-1 5-4 29-8-1 0-17 3-28-8-10-10-10-28-3-35 7-6 17-3 36 2s34 11 45 17c4 2 37 16 67-1 23-13 30-37 32-43 7-26-6-35-1-72 0-7 5-41 17-42z" fill="#fff" stroke="#161616" stroke-width="2" stroke-miterlimit="10"/><path d="M1062 563c12 1 23 4 34 9 1 0 3-2 1-3-11-5-22-8-35-9v3zM1062 551c13-1 24 8 37 11 2 1 2-2 1-3-13-3-25-11-38-11-2 0-2 3 0 3zM1075 540c10 1 20 6 29 12 2 1 4-2 2-3-10-5-20-11-31-12-2 0-2 3 0 3z" fill="#161616"/><path d="M1249 420c-5 24 10 40 16 67 0 5 8 44-13 71-23 31-69 32-78 32-24 1-33-6-70-4-3 0-35 2-36 7 0 2 9 5 16 6 9 1 13-1 25-2h20a140 140 0 0074 9s14-2 26-6c28-10 56-51 64-96 9-51-11-89-22-98-2-1-6-4-10-3-8 2-11 13-12 17z" opacity=".2" fill="#6d6c6c"/><path d="M1292 450c-2 0-2 19-6 43-3 15-9 45-22 65-24 37-72 45-90 48 15 2 40 2 63-10 52-28 57-94 58-106 1-20-2-40-3-40z" opacity=".2" fill="#6d6c6c"/></g><g><path d="M428 829a14388 14388 0 01364-313 206 206 0 0189-243c7-4 104-56 194 2 60 38 91 107 84 175a197 197 0 01-106 148c-64 31-142 22-200-23a90107 90107 0 00-374 310 100 100 0 01-51-56z" fill="#161616"/><ellipse cx="972.4" cy="433.4" rx="158.6" ry="152" fill="#fff" stroke="#161616" stroke-width="2" stroke-miterlimit="10"/><path d="M985 290a4302 4302 0 01-118 233 4244 4244 0 00121-231c1-2-2-4-3-2zM1034 305c-32 50-62 101-90 153-1 2 1 3 2 2 29-52 59-104 91-154 1-1-2-3-3-1zM938 476c-13 25-27 51-42 75-1 2 1 4 2 2 15-25 30-50 43-76 1-2-2-3-3-1zM994 401l-51 94c0 2 2 4 3 2l50-95c1-2-1-3-2-1z" fill="#e8e8e8"/><path d="M968 281c-11 4-84 31-108 105-3 8-11 36-5 67 12 61 73 110 152 126l-25 6c-63 8-111-35-117-40-13-12-51-50-52-111 0-5 1-65 46-108a190 190 0 01109-45z" opacity=".1" fill="#6d6c6c"/></g><g><path d="M383 589c7-1 18-1 25 6 17 14 4 44 13 75 4 17 16 40 51 63l33 16c11 5 18 8 18 12 0 3-7 6-12 8 6 6 9 13 7 18s-6 7-11 9c-6 3-10 4-16 4-10 2-15 2-19 0-7-3-11-9-15-19-3-5-6-13-8-24-11-5-27-14-43-29-7-6-65-62-47-110 3-7 9-18 24-29z" fill="#fff" stroke="#161616" stroke-width="2" stroke-miterlimit="10"/><path d="M472 788c2 5 6 10 11 14 2 1 3-2 2-3-5-3-8-8-11-13 0-1-3 0-2 2zM484 786c3 6 7 11 13 14 1 2 3-1 1-2-5-3-9-8-12-13 0-2-3 0-2 1zM497 780c2 5 7 10 13 13 2 1 3-2 2-3-6-2-10-7-13-12-1-2-3 0-2 2z" fill="#161616"/><path d="M385 590a135 135 0 0039 128c25 25 42 22 52 44 3 6 8 20 21 27 5 3 9 4 13 4l-9 5c-6 3-11 3-20 3l-12-1c-6-3-9-9-10-11l-12-33c-19-10-47-28-69-58-9-13-24-35-23-61 1-12 5-20 6-22 7-15 19-22 24-25z" opacity=".2" fill="#6d6c6c"/><path d="M357 643s4 12 12 26c18 35 44 56 63 71l21 14 10 24c2 5 3 9 7 14 3 5 8 8 12 9-3 0-7 0-11-2-8-4-12-12-16-20-2-5-5-12-6-21a164 164 0 01-92-115z" opacity=".3" fill="#6d6c6c"/></g><g><path d="M440 498c-8 3-3 17-15 30-5 6-12 9-17 11a59 59 0 0037 24l7-12c11-17 15-19 16-25 1-14-19-31-28-28z" fill="#fff" stroke="#161616" stroke-width="2" stroke-miterlimit="10"/><path d="M438 525c4 8 9 16 15 23 2 1 4-1 2-2-6-6-10-14-14-22-1-2-4-1-3 1z" fill="#161616"/><path d="M435 520c5 9 10 18 19 23 1 1 3-1 1-2l-8-10-2 3 5 4 3 3v3l3 1v-1c0-2-1-3-2-2l-1-3-3 1 3 5 3-2-3-3c0-1-3 0-2 1l1 3c2 2 4 0 3-2l-1-2-3 2 3 3c1 2 3 0 2-1l-3-5c-1-2-4 0-3 2s3 6 6 3l-3-1v1c0 2 3 3 3 1 1-2 3-4 1-6l-4-2-6-6c-1-1-4 1-2 3l8 9 2-3c-8-5-13-13-17-22-1-2-4 0-3 2z" fill="#161616"/><path d="M532 472a102 102 0 01-64 73c-6-2-13-6-20-12a68 68 0 01-20-47l-8-4c-6-6-7-19-2-24 7-6 20 1 21 2l7 6c6-17 19-30 34-32 22-4 45 12 52 38z" fill="#fff" stroke="#161616" stroke-width="2" stroke-miterlimit="10"/><path d="M507 496c-4 9-10 16-17 23-2 1 0 3 2 2 8-7 14-15 18-24 1-2-2-3-3-1z" fill="#161616"/><path d="M486 512c0 3 1 7 3 9 1 1 4-1 2-2-2-2-2-5-2-7s-3-2-3 0zM480 495c2-4 6-7 9-10l-2-1c-2 4-5 7-8 9l2 2 6-8c2-2 0-4-2-2l-7 8c-1 1 1 3 2 2 5-2 8-6 9-11 1-1-1-2-2-1l-10 10c-1 2 2 3 3 2zM513 504c1-3 3-5 5-6l-2-2c-1 3-3 6-6 8l2 2 3-5c1-1-1-3-2-2l-3 6c-1 1 1 2 2 1 3-2 5-5 6-9 1-1-1-2-2-1l-6 6c-1 2 2 3 3 2zM470 487l2 11h1c0-4 0-8-2-11h-1zM465 485l3 5 1-1-2-5c-1-1-2 0-2 1zM489 477c3-2 7 1 7 5h2c0-5-5-9-10-8-1 1-1 3 1 3zM515 491h5c2 1 3-1 2-2h-8c-1 1 0 3 1 2zM467 517c2 4 6 7 11 9 2 0 3-3 1-3-4-1-8-4-10-8-1-1-3 0-2 2z" fill="#161616"/><path d="M446 470a46 46 0 0135-23c2 3 6 6 11 9 13 6 23-2 30 3 4 3 8 9 7 26 6 7 11 7 13 7 10-2 17-25 11-41-2-5-5-8-26-25-30-23-33-25-37-26-21-5-39 6-42 8-4 2-5 3-28 27-18 19-19 21-21 25-4 12-3 29 7 41 10 11 24 13 27 13a53 53 0 01-3-32s-4-4-5-9c0-4 2-9 7-11s11 1 14 8z" fill="#232323"/><path d="M442 419c-4-8-16-9-19-9-16-2-30 13-38 22-14 15-10 20-23 38-18 25-32 26-34 44-1 1-3 18 8 28 10 9 26 9 36 4 14-7 13-22 23-47 20-48 55-64 47-80z" fill="#232323"/><path d="M458 456a95 95 0 009 88c-6-2-15-7-24-17-3-4-11-14-13-29v-16c-1-1-5-4-5-10 1-4 3-9 7-10 5-2 11 1 14 8a38 38 0 0112-14zM440 529l-3 5c-5 9-11 14-16 18a31 31 0 01-12-13c4-2 14-5 20-15l5-10 6 15z" opacity=".1" fill="#6d6c6c"/><path d="M431 480c1 7 2 16 6 26 4 14 11 24 16 31-5-5-11-11-16-20-3-6-8-14-8-26l2-11z" opacity=".2" fill="#6d6c6c"/><path d="M447 410c-5 4-31 31-27 68 1 16 8 28 12 35a36 36 0 01-28-16l-4-10s-2-8 2-19c3-11 19-33 45-58zM393 426c2 2-11 29-25 52-12 21-19 27-20 39 0 14 5 25 10 33-2 0-12 0-20-6l-8-11c-2-7-4-17 0-27 2-6 6-7 16-17 9-9 18-18 25-32 3-7 4-12 10-19 4-6 10-13 12-12z" opacity=".3" fill="#111"/></g></svg>