<svg xmlns="http://www.w3.org/2000/svg" viewBox="0 0 1600 1200"><path d="M289 806h269c2 0 2-3 0-3H289c-2 0-2 3 0 3zM595 811h736c2 0 2-3 0-3H595c-2 0-2 3 0 3z" fill="#e8e8e8"/><path d="M1377 631c-21 16-31 42-37 68a377 377 0 00-2 154c0 2 3 1 3-1-8-41-9-83-3-124 4-34 12-73 41-94 1-1 0-4-2-3z" fill="#e8e8e8"/><path d="M1379 632c7-3 16-6 24-6 5 0 8 1 12 3 3 1 5 0 8-1 14-7 30-5 41 6 2 1 4-1 3-2a38 38 0 00-39-10l-4 2c-3 2-5 2-9 1l-11-2c-9-1-18 3-26 6-2 1-1 4 1 3z" fill="#e8e8e8"/><path d="M1463 634c9 14 3 26-6 38s-18 23-24 37c-5 14-8 31-10 46-3 17-2 35 0 52 2 16 6 31 11 46 1 2 4 1 3-1a218 218 0 010-144c6-14 17-25 26-38 8-12 10-25 3-38-1-2-4 0-3 2zM1342 850c-6 7 7 12 12 13 9 2 17-1 24-6 2-1-1-4-2-2-5 4-10 6-17 6-2 0-19-4-15-9 1-2-1-3-2-2z" fill="#e8e8e8"/><path d="M1376 856c11 22 55 19 59-6 0-2-3-3-3-1-4 22-44 25-53 6-1-2-4 0-3 1zM1337 845c10 8 24 8 34 0 1-1-1-4-2-2-9 7-21 7-30 0-1-1-3 1-2 2zM1340 831c9 4 18 5 28 3 2-1 1-4-1-3-8 2-17 1-25-2-2-1-4 1-2 2zM1334 798c11 4 23 3 33-2 2-1 0-3-1-3-10 5-21 6-31 2-2 0-2 2-1 3zM1336 779c9 5 18 5 27 0 1-1 0-3-2-2-7 4-16 4-23-1-2-1-3 2-2 3zM1421 644c14-2 27 7 31 20 1 2 4 1 3-1-4-14-19-24-34-22-2 1-2 4 0 3zM1415 665c9 1 17 6 22 13 1 2 4 0 3-1-6-9-15-14-25-15-2-1-2 2 0 3zM1396 688c9-2 19 2 26 9 1 2 3 0 2-2-7-8-18-12-29-10-2 1-1 3 1 3z" fill="#e8e8e8"/><path d="M1416 628a303 303 0 00-42 222c0 2 3 1 2-1a300 300 0 0143-220c1-2-2-3-3-1z" fill="#e8e8e8"/><path d="M1376 840c-2 0-3 1-2 3 1 4 8 6 11 7 10 3 21 4 32 1 2-1 1-4-1-3a51 51 0 01-36-3l-4-2c2 0 2-3 0-3zM1374 833c13 8 31 7 43-3 2-1 0-4-1-3-12 9-28 11-41 3-1 0-3 2-1 3zM1373 810c17 8 38 5 52-7 2-2 0-4-2-2a44 44 0 01-48 6c-2-1-3 2-2 3zM1370 785c12 3 24 3 35-2 2-1 1-3-1-3-11 5-22 5-33 2-2-1-3 2-1 3zM1373 761c14 6 30 6 44-2 1-1 0-4-2-3-12 8-27 8-40 3-2-1-4 1-2 2zM1337 729c7 7 17 8 26 4 2 0 1-3-1-2-8 3-17 2-23-4-1-1-4 1-2 2zM1341 710c11 5 23 7 35 4 2 0 1-3-1-3-11 3-22 1-32-4-2-1-4 2-2 3zM1354 668c9-1 18 2 27 6 1 1 3-1 1-2-9-5-18-8-29-7-1 0-1 3 1 3zM1367 647c9 0 16 5 21 11 2 1 4-1 2-2-5-7-14-12-23-13v4zM1377 636c9-12 27-15 39-6 1 1 3-2 1-3-13-9-33-6-43 7-1 2 2 3 3 2zM1429 816c25 1 49 0 74-1 2-1 2-4 0-3-24 1-49 2-74 1-2 0-2 3 0 3zM1461 827l41 1c13 0 27-2 40 2 2 0 3-3 1-3-12-4-26-2-39-2l-43-1v3zM1463 838c7 1 14 2 21 1v-3c-7 1-13 0-20-1-2 0-2 3-1 3zM246 818l127 5c2 0 2-3 0-3l-127-5c-2 0-2 3 0 3zM281 840c44 2 87 3 131 3v-3c-44 0-87-1-131-3-2-1-1 2 0 3zM333 864l52 2c2 0 2-3 0-3l-52-2c-2 0-2 3 0 3zM248 306v152c0 2 3 2 3 0V306h-3zM248 305h165c2 0 2-3 0-3H248c-2 0-2 3 0 3z" fill="#e8e8e8"/><path d="M412 306v146c0 2 3 2 3 0V306c0-2-3-2-3 0zM250 461h163c2 0 2-3 0-3H250c-2 0-2 3 0 3zM263 318v46c0 2 3 2 3 0l-1-46c1-2-2-2-2 0z" fill="#e8e8e8"/><path d="M267 318c44-3 88-3 133 0 2 0 2-3 0-3-45-3-89-3-133 0-2 0-2 3 0 3z" fill="#e8e8e8"/><path d="M398 316v38c0 2 3 2 3 0v-38c0-2-3-2-3 0zM265 364c44 2 87 1 130-1 2 0 2-3 0-3-43 2-87 2-130 1-2 0-2 3 0 3zM268 384l1 53h3l-1-53c0-2-3-2-3 0zM290 387l4 47c0 2 3 2 3 0l-4-47c0-1-3-2-3 0zM317 388l1 45c0 2 3 2 3 0l-2-45c0-2-3-2-2 0zM348 385l1 46c0 2 3 2 3 0l-1-46c0-2-3-2-3 0zM380 387v42c0 2 3 2 3 0v-42c-1-2-4-2-3 0z" fill="#e8e8e8"/><path d="M265 401c46-4 93-5 139-4 2 0 2-3 0-3-46-1-93 0-139 4-2 0-2 3 0 3zM267 418c44-2 89-2 134-1 2 0 2-3 0-3-45-1-90-1-134 1-2 1-2 4 0 3zM269 438l135-2c2 0 2-3 0-3l-135 2c-2 0-2 3 0 3zM414 459l1-6h-3v5h3v-11c0-2-3-2-3 0v11c0 2 3 2 3 0v-5c0-2-2-2-3-1l-1 7c0 2 2 2 3 0z" fill="#e8e8e8"/><path d="M413 308v147c0 2 3 2 3 0V308c0-2-3-2-3 0zM275 333v15c0 2 3 2 3 0v-15c0-2-3-2-3 0z" fill="#e8e8e8"/><path d="M276 333h8l-1-1 2 7v4c0 2-2 5-4 3-1-2-3 1-2 2 2 3 7 2 8-1 3-5 0-12-1-16l-2-1h-8c-2 0-2 3 0 3zM292 332l2 14c0 2 3 1 3 0l-2-14c0-2-3-2-3 0z" fill="#e8e8e8"/><path d="M293 333l7-1c2 0 2 0 2 2v10l-6 1c-2 0-2 3 0 3 3 0 7 0 9-2v-9c0-2 1-6-1-7l-4-1-7 1c-2 0-2 4 0 3zM314 340l2-9c-1-1-3-1-3 1l-1 16c0 2 3 2 3 0l1-17-3 1-2 7c-1 2 2 3 3 1zM324 341c2-4 2-8 1-12 0-2-3-1-3 1l1 20c1 2 4 2 3 0l-1-21-3 1v10c-1 2 2 2 2 1zM334 330v16c0 2 3 2 3 0l-1-15c1-2-2-3-2-1z" fill="#e8e8e8"/><path d="M335 334h5l1 5c1 3 0 7-4 8-2 1-1 4 1 3 5-1 7-7 6-11l-1-7-8-1c-2 0-2 3 0 3zM353 335v-4l-2-1-1 18c0 2 3 2 3 0l1-18c0-1-3-2-3 0l-1 5c0 2 3 2 3 0zM369 339c1-3 2-6 1-10 0-2-2-2-3 0v16h3v-16h-3c1 3 0 6-1 9 0 2 2 3 3 1zM633 190c7 9 12 18 15 29 1 2 4 1 3-1-3-11-8-21-16-30-1-2-3 0-2 2zM646 181c6 9 10 19 12 30 1 2 4 1 3-1-2-11-7-21-12-31-1-1-4 0-3 2z" fill="#e8e8e8"/><path d="M629 209c12-8 25-15 39-21 2-1 0-4-1-3-14 6-27 13-40 22-1 1 0 3 2 2zM632 217l37-22c1-1 0-3-2-2l-36 21c-2 2 0 4 1 3zM1276 237c-15-10-23 13-28 22-5 8-11 15-20 18-8 2-18-1-21-9-1-2-4 0-3 2 6 13 23 13 33 5 7-4 11-11 15-18 5-7 11-25 22-18 2 1 3-1 2-2z" fill="#e8e8e8"/><path d="M1203 270c-2 7-2 14 6 17 7 3 17 2 25-1 7-2 14-7 19-13l5-11c2-5 13-18 19-12 1 1 3-1 2-2-5-6-12 0-17 3-7 6-7 16-14 23-5 6-14 10-22 11h-14c-3 0-6-2-7-5s0-6 1-9c1-2-2-3-3-1z" fill="#e8e8e8"/><path d="M1274 239c2 3 3 7 1 10-1 1 2 3 3 1 2-4 1-9-2-13-1-1-3 1-2 2zM1195 275l-9 7c-1 1 1 3 2 2l9-7c1-1-1-3-2-2zM1181 266l9 5c1 1 3-2 1-3l-9-4c-1-1-3 2-1 2zM1191 254l5 5c2 1 4-1 2-2l-5-5c-1-2-3 0-2 2zM1276 257c-4 3-12 11-11 17 0 6 9 10 13 13 7 4 15 9 13 19-1 10-8 21-17 25-2 0-1 3 0 3 13-5 26-25 18-38-3-6-9-9-15-13-4-3-10-6-9-12 1-4 7-9 10-12 2-2 0-4-2-2z" fill="#e8e8e8"/><path d="M1284 257c-5 3-6 10-3 15 4 8 13 12 20 17 5 3 10 7 10 14 0 5-3 10-5 14-4 9-11 16-21 18-1 0-1 3 1 3 15-4 26-20 28-34 1-9-6-14-13-18l-12-9c-4-4-11-13-3-18 2-1 0-3-2-2z" fill="#e8e8e8"/><path d="M1275 333c4 5 11 6 16 3 2-1 1-4-1-3-4 3-10 2-13-2-1-1-3 1-2 2zM1253 226v15c0 2 3 2 3 0v-15c0-2-3-2-3 0zM1257 223c17-2 34-6 51-3l11 2c2 1 2 1 2 4l-1 7-2 24c-1 2 2 2 3 0l3-30c0-2 1-5-1-7l-11-2c-9-2-18-2-27-2l-29 4c-2 1-1 3 1 3z" fill="#e8e8e8"/><path d="M1277 260c4-7 10-16 20-12 2 0 2-3 1-3-11-4-19 5-24 13-1 2 1 3 3 2z" fill="#e8e8e8"/><path d="M1283 259l36-5c2 0 2-3 0-3l-37 5c-2 1-1 4 1 3zM1262 253l-1 5 1 2 13-1c1 0 1-3-1-3l-12 1 2 2 1-5c0-2-3-3-3-1zM1272 334l-8 3c-2 1 0 4 2 3l7-3c2-1 0-4-1-3zM1274 339c-4 2-6 6-6 9-1 2 2 3 2 1l5-7c2-1 0-4-1-3zM1279 345l-1 6c-1 2 2 2 3 1l1-7c0-2-3-2-3 0zM1199 1022h-2l2 1c-1-2 3-4 4-5a38 38 0 0112-4 44 44 0 0113 0h3c1 0 2 1 1 3l-3 3-5 2-8 2c-6 1-12 0-17-2-2 0-3 3-1 3 9 3 18 3 27 0 4-1 16-6 10-12-2-2-7-2-10-2-4-1-9 0-13 1-6 1-17 4-16 11l1 2h2c2 0 2-3 0-3zM1243 1002c4-3 9-4 13-3 5 2-1 4-3 4l-7-2c-2-2-3 1-2 2 4 3 8 4 12 2 2 0 7-2 5-6-1-3-6-4-9-3-4 0-8 1-11 4-1 1 1 4 2 2zM1152 1035c2-5 9-3 13-2l4 1c3 2 0 3-2 4-5 2-11 0-15-4-1-2-3 1-2 2 3 4 8 6 13 6 3 0 10-2 11-6 2-5-8-6-10-7-5-1-12-1-15 4-1 2 2 3 3 2zM1146 985a166 166 0 0129-6l6 1 1 3-2 1c-5 2-10 1-15 2l-8 2-6 1-2-1-4-2c2 0 2-3 0-3-3 0-5 1-4 4s6 4 9 5l16-3c5-1 10 0 15-2 2-1 6-3 6-5 1-4-4-5-6-5h-16l-20 5c-2 0-1 3 1 3zM1235 538c0 15 2 30 4 45 1 2 3 1 3 0-2-15-4-30-4-45 0-2-3-2-3 0z" fill="#e8e8e8"/><path d="M1238 540l64-5 16-1c3 0 6 0 7 3 2 2 1 6 2 9l1 32c-1 2 2 2 3 0 0-12 0-25-2-37 0-3 0-7-3-9-4-2-9-1-13-1l-75 6c-2 0-2 3 0 3zM1242 586l80-1c2 0 2-3 0-3l-80 1c-2 0-2 3 0 3z" fill="#e8e8e8"/><path d="M1275 586l1 15c0 2 0 6 2 7 2 2 7 1 10 1h17c20 0 40-3 60-6 2-1 1-4-1-3a359 359 0 01-78 6c-1 0-5 1-6-1l-1-6-1-13c0-2-3-2-3 0zM1332 564h12c6 0 13 1 14 8l2 25c1 2 4 2 3 0l-1-18c0-4 0-11-3-14-2-3-7-3-10-3-6-1-11-2-17-1-2 0-2 3 0 3zM1245 544v1h-1 2c1 1 2 2 1 3 0 2-2 1-2-1 1-1-2-2-3 0-1 4 4 6 7 4 2-1 2-3 1-5l-5-4 1 1c-3-3-6 3-3 4 2 1 4-2 2-3zM1248 577c0-2 1-2 2-1v1l-2-2c-1-1-3 1-2 3l5 2c2-1 3-4 2-6-1-1-3-2-5-1-2 0-3 3-3 5 1 1 3 1 3-1zM1316 542c-1-1 0-2 1-1v2c-2 0-2 3 0 3s4-2 4-4-1-4-3-4c-4-2-7 3-4 6h2v-2z" fill="#e8e8e8"/><path d="M1348 575h3l1 1-3-2c-1-1-3 1-2 2 2 2 4 3 6 2s2-3 1-5l-5-2c-2 0-4 2-4 4 1 2 4 2 3 0zM1258 559l55-5c2 0 2-3 0-3l-55 5c-2 0-2 3 0 3zM1267 566l29-2c2 0 2-3 0-3l-30 2c-1 0-1 3 1 3zM1262 576l37-4c2 0 2-3 0-3l-38 4c-1 0-1 3 1 3zM1286 595c3 2 7 1 10 1h13l29-1v-3a290 290 0 01-36 1h-14c-2-1-4 1-2 2zM1333 588h14c2 0 2-3 0-3h-14c-2 0-2 3 0 3zM456 643l1 60c0 2 3 2 3 0l-1-60c0-2-3-2-3 0z" fill="#e8e8e8"/><path d="M459 643c20-2 40-2 60-2l61 3-1-2v58c0 2 3 2 3 0a10945 10945 0 00-2-59 1126 1126 0 00-121-1c-2 1-2 4 0 3zM462 707h114c2 0 2-3 0-3H462c-2 0-2 3 0 3z" fill="#e8e8e8"/><path d="M466 651c0-1 1-2 2-1v1l-1 1s0-1 0 0c1-2-1-4-2-2-2 3 1 5 3 4 3-1 4-4 2-6-1-2-4-2-6-1-1 2-1 5 1 6h2l-1-2zM470 693c-1-1 1-4 2-2 2 2 0 4-3 3-1 0-3 2-1 3s5 1 7-1c2-3 1-6-1-7-2-2-5-2-6 0-2 2-2 5 0 6 1 2 3 0 2-2zM504 621v15c0 2 3 2 3 0v-15c0-2-3-2-3 0zM508 616l140-1-2-2v56c0 2 3 2 3 0a1033 1033 0 01-1-57l-140 1c-2 0-2 3 0 3zM581 678c21-2 42-2 64 0v-3c-22-2-43-2-64 0-2 0-2 3 0 3z" fill="#e8e8e8"/><path d="M634 666c-1-1 1-4 2-2 2 2-2 3-3 1-1-1-3 0-2 2s4 3 6 2c3-1 3-4 2-7-2-2-5-3-7-1s-2 5 0 7c1 1 3-1 2-2zM639 627v-4c1-1 1 0 1 1 1 1 0 3-1 3h-1c0-2-3-2-3 0s2 4 5 3 4-4 3-6c0-3-2-5-5-4s-3 4-2 7c0 2 3 1 3 0zM1167 737v71c0 2 3 2 3 0v-71c0-2-3-2-3 0z" fill="#e8e8e8"/><path d="M1169 738h147v-3h-147c-2 0-2 3 0 3z" fill="#e8e8e8"/><path d="M1314 735v73c0 2 3 2 3 0v-73c0-2-3-2-3 0zM1186 757v46c0 8 12 8 12 0v-46c0-7-12-7-12 0zM1219 758v47c0 8 12 8 12 0v-47c0-8-12-8-12 0zM1253 755v49c0 8 12 8 12 0v-49c0-8-12-8-12 0zM1284 754v50c0 8 12 8 12 0v-50c0-7-12-7-12 0zM1177 746c-1-1 0-1 1-1l1 2v2l-1-1c0-2-3-2-3-1-1 3 1 5 4 5 2 0 3-3 3-5s-2-5-4-5c-3 0-5 2-4 5 0 1 3 1 3-1zM1305 744h-1l1 1h1l-1 2h2l-1-2c-1-1-4 1-2 2l1 2h2c3-2 3-7-1-8l-4 2v3l2 1c2 1 3-2 1-3z" fill="#e8e8e8"/><path d="M1171 809h144c2 0 2-3 0-3h-144c-2 0-2 3 0 3zM767 1063c61-5 122-6 182-5 2 0 2-3 1-3-61-1-122 0-183 5-2 0-2 3 0 3zM858 1039l92-1v-3l-92 1c-2 0-2 3 0 3z" fill="#e8e8e8"/><g><path d="M771 261c12-10 30-12 44-5 2 1 4-2 2-3-16-7-35-5-48 6-2 1 1 3 2 2zM793 214c10 1 18 6 23 15 1 1 4 0 3-2-6-9-15-15-26-16v3zM835 218c-14-31-17-65-8-98 0-2-3-3-3-1-9 34-5 69 8 101 1 2 4 0 3-2zM1142 47c-7 11-14 24-19 36l2 2c8 0 15 3 21 8l3-1c2-14 9-26 19-35 1-1-1-3-2-2-11 10-18 22-20 36l2-1c-7-5-14-8-23-8l1 2 18-36c1-1-1-3-2-1z" fill="#161616"/><path d="M1144 46c10 0 18 5 23 14 1 1 3 0 2-2-5-9-14-15-25-15-2 0-2 3 0 3zM1180 135l1-1-2-1h2l-2-6c0-4 2-7 7-7h4l2-5 3-8c5-11 16-18 28-18 2 0 2-3 0-3a35 35 0 00-34 27c0 3-1 3-4 3l-6 3c-4 3-5 14 0 16h2l1-2c-1-1-1-2-2-1-2 0-2 3 0 3z" fill="#161616"/><path d="M1197 125c2-11 12-19 23-18 2 1 2-2 1-2-13-2-25 7-27 20 0 2 3 2 3 0zM620 557l13-14c1-1-1-3-2-2l-13 14c-1 2 1 4 2 2z" fill="#161616"/><path d="M618 556l2 1-1 1h-2l1 1v3l1 5 3 9c0 2 3 1 3 0l-3-13c-1-2-1-6-3-7h-2v2l2 1c2 0 1-3-1-3zM625 580l21 15c2 1 3-1 2-3l-22-15c-1-1-3 2-1 3z" fill="#161616"/><path d="M648 595l20-2c2 0 2-3 0-3l-21 2c-2 1-1 4 1 3z" fill="#161616"/><path d="M671 591l9-11c1-1-1-3-2-1l-9 10c-2 1 0 3 2 2zM633 544c10-3 18 0 27 4 8 4 16 9 17 19 1 2 4 2 3 0-1-10-8-17-17-21-10-5-19-8-30-4-2 0-1 3 0 2z" fill="#161616"/><path d="M678 568c0 4-1 7-3 11 0 2 2 3 3 2l3-13c1-2-2-2-3 0zM626 577l8-15c1-2-2-3-2-2l-9 15c-1 2 2 4 3 2zM650 593l4-10c1-2-2-3-3-1l-3 10c-1 2 2 2 2 1zM670 590l2-9c0-1-3-2-3 0l-2 9c0 2 3 2 3 0zM639 546c-10 4-5 16 1 21 7 6 18 9 26 2 1-1-1-3-2-2-6 5-14 3-20-1-5-4-12-14-4-18 2 0 0-3-1-2z" fill="#161616"/><path d="M640 549c10-2 28 4 24 17-1 1 2 2 3 0 5-14-16-23-27-20-2 0-1 3 0 3z" fill="#161616"/><path d="M638 553l1-2h-3c2 2 2 4 1 7h3c-1-4-2-6-1-10l-2 1c4 2 3 12 2 15h3c-1-5-3-9-1-13l-2-1 1 14 3-1c-1-1-4-12-1-13l-2-1c2 5 2 10 1 15l3-1v-14l-2 1c4 2 2 13 2 17l3-1-2-8c0-1 0-6 1-5l1 6-2 8 3-1-2-7v-4c0-2 1-3 1-1 2 2 1 12 0 14h3c0-1-4-14-2-15 3-1 1 16 1 17h3l-2-10-1-4c3-3 3 1 4 3v6c0 2-1 1-1-1-1-2-1-3 1-4 0-2 1-2 1 0 1 1 0 5-1 7h2c-2-2-2-4 1-6v6l-4-7c-1-2-1-3 2-2 1 0 2 1 2 3l2 7 2-1c-5-3-9-6-12-10l-2-3 3-3 2 1 4 9 2-2c-3-1-7-4-8-7v-2h3l3 4c1 2 5 9 2 9l-4-5c-1-1-3-8 2-6 2 1 5 10 4 11-2 3-4-1-5-2l-1-3c5-2 7-1 7 3 0 2 1 6-3 3-3-2-1-4 0-6 2-3 3-2 4 2v4c1 1 0 2-2 2-1-1-2-3-1-5 2-2 0-4-1-3-5 4 0 15 5 11 3-1 3-7 2-10-1-4-4-7-8-6-7 1-4 13 1 16 9 3 6-13 3-17-3-2-7-2-9 1-2 4-1 8 1 11 2 2 5 5 8 4s2-7 2-9c-1-5-9-16-13-8-2 5 5 19 11 15 3-2 0-8-1-10-1-5-5-10-10-11-3 0-5 2-4 6 1 5 6 8 11 11l2-2c-1-4-3-8-7-11-2-2-6-3-8 0-2 4 2 8 4 11 3 4 7 7 12 10 1 0 2 0 2-2 0-3-3-20-10-14-5 3 0 16 5 16 6 0 5-12 1-14-3-1-6 0-7 3-1 4 1 7 3 10h2c3-3 3-7 2-11-1-2-3-5-6-3-4 2-2 18 3 17 4-1 3-8 2-10 0-3 0-8-4-11-9-6-4 17-3 20h3l1-16c-1-2-2-7-5-7-7 0-1 18 0 21 0 1 2 2 3 0 0-3 2-20-4-19-7 1-3 15-1 18h2c1-3 4-20-3-19-7 2-3 15-1 19 1 1 3 0 3-1 0-5 2-17-4-19h-2v16c1 2 3 1 3 0 1-6 0-11-1-16 0-1-1-2-2-1-5 2-3 13-1 17 0 2 2 1 3 0l-2-15h-2c-3 5-2 10 0 15 1 2 3 2 3 0 0-5 1-15-4-17-1-1-2 0-2 1-1 3-1 7 1 10 0 2 2 2 2 0 2-3 1-6 0-8h-3l-1 3c0 2 3 2 3 0zM691 430c-2 1-7-5-7-6-2-2-3-4-3-7 0-6 7-12 13-10 5 2 8 8 8 13-1 6-7 11-13 8-2-1-3 1-1 2 7 4 15 0 17-8 1-8-4-18-13-18-8-1-14 7-14 15 1 5 9 18 15 13 1-1-1-3-2-2z" fill="#161616"/><path d="M690 419c-3-2 0-7 3-5 2 1 2 3 1 5l-2 2-2-2c1-1-2-2-3 0 0 3 4 6 7 4 4-2 5-7 2-10-2-3-6-3-9-1-2 3-1 8 2 9 2 1 3-1 1-2z" fill="#161616"/><path d="M680 410c-3 5-4 12 0 18 4 4 11 6 16 3 2-1 0-4-2-3-4 2-9 1-12-3s-2-10 1-14c1-1-2-3-3-1zM474 511c1 9 5 18 14 20 9 1 15-4 15-12-1-9-7-18-16-18-9-1-16 7-14 16 1 2 3 1 3-1-2-8 6-14 13-12s11 9 11 16c-1 7-8 10-13 7-7-2-9-10-10-16 0-2-3-2-3 0z" fill="#161616"/><path d="M474 510c-4 11 0 23 10 28 4 2 9 4 13 0 4-3 4-8 3-13 0-2-3-2-3 0 0 4 1 9-3 12-4 2-10-2-13-4-6-6-7-15-4-22 1-2-2-3-3-1z" fill="#161616"/><path d="M473 519c1 7 6 13 12 16 4 2 11 3 13-3 0-2-3-2-3 0-1 3-6 2-8 1l-5-4c-3-3-5-6-6-10 0-2-3-1-3 0z" fill="#161616"/><path d="M475 519c3 10 12 15 21 13 2 0 1-3 0-3-8 2-16-3-18-10-1-2-4-1-3 0z" fill="#161616"/><path d="M478 525l5 12c1 1 3 0 2-2l-4-11c-1-1-4-1-3 1z" fill="#161616"/><path d="M483 528c0 3 1 7 3 9 1 1 2 2 3 1l2-2c-1-2-4-2-3 0v-1l-1-2v-2l-1-4c-1-1-4-1-3 1z" fill="#161616"/><path d="M488 531l1 5 2 3c3 1 4-3 1-4-1 0-2 3 0 3h-1c1-1 2-1 1-2v-2l-2-4c0-1-3-1-2 1z" fill="#161616"/><path d="M491 532l1 5c0 2 3 2 3 0l1-5h-3v2l1 1-9-8-2 3 7 4c2 1 4-1 3-2l-9-5c-1 0-2 2-1 3l10 7h1c2-1 3-4 2-6h-3l-1 6h3l-1-6c-1-2-4-1-3 1zM484 509c-3 4 0 9 3 11 4 2 9 0 8-4-1-2-4-1-3 1l-2 1-3-2c-1-2-2-4-1-6 1-1-1-3-2-1zM1234 466c0-3 0-9 4-11 3 0 6 2 8 4l7 11 2 1 5-7c1-1 3-3 5-3s4 2 5 4l8 17c0 2 3 2 3 0l-6-15c-1-3-3-8-7-9-6-3-13 6-15 11h3c-2-6-7-16-14-17-8-2-11 8-11 14 0 2 3 2 3 0zM1164 530c15 16 24 37 27 60 0 2 3 2 3 0-3-23-12-45-28-62-1-2-3 1-2 2zM1241 732c-3 0-5-3-4-6s5-4 8-3c3 0 7 3 5 7-1 3-6 3-9 3-2 0-2 3 0 3 5 0 13-1 13-7 1-6-6-9-10-9-5-1-10 2-11 7 0 5 4 9 9 8 2-1 1-4-1-3zM1073 812c-5 24 0 49 14 69 1 2 3 0 2-1a89 89 0 01-13-67c0-2-3-3-3-1zM1138 368c8-7 17-11 28-12 2 0 2-3 0-3-11 1-22 5-30 13-1 2 1 4 2 2zM1140 377c10-6 22-8 34-4 1 1 2-2 0-3-12-4-25-2-35 5-2 1 0 4 1 2zM565 314c0 3 4 4 6 3 3-1 4-5 7-6 4-1 8 2 9 6h2l7-8c4-2 7 1 11 2 3 1 7 1 9-2 1-2-2-3-3-2-3 5-12-3-17-1-4 1-7 6-9 10h3c-1-4-4-7-8-7h-5c-2 0-9 7-9 4-1-2-4-1-3 1zM586 294c0-3 3-6 6-6s4 2 6 4c3 1 5 1 7-1s2-4 5-3h4c2 0 3-2 5-3 4-1 8-1 11 1 2 1 3-2 2-3-6-3-10-2-16 1l-6 1h-3c-2 0-2 1-3 2-1 2-2 2-3 1l-4-1-2-2h-6c-4 1-6 5-6 9 0 2 3 2 3 0zM993 1013v11h3v-11c0-2-3-2-3 0z" fill="#161616"/><path d="M995 1011l4-11c1-2-2-2-3-1l-3 11c-1 2 2 2 2 1z" fill="#161616"/><path d="M998 1000l12-4c2-1 2-4 0-3l-13 4c-2 1-1 4 1 3z" fill="#161616"/><path d="M1011 996l13 3c2 0 3-3 1-3l-13-3c-2 0-2 2-1 3z" fill="#161616"/><path d="M1024 999l1 10h3l-1-10c0-2-3-2-3 0zM993 1012l13 6c2 1 2-2 1-3l-13-6c-1-1-3 2-1 3z" fill="#161616"/><path d="M1008 1017l18-8c2 0 0-3-2-2l-18 8c-2 1 0 3 2 2zM1007 1006l-1-1 2-2h4c2 0 2 2 1 2h-6c-2-1-3 2-1 3 3 1 8 2 10-2 2-3 0-6-4-6-3-1-7 0-8 3s1 6 4 6c2 0 1-3-1-3z" fill="#161616"/><path d="M1006 1016v8c-1 2 2 2 3 0v-8c0-2-3-2-3 0z" fill="#161616"/><path d="M995 1026l12 2c2 0 2-2 0-3l-11-2c-2 0-3 3-1 3z" fill="#161616"/><path d="M1009 1027l15-8c2-1 0-3-1-2l-16 8c-2 1 0 3 2 2z" fill="#161616"/><path d="M1024 1009v8c0 2 3 2 3 0v-8c0-2-3-2-3 0zM364 774c11 3 19 12 20 24 0 2 3 2 3 0-1-13-10-24-22-27-2 0-3 3-1 3z" fill="#161616"/><path d="M366 772c-1-8 7-11 13-7a36 36 0 0116 31c0 2 3 2 3 0 0-12-5-24-15-32-4-3-9-5-13-3-5 1-8 6-7 11 0 2 3 2 3 0z" fill="#161616"/><path d="M384 800c4 4 10 4 14 0 1-2-1-4-2-2-3 2-7 3-10 0-1-1-3 1-2 2zM385 807c-2 5-1 11 2 16 1 2 3 0 2-1-2-5-2-9-1-14 1-2-2-3-3-1zM392 807c0 4 3 8 7 11 1 1 3-2 1-3-3-2-5-5-5-8 0-2-3-2-3 0zM386 789h2l1-1h4c2 1 3-2 1-3-3 0-6 0-9 2-1 1-3 4 0 5 2 0 2-3 1-3zM379 778c1-2 4-4 6-3s3-2 1-3c-4-1-8 1-9 5-1 2 2 3 2 1zM370 771c0-2 2-4 4-4s2-3 0-3c-4 0-6 3-7 7 0 2 3 2 3 0zM356 765l-6-7c0-2-3 0-2 2 1 3 3 5 6 7 2 1 3-1 2-2zM361 760l-1-12c0-2-3-2-3 0l1 13c0 2 3 1 3-1zM545 677c-1 4 2 7 7 7 6-1 7-11 10-15 3-5 6-8 12-8 3 0 6 1 9-1 2-1 2-3 3-5l1-6c0-2 4-9 7-5 1 2 3 0 2-1-2-3-6-4-9-1-5 4-1 14-8 16h-9l-7 4-5 8-2 4-1 3c-2 3-4 4-7 1 0-2-3-3-3-1z" fill="#161616"/><path d="M544 680c-2 6 5 11 11 9 4-2 6-5 8-9 2-5 3-12 9-13 5 0 9 2 13 0s4-5 5-8c1-5 13-12 5-17-1-2-3 1-1 2 4 3-3 7-5 9l-2 6c-1 2 0 4-4 6h-13c-4 1-6 4-7 8l-4 7c0 2-2 4-3 5-3 2-11 2-9-4 0-2-3-3-3-1zM539 682c-3 1-5 3-6 5l1 3 2-1 4-4 1-2-2-1zM540 692l-1 7c0 2 3 2 3 0l1-6c0-2-3-3-3-1zM603 631l2-3c2 0 2-3 0-3-3 1-6 4-5 7 1 2 4 1 3-1zM606 641h8c2-1 1-4-1-3h-7c-2 0-2 3 0 3zM922 949c-4-4 5-11 7-12 5-3 10-3 14 0 2 1 3-1 2-2-6-5-14-3-20 1-4 3-10 10-5 15 1 2 3 0 2-2z" fill="#161616"/><path d="M923 952c7-9 19-4 19 6l2 1c11 0 18-10 14-21-1-2-4-1-3 1 3 9-2 17-11 17l1 2c0-13-16-18-24-8-1 2 1 3 2 2zM945 935l23-22c2-1 0-3-2-2l-23 22c-2 2 0 4 2 2z" fill="#161616"/><path d="M958 940c7-10 15-19 25-26 1-1-1-3-2-2-10 8-18 16-26 26-1 2 2 3 3 2zM968 910c-3-7 1-14 9-15v-3c-10 1-16 10-12 19 0 2 3 1 3-1z" fill="#161616"/><path d="M978 892c-5 3-4 9 0 12 6 3 12-1 16-6 1-1-1-3-2-2-2 3-5 6-9 6s-8-5-4-8c2-1 0-3-1-2z" fill="#161616"/><path d="M981 915c11 2 20-10 14-20-1-2-3-1-2 1 4 8-2 17-11 16-2 0-3 2-1 3zM920 952l3 6c0 2 3 1 2-1l-2-6c0-2-3-1-3 1z" fill="#161616"/><path d="M925 958c5-2 12-1 16 3 1 2 4 0 2-2-5-5-13-7-20-3-1 1 0 3 2 2z" fill="#161616"/><path d="M942 959l1 8c1 1 4 1 3-1l-1-8c0-2-3-1-3 1z" fill="#161616"/><path d="M944 967c14 4 23-16 20-27 0-2-3-1-3 1 3 8-5 26-16 23-2-1-2 2-1 3z" fill="#161616"/><path d="M963 941c6-8 13-14 20-20 2-2 0-4-2-2-7 6-14 12-20 20-1 1 1 3 2 2z" fill="#161616"/><path d="M981 921c5 2 11 0 14-4 4-5 4-11 2-16 0-2-3-1-3 1 2 4 2 9-1 13-2 3-7 5-11 3-2-1-3 2-1 3zM926 952h-1c-1-2-3-1-2 1l1 3 2 1c5-3 11-4 15 2 1 2 4 0 3-1-5-8-13-7-20-4l3 1-2-4-2 2c1 2 4 1 3-1z" fill="#161616"/><path d="M926 955c2-2 5-1 7-2 3 0 6-1 7 2 1 2 4 0 3-1-1-3-4-4-7-4-4 0-8 0-12 2-2 1 0 3 2 3z" fill="#161616"/><path d="M924 952l4-1 4-1 4 2 3 3c1 2 3 0 2-1l-3-5c-2-2-5-2-8-1-2 0-10 1-9 5 1 2 4 1 3-1z" fill="#161616"/><path d="M931 948h-1l1 1v-1l-1 1c1-1 4 0 5 1 2 1 3-1 2-2-2-2-4-2-6-2s-4 1-3 3 4 0 3-1zM978 894v8c1 1 4 1 3-1v-7c0-2-3-2-3 0z" fill="#161616"/><path d="M977 894v6c0 2 3 2 2 0l1-5c1-1-2-3-3-1zM961 939c5-6 10-12 17-17 1-1-1-3-2-3-7 5-12 11-18 17-1 1 1 3 2 2l21-19c1-1 0-3-2-3l-17 16c-1 2 1 4 2 2l16-15c2-1 0-3-2-2-5 4-10 9-13 15-1 2 1 3 2 2l14-14-3-2-11 10 2 2 13-13c1-1 0-3-2-2l-2 2 2 2 3-3-2-2-1 2c-2 1 0 3 1 2l4-2-2-2-1 2c-2 1 0 3 2 2l2-2-2-2-1 2c-1 1 1 3 2 2l4-3-2-2-2 3c-1 1 0 3 1 2l5-3-1-3-4 4c-1 2 0 4 2 3 4-2 7-6 9-10l-3-2c-2 6-6 9-12 10-1 0-1 3 1 3 4-1 8-3 11-6 1-2-1-4-3-2-2 3-5 4-9 5l1 3c7-2 12-6 14-12 1-1-2-3-3-1-2 4-4 7-8 9l2 3 4-5c1-1-1-3-2-2l-5 3 2 3 2-4c1-1-1-3-2-2l-4 4 2 1 1-2c1-1 0-2-2-2-1 1-1 2-3 2l2 3 2-3c1-1-1-3-2-2l-4 2 2 3 2-2c1-2 0-3-2-3l-4 4c-1 1 2 3 3 2l1-2-1-2-13 13c-1 1 1 3 2 2l11-11c2-1 0-3-2-2l-13 14 2 2 13-15-2-2-16 16 2 2c5-6 10-11 16-15l-1-3-21 19 2 2 17-16-2-2c-6 5-12 11-17 18-1 2 2 4 3 2zM925 959c5-2 18-1 18 6 0 2 3 2 3 1 0-10-16-12-23-9-1 1 0 3 2 2z" fill="#161616"/><path d="M957 939c2 6-1 14-7 17-2 0-3 0-4 2l-1 5 1 2c5 2 10-1 13-5 4-6 4-14 4-21 0-2-3-2-3 0 0 9-3 20-13 21l1 3h4c2 0 4-2 5-3 1-2-1-4-2-2l-3 1c-1 2-2 1-3-1-1-1-3 2-1 3s6 0 4-3l-1-1c-3 0-5 3-4 5 3 4 8-1 10-2l-2-2c-3 2-4 1-7 2l-2 1c-1 1 0 3 1 2 12-2 15-14 16-24h-3l-1 15c-2 4-7 11-12 8l1 2c1-2 0-3 2-5l2-1c3-1 4-3 6-5 3-4 4-9 2-15 0-2-3-1-3 1zM993 912l-2 2-1 2 2 1 4-4v-2l-3 1zM1107 875c-2 7 3 13 7 18l15 18c2 1 4-1 2-3l-12-12c-4-6-11-13-9-20 0-2-3-3-3-1zM1257 828l18-13c2-1 1-3-1-2-7 3-13 8-19 13-1 1 1 3 2 2zM1264 834c8-4 17-6 26-7 2-1 2-4 0-3-10 1-19 3-27 8-2 1-1 3 1 2zM1281 845h22c2 0 2-3 0-3h-22c-2 0-2 3 0 3zM1165 698c-1-2-1-4 1-6l5-1 4-1c3-2 3-6 4-9s3-3 6-5l4-4c3-4 6-9 11-10 2 0 2-3 0-3-5 1-8 4-11 8l-7 7-5 4c-2 2-1 5-2 7-2 3-6 2-8 3-5 2-7 7-5 11 1 2 4 1 3-1zM1180 705c1-4 1-11 6-12l5-1c2 0 2-2 2-3 1-3 2-5 5-7 6-7 15-10 21-18 1-2-1-3-3-2-6 9-18 12-24 22-1 1-1 5-3 6l-6 1c-5 3-5 9-6 14 0 2 3 2 3 0z" fill="#161616"/></g><g><path d="M766 562a1012 1012 0 01-118 152l-17 14c-42 2-64 6-64 12-1 3 7 7 23 12-36 19-53 30-52 33 1 2 15-1 41-11-11 9-37 32-33 37 3 5 31-9 45-16-6 10-6 13-5 15 4 4 30-9 47-28 12-12 19-25 22-34 28-18 49-37 63-51 25-25 41-41 49-68s3-52-1-67z" fill="#fff" stroke="#161616" stroke-width="3" stroke-miterlimit="10"/><path d="M605 749c7 4 14 4 22 2 1-1 1-4-1-3-7 2-13 2-19-1-2-1-4 1-2 2zM549 811c15-11 30-21 46-30a557 557 0 00-48 27c-1 2 0 4 2 3zM650 714c7 6 12 13 13 22 0 2 3 1 3-1-2-9-6-17-14-23-1-1-3 1-2 2zM663 701c10 6 12 18 13 28 1 2 4 1 3-1-1-11-4-23-15-29-1-1-3 1-1 2zM633 725c1 12 10 22 22 24 1 0 2-2 0-3-10-2-18-10-19-21 0-2-3-2-3 0z" fill="#161616"/><path d="M635 725c2 11 10 20 20 25 2 1 4-2 2-2-10-5-17-14-19-24 0-2-3-1-3 1zM590 799c5-5 11-10 18-14 1-1 0-4-2-3l-19 15c-1 1 1 3 3 2zM692 668c9 7 14 17 14 29 0 2 3 2 3 0 0-13-6-24-16-32-1-1-3 2-1 3zM706 652c11 8 13 22 13 34 0 2 3 2 3 0 0-14-3-28-15-36-1-2-3 1-1 2zM733 613c5 3 9 8 9 14 1 2 4 1 3-1-1-6-4-12-10-16-2-1-3 2-2 3zM745 602c3 2 5 4 6 7 1 2 3 0 3-1-2-4-4-6-8-8-1-2-3 1-1 2z" fill="#161616"/><path d="M758 613c-4-1-17 37-47 74-22 28-47 46-65 57a109 109 0 01-59 59c-1 2-3 5-2 6 2 3 16-3 19-5 5-2 21-10 37-31 4-5 10-13 15-24a423 423 0 0091-81c12-43 13-54 11-55zM547 811l25-13c19-12 32-23 34-21l-3 6c-2 3-7 9-20 16a74 74 0 01-36 12z" opacity=".4" fill="#666"/><path d="M753 631c-3 9-8 22-17 36a365 365 0 01-54 61 525 525 0 0065-59l6-38z" opacity=".5" fill="#666"/></g><g stroke="#161616" stroke-miterlimit="10"><path d="M1089 422c16 8 27 30 31 64l-77 353-283-28-27-62c184-244 302-353 356-327z" fill="#161616" stroke-width="2"/><path d="M799 418a4213 4213 0 00-66 330 648 648 0 00258 30 7314 7314 0 0199-357 951 951 0 00-291-3z" fill="#fff" stroke-width="3"/></g><g><path d="M823 469c-16 44-25 91-26 139 0 2 3 2 3 0 1-47 10-94 26-139 1-1-2-2-3 0z" fill="#161616"/><path d="M827 470c59-15 122-13 180 6 2 0 2-2 1-3-59-19-123-21-182-6-2 1-1 4 1 3z" fill="#161616"/><path d="M1005 477c1 12-1 24-3 36l-6 34c-5 22-12 44-22 64-1 2 1 3 2 2 11-21 18-43 23-66l6-34c2-12 4-24 3-36 0-2-3-2-3 0zM822 579c-35 13-21 61-44 84-1 1 1 3 2 2 12-11 15-27 18-42 3-16 8-35 25-41 2-1 1-4-1-3zM831 592c-27 18-13 60-39 78-2 1-1 4 1 3 27-19 13-60 39-79 2-1 0-3-1-2z" fill="#161616"/><path d="M778 666c5 0 10 1 13 5 1 2 4-1 2-2-4-4-9-6-15-6-2 0-2 3 0 3zM816 583c8-15 18-29 30-40 7-6 16-12 26-10 9 1 14 10 17 18 1 2 4 1 3-1-3-7-7-15-14-18-8-5-18-3-25 2-17 11-31 30-40 47-1 2 2 4 3 2zM878 573c20-18 65-8 67 22 1 13-6 27-2 41 2 11 12 15 23 16 1 1 2-2 0-3-7-1-14-3-18-9-5-7-3-17-2-25 2-13 4-27-4-38s-21-15-34-16c-11-1-23 2-32 10-2 1 1 3 2 2z" fill="#161616"/><path d="M903 588c14-1 18 16 17 26 0 11-1 21 2 31 4 16 18 31 36 26 2 0 1-3-1-2-11 2-21-4-27-13s-8-20-7-31c0-10 2-20-3-29-3-7-9-12-17-12-2 1-2 4 0 4z" fill="#161616"/><path d="M962 652c-3 3-5 8-5 13 0 2 3 2 3 0 0-4 1-8 4-11 2-1-1-4-2-2zM965 668l2 7c1 2 4 1 3-1l-3-7c-1-2-3 0-2 1zM968 662c3 0 5 1 7 3 1 2 4-1 2-2-2-3-5-4-9-4-2 0-2 3 0 3zM973 654l10-2c1 0 1-3-1-3l-9 2c-2 0-2 3 0 3zM772 673c-2 1-5 4-6 7-1 1 1 3 2 1l6-6c1-1 0-4-2-2zM782 684l3 7c0 2 3 1 2-1l-2-7c-1-2-4-1-3 1zM796 684l4 6c1 2 4 0 3-1l-5-6c-1-2-3 0-2 1zM822 614a913 913 0 0173-2c8 0 16-1 24 3 1 1 3-2 1-2-6-4-12-4-19-4h-26l-54 1c-1 1-1 4 1 4zM824 581c10-3 22-3 31 2 8 5 14 15 13 24 0 2 3 2 3 0 1-10-5-20-13-25-10-7-23-7-35-4-2 0-1 3 1 3z" fill="#161616"/><path d="M876 610c4-12 15-20 28-22 2 0 2-3 0-3-14 2-26 11-31 24-1 2 2 3 3 1zM933 568c8-7 20-4 26 5 6 8 5 17 6 27 0 15 7 28 19 37 2 1 3-2 2-3-9-6-15-15-17-25-3-10 0-21-4-31-5-14-22-23-35-12-1 2 1 4 3 2z" fill="#161616"/><path d="M936 573c9-6 16 5 18 13l4 24c5 13 13 24 24 32 1 1 3-2 1-3-7-5-13-12-17-20-5-9-7-18-8-28-1-7-2-15-8-19-5-4-11-5-16-2-2 2 0 4 2 3z" fill="#161616"/><path d="M946 619l16 2c2 1 3-2 1-3l-17-2c-2 0-2 3 0 3zM851 578c5-10 15-23 27-24 2 0 2-3 0-3-14 1-24 15-30 25-1 2 2 3 3 2zM863 587c5-6 10-11 16-15 2-1 0-4-2-3-6 5-12 10-16 17-2 1 1 3 2 1z" fill="#161616"/><path d="M859 565c5 2 8 7 8 12 0 2 3 2 3 0 0-7-4-12-10-15-1-1-3 2-1 3zM888 549c3 4 4 9 5 14 1 2 4 1 3-1l-5-15c-1-1-4 0-3 2zM903 587c2 7 5 14 6 22 0 2 3 1 3-1l-7-22c0-2-3-1-2 1zM984 460c0-2 1-3 2-3 2 0 3 1 3 2 0 3-4 4-5 2s-3-1-2 1 4 4 6 3c3-1 4-4 4-6-1-3-3-5-6-5s-5 3-5 6c0 2 3 2 3 0zM1000 465c0-1-2-3 0-4l3 2v3h-2c-1-2-4 0-3 1 1 2 4 3 6 2 3-2 3-5 1-8-1-2-5-4-7-2-3 2-2 6 0 8 1 2 4-1 2-2zM1068 431l-1 1 2-1v-3l3-1c2 1 2 5-1 5-2 0-2 3 0 3 3 0 5-2 6-5 0-3-3-6-6-6-2 0-5 2-5 5-1 2 0 7 3 5 2-1 1-4-1-3zM1004 475c-2 48-13 95-32 139-1 2 1 3 2 1 20-44 31-92 33-141 0-1-3-1-3 1zM831 596c3-3 7-2 9 1s3 7 3 10c0 2 3 2 3 0 0-5-1-10-6-14-3-2-8-3-11 1-1 1 1 3 2 2zM819 613h5c2 0 2-3 0-3h-5c-2 0-2 3 0 3z" fill="#161616"/><path d="M823 610v-3h-3v2h3v-4l-3-1v6h3l2-7-3-1v7l3 1c0-3 1-7 3-10l-3-1-1 10 3 1 3-12h-3l-1 11 2 1 4-14h-3l-2 13c0 2 3 3 3 1l2-15h-3c2 5 0 11 1 16 0 2 3 1 3 0l1-17h-3v16c0 2 3 2 3 0l1-17h-3v16c1 2 3 2 3 0l1-15h-3l1 15c0 2 3 2 3 0v-13h-3l2 13c0 2 2 3 2 1 2-5 1-10 0-15h-3c2 5 0 10 2 15 1 2 3 2 3 0l-1-15-2 1 1 14c0 1 3 2 3 0l1-11h-3l2 11c0 2 3 2 3 0v-9l-3 1v7h3v-2c0-2-3-2-3 0v3c1 1 3 1 3-1l-1-8c0-2-3-1-3 0l1 9h3l-2-12c-1-1-4-1-3 1v10l2 1c0-5 0-10-2-15 0-1-3-1-2 1v14l3-1c-2-4 0-10-2-14-1-2-3-2-3 0l1 14h2l-1-13c0-2-3-2-3 0v13h3l-1-15c0-2-3-2-3 0l-1 15h3v-16c0-2-3-2-3 0l-1 16 3 1v-16c0-2-3-2-3 0l-1 17 3-1c-2-5 1-11-1-16-1-1-3-2-3 0l-2 15h3l1-13c0-2-2-2-3 0l-3 13c0 2 3 3 3 1l1-12c0-2-2-2-3 0l-3 11c0 2 3 2 3 1l2-11c0-2-2-2-3-1l-4 11c0 2 3 3 3 1l1-8c0-1-2-2-3-1l-2 9c0 2 3 2 3 0v-6c0-1-2-2-3-1l-1 6c0 2 3 2 3 0l1-3c0-1-3-2-3 0l-1 3c1 3 4 3 4 1zM904 588l7 22c1 2 3 2 3 0 0-8-5-14-6-22l-2 2c3 2 3 8 4 11 1 4 2 7 4 9 1 2 3 1 3-1-3-6-7-13-8-21l-2 2c5 5 4 13 8 19 2 1 4 0 3-2l-7-17-2 2c3 1 5 9 6 11l3-1-6-13-2 2c3 2 4 6 5 9l1 5c0 3 0 0-1 2 0 2-1 4 3 4l-2-2-1 2c1 2 2 2 4 2 1 1 2 0 2-1-1-6-2-13-5-18l-2 1c2 4 3 8 3 13 0 2 3 2 3 0 0-5-1-10-4-14-1-2-3-1-2 1l4 17 2-1-3-2v3l2-2c0-1 0-2-2-2h1l1-1c1-2-1-5-1-7-2-4-3-9-7-11-1-1-3 0-2 2l6 13c1 1 3 0 3-2-2-4-4-11-8-13-2 0-2 1-2 2l7 18 3-2c-4-6-3-14-9-19-1-1-3 0-3 1 1 8 5 15 8 21l2-1-4-13-4-8c-1-1-3-1-3 1 1 7 6 13 6 21h3l-7-22c-1-2-4-1-3 0zM839 501l4 3c1 2 3 0 2-1l-4-5c-2 0-3 2-2 3zM842 495l3 4c1 1 4 1 3-1l-5-5h-2l1 2zM852 499l2-4c1-2-2-3-2-1l-2 2v2l2 1zM889 573c-1 2-1 5 1 8 1 1 3 0 2-2s-2-4-1-6c0-1-2-2-2 0zM896 572l-1 6c1 2 3 1 3 0v-5c0-1-1-2-2-1zM927 618c2-2 4-3 7-3 2 0 2-3 0-3-3 0-6 2-9 4-1 1 1 3 2 2zM927 624l5-3c2-1 1-3-1-2l-5 3 1 2zM931 646c1-3 3-5 5-6s1-3 0-2c-4 1-7 4-7 8h2zM934 656c2-3 4-5 7-6 2-1 0-3-1-2l-8 6c0 1 1 3 2 2zM793 653c2 0 4 2 4 4 1 1 3 0 3-1-1-3-3-4-6-5h-1v2zM796 650l3 2c0 2 2 0 1-1l-3-3c-1-1-2 1-1 2zM842 584v6c-1 1 1 2 2 1 1-2 2-5 1-8-1-1-3-1-3 1zM848 587l-2 5c-1 1 1 2 2 1l2-6h-2z" fill="#161616"/><path d="M832 594l3-2 3 1 4 4c3 3 3 7 1 11 0 2 2 2 3 1 2-6 0-13-5-16-3-2-10-5-11 0-1 2 2 2 2 1zM780 609l-6 3c-1 0 0 3 1 2l6-3c1-1 0-3-1-2zM784 612l-5 7c-1 1 0 2 1 1l5-7c1-1-1-3-1-1zM780 668l-2 3v1l1 1 3-4v-1h-2zM783 672l1 4c1 2 3 1 3 0l-2-5c0-1-2-1-2 1zM960 677l2 6c0 2 2 2 2 0s0-5-2-7c-1-1-3 0-2 1zM973 676l4 4c1 1 2 0 1-1l-3-4c-1-2-3 0-2 1zM988 635l6-3c2 0 2-3 0-3l-8 4c-1 1 1 3 2 2zM990 639l4 1c2 1 3-1 1-1l-5-2v2zM989 644c0 2 1 4 3 5 1 1 3-1 1-2l-2-4c0-1-3-1-2 1zM887 484c4 7 6 13 8 20 0 2 2 1 2 0-2-7-4-14-8-21-1-1-3 0-2 1zM901 505l1-6c0-2-2-2-3-1v7h2zM909 506c2-5 5-9 10-12 1-1 0-3-1-2-5 3-9 8-11 13-1 2 1 3 2 1zM916 505l9-4-1-2-9 5c-1 0 0 2 1 1zM952 524l-9 9c-1 1 1 2 2 1l8-8c2 0 0-2-1-2zM955 530c-1 2-2 6 0 8 1 2 3 0 2-1v-6c1-1-1-2-2-1zM968 523l9-5c1 0 1-3-1-2l-10 5c-1 1 1 3 2 2zM966 530l2 4c1 1 3 1 3-1l-3-5h-1l-1 2zM955 512l-1-5c0-1-2-1-2 1l1 5 2-1zM965 511v-4-2l-2 1v6l2-1zM980 489h-1c-1-1-2 0-1 1 1 2 3 0 2-1h-1c-1-1-2 0-1 1 1 2 3 0 2-1zM989 527v-2c-2 0-2 2 0 2zM974 549c2 0 2-3 0-3s-2 3 0 3zM968 762c-2-1-1-4 1-6 2-1 5-2 7 0 1 2 1 5-1 6h-7c-1-1-2 2 0 2 3 1 8 2 10-2 2-2 1-7-2-8-4-2-8-1-10 2s-2 7 1 9c2 0 3-2 1-3zM789 725l-3 14c-1 1 2 2 2 0l3-14c0-1-2-2-2 0zM796 724l-3 17c-1 2 2 2 2 1l4-17c0-2-2-2-3-1zM806 725l-5 15 2 1 5-15-2-1zM829 468c-15 41-25 85-27 129 0 2 3 2 3 0 2-44 12-88 27-129 1-1-2-2-3 0z" fill="#161616"/><path d="M832 469a378 378 0 00-27 124l8-8a121 121 0 0129-41c7-7 11-11 17-12 1-1 12-3 21 3 6 3 8 8 10 12 4 6 5 12 5 15l20 1 15 4c1-1 5-4 11-5 10-1 16 5 18 6 5 5 6 11 7 15 2 7 0 10 1 19 0 6 2 12 3 16a383 383 0 0034-125l-1-20a320 320 0 00-171-4z" opacity=".4" fill="#666"/><path d="M904 460c5 1 17 5 25 17 14 21 3 45 2 49a57 57 0 01-36 30l1 6a59 59 0 0134 7c1-2 4-5 8-6 10-4 19 4 19 5 2 1 6 5 9 24 3 16 2 24 4 25 3 0 7-13 9-20 10-30 15-45 18-64 3-16 5-36 6-59a312 312 0 00-99-14z" opacity=".5" fill="#666"/><path d="M1003 490c-2 12-8 45-36 65-5 4-11 6-16 8l10 6c5 7 4 15 6 30l4 19a495 495 0 0032-128z" opacity=".4" fill="#666"/><path d="M856 578l4-7c1-2-2-4-3-2l-6 9 3 1 7-13c1-1-1-3-3-2l-7 12c0 2 2 3 3 1l6-10c1-1-1-3-2-2-4 4-6 8-8 13-1 1 1 3 2 1l6-10-2-2-5 10c0 1 2 3 3 1l6-11-2-1-6 13c0 2 2 3 3 2l7-13-3-1-4 12c0 2 2 2 3 1l4-9-2-2-4 11c0 2 2 2 3 1v-5c-1-1-3 0-3 1 0 2 0 4 2 6l2-2-4-2c-1-1-3 1-1 2l5 4c1 1 3-1 2-2l-3-5-2 2 4 5 2-2-3-8-3 1 4 7 3-1-3-9-3 1 4 7 2-1-2-9-3 1 3 9c0 1 3 1 3-1l-3-13-2 2c3 2 3 7 3 10l3-1-3-12-2 2c3 2 4 6 3 9h3l-1-4-1 1-1 5 3 1 1-5-3 1-3 5c-1 1 2 3 3 1s5-5 2-8h-2l-1 6c0 1 2 2 3 0s2-8-1-9l-2 1v7c1 1 3 1 3-1 1-5-1-9-4-12-1-1-3 0-2 1l2 12c0 2 3 1 3 0-1-4-1-10-5-13l-2 2c1 4 3 8 2 12h3l-3-9c0-2-3-1-3 0l3 11c1 1 4 0 3-2l-4-8c0-1-3 0-2 1 0 4 1 7 3 10 1 2 3 1 3-1l-5-8c-1-1-3 0-3 2l4 9c1 1 4 0 3-2l-6-6-2 3 4 5 2-3-5-3-1 2 3 3c1 0 3-1 2-2l-1-5-3 1v2l3 1 3-11c1-1-2-2-3-1l-4 10h3c0-4 2-7 4-11 0-1-2-3-3-1l-7 12 3 1 5-13c1-1-2-2-2-1l-7 11 3 1 4-9c1-2-1-3-2-1l-7 10 3 1c2-4 4-8 8-11l-3-2-6 10 3 1c1-4 3-7 6-10l-2-2-7 13c-1 2 1 3 2 1l6-8-2-2-4 8c0 2 3 3 3 1zM838 596l2 5c1 2 3 1 3-1l-3-5c-1-2-3 0-2 1zM877 609c5-6 9-12 15-16 3-2 7-4 10-4 4 1 4 8 5 11 1 2 4 1 3-1-1-3-1-9-5-11-2-3-7-1-10 0-8 4-15 12-20 19-1 2 1 3 2 2z" fill="#161616"/><path d="M879 610c7-7 14-12 23-17 2 0 1-3-1-2-9 2-15 10-22 15l2 2c4-5 11-15 19-15l-1-3-10 7c-1 1-8 7-9 6v3c6-7 13-13 22-14l-2-3c0 1-5 3-3 1l6-1c2 0 2-3 0-3-3-1-5 0-7 2l-11 8 2 2c4-6 11-10 18-11 2 0 2-3 0-3-5 0-8 3-12 6-4 4-8 8-10 13-1 2 1 4 2 2l14-14-2-1c-4 5-7 10-9 16-1 1 1 2 2 1l11-17-3-1-5 15c0 2 2 3 3 1l7-15-3-1-2 14c0 2 3 3 3 1l3-12h-3v11c0 2 3 2 3 1l2-10c0-1-2-2-3-1-5 5-11 9-18 11-1 1-1 3 1 3h3v-3l-5 1c-2 0-2 3 0 3h4v-3l-6 2c-1 0-1 3 1 3l6-1-1-2-7-1v3c4-1 7-3 8-7l-3-1-1 5c0 2 2 2 3 0l3-5h-3v6c-1 2 2 3 3 1l1-5-1-1-1 5c0 2 3 3 3 1l2-4-3-1v5h3v-3c1-1-1-3-2-1l-2 2 2 2 3-3-3-1 1 4c0 2 3 2 3 0l1-5h-2v5l3-1 1-3-3-1v4h3l1-3h-3l1 4h3v-5l-3 1 1 4h3v-5l-2 1 1 4h3l-1-3-2 1 2 3c1 2 3 1 3-1l-2-18-3 1 4 17c1 2 4 1 3-1-1-5-3-10-3-16l-3 2c2 1 2 5 3 7l1 8h3l-1-6-3 1 2 7 3-1c-2-3-3-6-3-10l-2 2 2 7 3-1-4-15c0-2-3-1-3 1l4 15c1 2 4 1 3-1 0-3-1-9-5-9l-1 1 3 12c1 1 3 0 3-1l-2-9c-1-1-3 0-3 1l1 6c1 2 4 1 3 0-1-5-1-9-3-13l-2-4c-1-1-3 0-2 1 0 6 2 11 3 16l3-1c-3-6-2-12-5-17 0-2-3-2-2 0l2 19 3-2-3-3c-1-1-3 0-3 1v4c1 1 3 1 3-1l-1-5c-1-2-3-1-3 0v5c0 2 3 2 3 0l-1-6c-1-1-3-1-3 1l-1 6c1 1 3 2 3 0l-1-6h-3v4c0 2 3 3 3 1v-5c-1-2-3-2-3-1-1 2-2 4-1 6 0 2 3 1 3 0l-1-6h-2l-3 6h3v-4l-2-2-4 5c0 1 2 3 3 1l2-2-3-2v5c1 1 3 1 3-1v-5c0-1-2-2-3-1l-2 5h3v-7h-2c-2 0-3 5-4 7l3 1 1-8c-1-2-3-2-3-1l-3 6 3 1 1-5c0-2-3-2-3 0-1 2-3 4-6 5v3h9c2 0 1-3 0-3l-6 1v2l6-1c2 0 1-3-1-3h-4v3l6-1c2-1 1-3-1-3h-3v3c7-2 14-6 19-12l-3-1-1 9h3v-12c0-1-3-2-3 0l-3 12 3 1 2-15-2-1-8 15 3 1 5-14c1-2-2-3-3-2l-10 17 2 1 9-15c1-2-1-3-2-2l-14 14 2 2c3-7 12-19 20-19v-3c-9 2-16 6-21 13-1 2 2 3 3 2 3-2 11-11 15-10l1-3c-3 1-13 3-11 7s9 1 11-1c1-1-1-2-2-2-9 1-16 8-23 14-1 1 0 3 1 3 4 1 7-4 10-5l12-9c1-1 0-3-1-3-9 0-17 11-22 17-1 2 1 3 2 3 8-5 13-14 22-16l-1-3c-9 5-17 10-24 17-2 2 1 4 2 3z" fill="#161616"/><path d="M899 601l2-1c0-2-1-3-2-2l-4 3-4 6c-1 1 0 3 2 2h1v-3l-6 1c-1 1-1 4 1 3l5-1-1-3h-1l1 3 4-4 3-5-2-1c-2 1 0 3 1 2z" fill="#161616"/><path d="M877 608c4-9 14-20 24-22 15-3 25 15 19 27-1 2 1 4 2 2 7-13 0-30-15-32-13-2-28 12-33 24 0 2 3 3 3 1zM802 606c2-6 5-13 10-18 4-5 12-10 19-8 2 1 2-2 1-3-7-2-15 2-20 6-6 6-10 14-13 22-1 2 2 3 3 1z" fill="#161616"/><path d="M814 586c5-10 11-19 17-27 7-8 14-18 23-22 2 0 1-3 0-3-10 4-17 14-24 22-7 9-14 18-18 28-1 2 1 4 2 2zM824 619l79-2v-3l-79 2c-2 0-2 3 0 3zM939 573h-2l2 1 2-2-3-1 1 3c1 2 3 2 3 1l1-1-2-1v2h2l-1-3-2 2 2 5h3l-1-3h-1l1 7 3-1-3-5c0-1-2-6 1-1l1 11 3-1c-1-2-5-9-3-11h-2c4 4 4 8 3 13h3l-2-8-1-3c0-3 1 2 1 2v17h3l-3-15-3 1c1 5 2 11 1 17 0 2 3 2 3 0 1-7-1-14-1-21l-3 1c5 8 2 15 3 23 0 2 3 2 3 0 1-8-2-15-1-23l-3 1c5 6 3 15 4 23 1 1 3 1 3-1l-3-24h-2c3 7 3 13 4 20h3l-5-20-2 1c5 4 5 12 5 17 0 2 3 2 3 0 0-7-1-15-6-19-1-1-3 0-3 2l5 19c0 2 3 2 3 0-1-7-1-14-5-21-1-1-3-1-3 1l3 24h3c-2-8 1-17-4-24-1-1-3-1-3 1-1 8 2 16 1 23h3c-1-8 2-16-3-24h-3c0 7 2 14 1 21h3c1-6 0-12-1-18-1-2-3-1-3 0 0 6 2 11 3 16 1 2 3 1 3 0 0-4 3-27-6-25l-1 1c-1 5 2 11 3 16 1 1 3 1 3-1 1-5 0-11-4-15h-2c-4 3 0 10 2 14 1 2 3 1 3 0 0-4 0-16-6-16-5 0 0 11 1 13 1 1 3 0 3-1 0-3 0-11-4-12-5 0-2 7-1 9 0 1 3 2 3 0 0-4 0-8-4-9l-2 2 2 4 3-1-1-4-2-1-2 3h3l-1-4h-3v1h2c-1-1-2-2-3 0-2 2 0 4 2 2z" fill="#161616"/><path d="M937 572c11 12 11 29 8 44 0 2 3 3 3 1 3-16 3-34-9-47-2-1-4 1-2 2z" fill="#161616"/><path d="M948 600v16l1 2 2-1v-1c1-1-2-2-3 0l1-1 1 2c1-6 2-12 0-18 0-2-3-1-2 1z" fill="#161616"/><path d="M950 598l1 19c0 1 2 2 3 1 2-1 0-4-2-2l2 1-1-19c0-2-3-2-3 0z" fill="#161616"/><path d="M953 596c0 7 0 14 4 21 1 1 3 0 2-1v-3c-1-2-3-1-3 1l1 2 2-1c-3-6-3-12-3-19 0-2-3-2-3 0z" fill="#161616"/><path d="M954 597c1 7 2 15 6 22l2-2-5-1-2-1c-1 1-2 0-1-1v-3l1-7-3 1 4 11 1-2-2-2-2 2 2 2c1 2 3-1 2-2l-3-2c-1-1-3 1-2 2 1 2 2 3 5 3 1 0 2-1 1-2-2-4-3-7-3-11-1-2-3-1-3 0l-1 9v4l2 1 8 2 2-2c-4-7-5-15-6-22 0-2-3-1-3 1zM826 468l-4 14c-1 2 2 3 3 1l3-10-3-1c-14 41-22 84-24 128 0 2 3 2 3 0 2-44 10-86 24-127 1-2-2-3-3-1l-3 10 3 1 4-14c1-2-2-2-3-1z" fill="#161616"/><path d="M802 603c3-42 7-84 21-124h-2c-7 18-11 38-13 58 0 2 3 2 3 0 2-20 6-39 12-58 1-1-2-2-3 0-14 40-18 82-21 124 0 2 3 2 3 0z" fill="#161616"/><path d="M786 666c5-6 11-14 16-25 10-22 4-34 14-45 9-10 26-16 36-9 9 7 7 21 7 23l-13 1c2-9-1-17-6-19-7-2-16 7-17 7-6 6-6 14-8 24l-5 17c-3 11-2 14-5 19-3 6-7 10-10 13l-9-6zM868 594c2-3 6-9 12-13 10-6 26-10 37-2 11 7 12 20 13 30 2 14-2 19 0 31 1 7 5 19 18 31-4-1-11-3-17-9-9-10-10-23-10-31 0-18 5-21 1-30s-15-16-26-14c-6 1-11 6-14 9-5 5-7 10-8 13h-4l-1-6-1-9z" opacity=".5" fill="#666"/></g><g><path d="M924 810a6315 6315 0 00-111 89l-174 143a53 53 0 0120 46 4421 4421 0 00305-257c1-9-2-18-9-23-8-7-21-6-31 2zM766 797a5486 5486 0 00-118 72L461 984c4 2 9 6 14 12 8 10 8 20 7 24a4700 4700 0 00326-206c2-8-1-15-8-19-10-6-24-5-34 2z" fill="#fff" stroke="#161616" stroke-width="3" stroke-miterlimit="10"/><path d="M659 1035c9 5 14 13 16 23 0 2 3 1 3-1-2-10-8-19-17-25-2-1-3 2-2 3zM715 982c14 9 21 24 21 40 1 2 4 2 4 0-1-17-9-33-23-43-2-1-3 2-2 3zM735 980c8 7 12 16 12 26 0 2 3 2 3 0 0-11-4-21-13-28-1-1-3 1-2 2zM781 934c12 8 19 21 19 35 0 2 3 2 3 0 0-15-8-29-21-38-1-1-3 2-1 3zM798 928c6 7 10 16 12 26 0 1 3 1 3-1-2-11-6-20-13-28-1-1-3 1-2 3zM760 951c13 7 17 21 20 35 1 2 3 1 3-1-3-14-8-29-21-36-2-1-3 1-2 2zM861 870c12 6 14 20 16 31 1 2 4 2 3 0-2-13-5-27-17-33-2-1-3 2-2 2zM879 860c8 7 12 17 11 28 0 2 3 2 3 0 1-12-4-23-12-30-2-1-4 1-2 2zM896 833c16 7 24 23 20 40-1 2 2 3 3 1 4-18-5-36-21-43-2-1-4 2-2 2zM918 824c9 8 13 19 11 31 0 2 3 2 3 0 3-12-2-25-12-33-1-1-3 1-2 2zM933 815c9 7 14 18 12 29 0 2 3 3 3 1 2-13-3-25-13-32-2-1-3 1-2 2zM513 954c11 6 15 18 18 29 0 2 3 1 3-1-4-12-8-25-19-31-2-1-4 2-2 3zM532 947c10 6 12 18 14 28 1 2 4 1 3-1-2-11-5-23-16-29-2-1-3 1-1 2zM561 927c9 8 14 18 14 30 1 2 4 2 4 0-1-12-7-24-16-32-1-1-3 1-2 2zM586 915c7 9 11 20 11 31 0 2 3 2 3 0 0-12-4-24-12-34-1-1-3 1-2 3zM649 872c13 5 16 19 15 31 0 2 3 2 3 0 2-14-3-29-17-34-2 0-3 3-1 3zM666 861c9 6 15 15 15 26 1 2 4 2 3 0 0-12-6-22-16-28-2-1-3 1-2 2zM624 894c8 6 12 15 11 25 1 2 4 2 4 0 0-11-4-21-12-28-2-1-4 1-3 3zM706 838c9 9 14 21 12 33 0 2 3 2 3 0 2-13-3-26-13-35-1-1-3 1-2 2zM729 821c12 3 14 17 14 27 0 2 3 2 3 0-1-12-3-27-16-30-2-1-3 2-1 3zM753 812c7 9 10 20 8 31 0 2 3 2 3 1 2-13-1-25-9-34-1-2-3 1-2 2zM775 793c9 4 14 12 15 21 0 2 3 2 3 0-1-10-7-20-17-24-2-1-2 2-1 3zM808 907c7 3 14 7 18 13 1 2 4 0 3-1-5-7-12-12-20-15-2 0-2 2-1 3zM831 892c9 3 15 11 17 21 1 1 4 1 3-1-2-10-9-19-19-23-1-1-3 2-1 3zM673 1017c6-1 11 2 14 7 1 1 4 0 3-2-4-6-11-9-18-8-2 0-1 3 1 3z" fill="#161616"/><path d="M608 1000c21 13 31 32 40 50 13 27 12 41 11 47 0 5-1 13-8 20-8 7-21 8-30 5-19-6-27-29-36-58-5-16-21-66-6-74 7-5 19 3 29 10z" fill="#161616" stroke="#161616" stroke-width="2" stroke-miterlimit="10"/><path d="M610 1113l21 3c2 1 2-2 1-3l-21-2c-2-1-2 2-1 2zM607 1097l13 1v-3l-13-1c-2-1-2 2 0 3zM602 1091l28 2v-3l-27-2c-2 0-3 3-1 3zM598 1080l22 1c2 0 2-3 0-3l-22-1v3zM598 1074h21c2 1 2-2 0-3h-21c-2 0-2 3 0 3zM593 1064h17c2 0 2-3 0-3h-17c-2-1-2 2 0 3zM589 1054l17 1c2 0 2-3 0-3l-17-1c-2 0-2 3 0 3zM584 1041h18c2 0 2-3 0-3h-18c-2 0-2 3 0 3zM581 1032c8 1 16 2 24 1 2 0 2-3 0-3-8 1-16 0-24-1-2 0-2 3 0 3zM577 1022l21 2c2 0 3-3 1-3l-22-2c-2 0-2 3 0 3z" fill="#fff"/><path d="M575 1003c11-5 21 9 26 17a470 470 0 0127 62c4 11 9 23 8 34 0 2 3 2 3 0 1-13-5-25-9-37l-14-36c-5-11-10-22-17-31-5-7-15-16-25-12-1 0-1 3 1 3z" fill="#fff"/><path d="M438 926c21 14 31 33 40 51 13 26 12 40 12 46-1 6-2 14-9 20-8 8-21 8-29 5-20-6-28-29-37-58-5-16-21-66-6-74 7-4 19 3 29 10z" fill="#161616" stroke="#161616" stroke-width="2" stroke-miterlimit="10"/><path d="M441 1040l21 3c2 0 2-3 0-3l-21-3c-1-1-2 2 0 3zM437 1023l13 1c2 0 2-3 0-3l-13-1c-2 0-2 3 0 3zM433 1017l27 3c2 0 2-3 0-3l-27-3c-2 0-2 3 0 3zM429 1006l21 1c2 0 2-3 0-3l-21-1c-2 0-2 3 0 3zM428 1000l21 1c2 0 2-3 0-3l-21-1c-2 0-2 3 0 3zM423 990h17c2 0 2-3 0-3h-17c-2 0-2 3 0 3zM419 980l17 1c2 0 2-3 0-3l-17-1c-2 0-2 3 0 3zM414 967l18 1c2 0 2-3 0-3l-18-1c-2 0-2 3 0 3zM411 959h24c2 0 2-3 0-3h-24c-2-1-2 2 0 3zM407 948l22 2c2 0 2-3 0-3l-22-2c-2 0-2 3 0 3z" fill="#fff"/><path d="M405 929c11-5 22 10 26 17a470 470 0 0127 62c4 11 9 23 8 34 0 2 3 2 4 0a471 471 0 00-24-73c-5-11-10-22-17-31-5-7-15-16-24-12-2 1-1 4 0 3z" fill="#fff"/><path d="M806 799L485 998l4 10c2 4 2 8 2 10a5601 5601 0 00319-206l-4-13zM960 815l-304 248a53 53 0 015 25 5370 5370 0 00303-258l-4-15z" opacity=".4" fill="#666"/><path d="M967 827l-311 244a74 74 0 014 17 5018 5018 0 00307-261zM805 807a267456 267456 0 01-314 202c2 2 1 5-1 7a5444 5444 0 00316-201l-1-8z" opacity=".4" fill="#666"/></g><g><path d="M1078 481c6-8 17-16 24-14 9 4 9 24 9 48 2 30 8 59 11 88a943 943 0 0055 230c-1 3-4 8-9 13-2 2-8 6-12 7-12 1-26-45-30-60-24-84-35-145-36-150-8-45-3-26-10-66-9-54-16-77-2-96z" fill="#fff" stroke="#161616" stroke-width="3" stroke-miterlimit="10"/><path d="M1084 572c6-7 17-10 26-7 2 0 3-2 1-3-11-3-22 0-29 8-2 2 0 4 2 2zM1092 646c7-8 16-11 25-9 2 0 3-3 1-3-10-2-21 1-28 10-1 1 1 3 2 2zM1087 620c7-11 20-15 30-9 2 1 4-1 2-2-12-7-27-3-34 9-1 2 2 3 2 2zM1104 705c7-8 18-15 28-9 2 1 4-2 2-3-12-6-24 1-32 10-2 2 1 4 2 2zM1099 674c7-11 20-13 30-5 2 1 4-2 2-3-12-8-27-5-35 6-1 2 2 4 3 2zM1117 755c4-12 17-17 27-10 2 1 4-2 2-3-12-8-28-1-32 12 0 2 3 3 3 1zM1126 784c5-8 16-12 25-9 2 0 3-3 1-3-11-3-22 1-29 11-1 2 2 3 3 1zM1132 810c8-7 20-15 29-6 2 1 4-1 2-2-10-10-24-2-33 6-1 1 1 3 2 2zM1148 826c5-8 14-10 21-4 2 1 3-2 2-3-9-7-20-4-26 5 0 2 2 3 3 2zM1075 529c6-9 19-13 30-9 1 1 2-2 0-3-12-5-26 0-33 11 0 2 2 3 3 1zM1073 499c4-5 8-11 14-12 7-1 12 2 17 6 2 1 3-2 2-3-6-4-13-7-20-5-7 1-12 7-16 12-1 2 2 3 3 2zM1077 557c5-10 18-14 28-10 2 0 3-3 1-3-12-5-26 0-32 12-1 1 2 3 3 1zM1084 597c7-9 19-13 30-10 2 0 3-3 1-3-13-3-26 1-33 11-2 2 1 3 2 2zM1114 725c6-10 19-8 28-4 1 1 3-1 1-2-10-6-24-7-32 4-1 2 2 3 3 2z" fill="#161616"/><path d="M1153 852a112 112 0 0039 81l2-34c5 5 14 12 25 17 13 6 31 12 33 9 1-2-3-8-29-27 6 4 20 12 38 12 8 0 14-2 19-3 0-3-1-8-4-13-2-4-5-7-10-11l-18-13c18 2 27 2 28 1 1-4-33-16-100-36a31 31 0 01-23 17z" fill="#fff" stroke="#161616" stroke-width="3" stroke-miterlimit="10"/><path d="M1236 883l42 24c2 1 4-2 2-3l-43-24c-1-1-3 2-1 3z" fill="#161616"/><path d="M1087 472l4 46c4 35 14 113 67 304l22 73c1-5 3-11 8-12 6-1 13 8 19 15 8 9 21 20 43 27a82 82 0 01-57-26v36a103 103 0 01-40-67l-1-14a93 93 0 01-19-35l-14-50a1612 1612 0 01-48-261c0-5 1-15 7-25l9-11z" opacity=".5" fill="#666"/><path d="M1225 899c0-4 0-8 2-10 4-2 9 3 19 8 18 9 31 9 31 11-1 2-13 2-24 0-12-2-21-6-28-9zM1082 480c-1 41 2 75 4 99 7 60 23 115 57 225 5 19 15 37 22 65l7 25c7 17 15 30 20 39a110 110 0 01-41-81l-9-16v6l-13-37a1208 1208 0 01-49-225l-11-82a43 43 0 0113-18z" opacity=".5" fill="#666"/></g><g><path d="M1070 232l48 50-20 114-53-26 25-138z" fill="#161616" stroke="#161616" stroke-width="2" stroke-miterlimit="10"/><path d="M842 376l32 23 223-1-16-57-239 35z" fill="#161616" stroke="#161616" stroke-width="2" stroke-miterlimit="10"/><path d="M865 244a603 603 0 00-24 131 429 429 0 00204-5 365 365 0 0025-138 586 586 0 00-143 0c-16 2-38 6-62 12z" fill="#fff" stroke="#161616" stroke-width="2" stroke-miterlimit="10"/><path d="M878 261c9 8 17 18 21 30 1 2 4 1 3-1-5-12-12-23-22-31-2-1-4 1-2 2z" fill="#161616"/><path d="M876 295c8-14 19-27 31-37 2-2 0-4-2-2-13 10-24 23-32 37-1 2 2 4 3 2zM1010 249c11 12 19 26 24 42 0 2 3 1 3-1-5-16-14-31-25-43-1-2-3 0-2 2z" fill="#161616"/><path d="M1012 286c9-15 21-28 36-38 2-1 0-3-1-2-16 10-28 23-38 39-1 1 2 3 3 1zM874 317c0 6-5 10-4 15 0 4 3 6 7 7s10 0 13-2c5-3 7-11 10-16 1-1-2-3-3-1-6 13-11 26-14 40 0 2 3 3 3 1 3-14 8-27 14-40l-3-1c-4 8-8 19-19 17-11-3-1-13-1-20 0-2-3-2-3 0zM933 359c-7-8-6-20-2-29s17-22 26-11c5 8 2 22-1 30-4 10-17 17-25 7-1-2-4 0-3 1 8 9 20 8 27-1 4-5 6-13 7-20 1-6 1-13-3-19-9-11-23-2-28 7-7 12-9 27 0 37 1 2 3 0 2-2zM1002 305l-4 13-2 10c1 4 6 6 10 6 12 1 18-11 20-22l-3-1c-7 15-11 30-13 45 0 2 3 2 3 0 2-15 6-29 12-43l-3-1c-1 8-5 19-15 19l-6-1c-3-3-1-8 0-11l3-13c1-2-2-3-2-1zM939 230l1-4c1-3 5-4 8-4l13 1 12-1h3c3 0 4 1 4 3v2c1 2 4 0 3-1l-1-5-3-2c-6-1-13 1-18 1h-18c-6 1-5 4-7 9 0 1 2 3 3 1z" fill="#161616"/><path d="M941 229l36-3v-3l-22 2c-5 0-10-2-15 1l2 1v-3h-3l1 1c0 2 2 2 2 1l2-1-2-1-2 2 2 2 1-1-2-1c0-2 34-2 37-3l-2-1v4l3-1c-5-2-9-4-14-4-6 0-12 4-18 0v3l11 1v-2c-7 0-13 1-18 4-2 1-1 3 0 3 9 3 19-1 28-1 3 0 15 1 11-5-1-2-3 0-2 1l-9 1h-10c-6 1-11 3-17 1v3c6-3 11-4 17-5 2 0 2-2 0-2l-11-2c-2 0-2 2-1 3 3 2 7 2 11 2 8-2 14-2 20 2 1 0 2 0 3-2v-4l-2-1h-22c-4 0-12-1-16 2-6 5 5 9 4 3 0-1-1-2-2-1l-2 1c-1 1 1 3 2 3 2-1 3-3 3-5l-2-2-3 3 3 1-1-3h-3v5l2 1c5-3 14 0 19-1l18-2c1 0 1-3-1-3l-36 3c-2 0-2 3 0 3z" fill="#161616"/><path d="M952 220c-1-2 18-3 20-3l-1-2v4l2-1-8-2c-3 0-7 3-10 1l-1 3c4-1 8-2 12-1l-1-3-13 2c-2 1-1 3 0 3l17-2c1 0 1-3-1-2h-6v3l8-1-1-3-3 1v3l4-1c2 0 1-3-1-3l-3 1c-2-1-3 2-1 2 2 1 4 1 5-1 2-1 1-2 0-2-3-1-6 0-9 1-1 0-1 3 1 3l6-1v-2l-16 1 1 3 13-2c2-1 1-3 0-3-5-1-9 0-13 1v3h6c5-1 8-2 13 0 1 1 2 0 2-1v-4l-2-1-19 1c-3 1-5 3-4 6 0 2 3 1 3-1z" fill="#161616"/><path d="M952 220v-4l-2 2 11-1 5-1s6-1 5 1 2 3 3 2c5-10-21-5-24-5l-1 2-1 4c1 2 4 2 4 0zM962 196h-1l2-2c1 0 2 2 0 2v-1 0h1-1l1 1h-2c0-2-3-1-3 1 1 2 4 3 6 2s2-4 1-6l-4-1-2 3 1 3h4c2-2 1-5-2-5-2 0-4 2-3 4s4 3 6 1c2-1 1-4-1-6s-6 0-6 3c-1 1 0 3 1 4h4v-2l-2-1zM937 210l8-5c2-1 0-4-1-3l-8 5c-2 1 0 4 1 3zM935 193h6c2 0 2-3 0-3h-6v3zM954 182l-3-7c-1-2-4-1-3 1l3 7c1 1 4 1 3-1zM970 178l1-9c1-2-2-3-3-1l-1 9c-1 2 2 3 3 1zM979 186l6-4c1-1 0-4-2-3l-6 4c-1 1 0 4 2 3zM984 197l6 3c1 1 3-2 1-3l-5-3c-2-1-4 2-2 3zM870 255c-12 33-16 68-20 103 0 2 3 2 3 0 4-34 8-69 19-102 1-2-2-3-2-1zM1057 246c-5 37-14 74-26 110 0 2 3 2 3 1 12-37 21-74 26-111 0-2-3-2-3 0z" fill="#161616"/><path d="M873 255a564 564 0 01162-16c7 1 14 1 21 6 1 1 3-2 1-3-11-8-28-6-41-6a567 567 0 00-144 17c-2 0-1 3 1 2zM851 362c24 18 56 14 84 12l52-4c15-1 32-3 45-11 1-1 0-3-2-2-13 8-31 9-47 11l-48 3c-28 1-59 5-83-12-2-1-3 2-1 3zM1038 365c-2-2 0-6 2-4 3 1 1 5-2 4-2-1-2 2-1 3 3 1 6-1 7-4 2-2 0-5-3-6-2-1-5-1-6 2-2 3-1 5 1 7 2 1 3-1 2-2zM876 319l2 1-1-2c1 5-5 10-2 15 2 4 6 6 10 4 2 0 1-3 0-3-5 2-9-3-7-7 1-3 3-5 2-9l-1-1-2-1c-2 0-3 3-1 3z" fill="#161616"/><path d="M877 320c-2 4-6 11-3 15 3 3 7 3 11 2 2 0 1-3-1-2-3 0-8 0-8-4s2-7 4-11c0-1-3-2-3 0z" fill="#161616"/><path d="M876 318c-5 7-7 17 4 18 10 1 16-8 19-16 1-2-2-3-3-1-4 14-10 27-13 42-1 1 2 2 3 0 3-14 8-27 13-41l-3-1c-2 6-5 12-11 14-5 1-10 0-10-6l4-7c1-2-2-3-3-2z" fill="#161616"/><path d="M898 319c1 3-3 8-3 10l-4 11-8 21c0 2 3 2 3 1l9-24 4-12 2-7c-1-2-4-1-3 0z" fill="#161616"/><path d="M898 322c0 6-4 13-6 19l-8 20c0 1 2 2 3 0l8-21c2-6 6-12 6-18 0-2-3-2-3 0zM932 354c-5-9-2-19 4-26 2-3 5-7 9-9 6-4 11 3 12 9 1 9-1 19-6 26-3 5-10 6-16 4-4-2-5-7-5-11-1-8 2-18 8-24 3-3 9-6 13-5 7 2 6 11 5 16-1 8-2 19-10 23-5 2-11 0-14-5-2-4-2-10 0-15 1-4 3-8 7-12s12-8 16-1c3 4 1 11 0 16-2 5-3 10-7 14-1 1 1 4 2 2 5-5 7-11 8-17s3-12-1-18c-7-11-20 0-25 7-5 10-8 25 3 31 11 7 20-6 23-16 2-8 6-28-9-28-13-1-20 13-22 24-1 11 1 23 14 23 6 0 9-2 13-7 3-6 5-12 6-19 1-6 0-14-5-18-4-4-9-4-14 0-11 8-19 24-12 37 1 2 4 0 3-1z" fill="#161616"/><path d="M949 354l-2 2v2h2l2-2v-2h-2z" fill="#161616"/><path d="M951 356l1-1c1-1-1-3-2-2l-6 5c-2 2 1 4 2 2l5-5-1-2-1 1c-2 1 0 3 2 2zM1003 308c2-1 0 7 0 8l-1 5c0 3 0 5 2 7 4 6 9 4 14 1 2-1 0-3-2-2-3 2-7 3-10-1l-1-5 2-11c0-3-1-6-5-5-2 0-1 3 1 3z" fill="#161616"/><path d="M1002 307l-3 11-1 8 3 4c2 2 3 1 5 2l2-2c-7-4-6-12-4-18h-3c-1 7-2 19 8 20 3 0 6-2 8-5l8-16-3-1-11 47c0 2 3 3 3 1l11-47c1-2-2-3-3-2l-7 16c-2 4-7 5-10 0-3-3-2-9-1-13 0-2-3-2-3 0-2 7-3 16 5 20 2 1 4-2 2-3h-3c-3-3-4-5-3-9l3-13c0-1-3-2-3 0zM1127 72c-2-6-9-4-12 0-3 3-4 8-5 12l-5 17c-1 2 1 2 2 2l21-1c1 1 2 0 2-1-1-5 1-10 4-14 2-1-1-3-2-2-4 4-6 10-5 16l1-2-22 1 2 2 5-18 2-7c1-3 7-10 9-4 1 2 4 0 3-1zM1064 208v-5-6c1-3 7 2 9 3l2-1 4-8 7-10c4-6 9-12 16-14 2 0 1-3-1-2-7 2-12 7-16 13l-7 8-6 12 3-1c-3-1-9-7-13-4-3 3-1 11-1 15-1 2 2 2 3 0zM1088 202c-2-6 3-11 9-12 4-1 7-4 11-6 9-6 19-10 30-13 1 0 1-3-1-2-7 1-13 3-19 6l-18 10c-4 3-9 2-13 7-2 3-3 7-2 11 1 2 4 1 3-1z" fill="#161616"/></g></svg>