<svg xmlns="http://www.w3.org/2000/svg" viewBox="0 0 441.75 576" version="1.2"><defs><clipPath id="a"><path d="M2.44 3.55h436.5V572.8H2.44zm0 0"/></clipPath></defs><path d="M69.5 501.7a38.27 38.27 0 0110.62-22.16 38.88 38.88 0 0110.19-7.08 28.37 28.37 0 01-11.8-23 28.44 28.44 0 1156.87 0c0 9.49-4.67 17.82-11.78 22.99a37.75 37.75 0 0120.8 29.25 56.81 56.81 0 0019.42-42.74c0-31.4-25.51-56.93-56.88-56.93a56.96 56.96 0 00-56.87 56.93A56.8 56.8 0 0069.5 501.7zm0 0M69.5 330.92a38.26 38.26 0 0110.62-22.15 38.79 38.79 0 0110.19-7.08 28.38 28.38 0 01-11.8-23 28.45 28.45 0 0128.43-28.46 28.45 28.45 0 0128.44 28.47c0 9.47-4.67 17.8-11.78 22.97a37.76 37.76 0 0120.8 29.25 56.8 56.8 0 0019.42-42.74c0-31.4-25.51-56.92-56.88-56.92a56.95 56.95 0 00-56.87 56.92c0 17.03 7.55 32.3 19.43 42.74zm0 0" fill="#d7e0eb"/><g clip-path="url(#a)"><path d="M2.68 13.04v550.28a9.49 9.49 0 009.48 9.48h417.06a9.49 9.49 0 009.48-9.48V13.04a9.49 9.49 0 00-9.48-9.49H12.16a9.49 9.49 0 00-9.48 9.5zM391.3 506.4h-56.88v-56.92h56.88zm-28.44-189.75a28.45 28.45 0 01-28.44-28.46 28.45 28.45 0 1156.88 0 28.45 28.45 0 01-28.44 28.46zm-11.71-212.2l11.71-24.98 11.72 24.98 26.2 4-18.96 19.46 4.47 27.46-23.43-12.97-23.43 12.97 4.47-27.46-18.95-19.45zm-111.51 3.48h56.87v18.97h-56.87zm0 170.78h56.87v18.97h-56.87zm0 189.75h56.87v18.97h-56.87zm-37.92-360.53h18.96v18.97h-18.96zm0 170.78h18.96v18.97h-18.96zm0 189.75h18.96v18.97h-18.96zM106.94 41.5c41.81 0 75.83 34.05 75.83 75.9 0 41.84-34.02 75.9-75.83 75.9-41.8 0-75.83-34.06-75.83-75.9 0-41.85 34.02-75.9 75.83-75.9zm0 170.77c41.81 0 75.83 34.05 75.83 75.9 0 41.85-34.02 75.9-75.83 75.9-41.8 0-75.83-34.05-75.83-75.9 0-41.85 34.02-75.9 75.83-75.9zm0 170.77c41.81 0 75.83 34.06 75.83 75.9 0 41.85-34.02 75.9-75.83 75.9-41.8 0-75.83-34.05-75.83-75.9 0-41.84 34.02-75.9 75.83-75.9zm0 0" fill="#d7e0eb"/></g><path d="M69.5 160.15a38.27 38.27 0 0110.62-22.16 38.77 38.77 0 0110.19-7.07 28.38 28.38 0 01-11.8-23 28.45 28.45 0 1156.87 0c0 9.48-4.67 17.8-11.78 22.98a37.75 37.75 0 0120.8 29.25 56.8 56.8 0 0019.42-42.74c0-31.4-25.51-56.93-56.88-56.93a56.96 56.96 0 00-56.87 56.93c0 17.03 7.55 32.3 19.43 42.74zm0 0" fill="#d7e0eb"/></svg>